<svg width="96" height="96" viewBox="0 0 96 96" fill="none" xmlns="http://www.w3.org/2000/svg">
<path d="M31.7993 92.8499H31.6993C31.4373 92.8221 31.1968 92.692 31.0301 92.4879C30.8635 92.2838 30.7841 92.0222 30.8093 91.7599L31.5193 84.8699C31.5994 84.1071 31.51 83.336 31.2576 82.6117C31.0053 81.8874 30.5961 81.2278 30.0593 80.6799L20.9993 71.3799C19.1127 69.4528 17.5643 67.2216 16.4193 64.7799L10.6393 52.5299C9.2543 49.5682 8.53413 46.3394 8.5293 43.0699V27.4299C8.53382 26.471 8.89052 25.5473 9.53159 24.8342C10.1727 24.1212 11.0534 23.6685 12.0064 23.5624C12.9593 23.4562 13.9181 23.7039 14.7004 24.2584C15.4826 24.8129 16.0339 25.6355 16.2493 26.5699L19.7293 42.1299C19.7785 42.385 19.7266 42.6492 19.5844 42.8667C19.4422 43.0841 19.221 43.2377 18.9675 43.2949C18.7141 43.3521 18.4483 43.3084 18.2266 43.1731C18.0048 43.0378 17.8444 42.8214 17.7793 42.5699L14.2993 26.9999C14.1931 26.5446 13.9235 26.144 13.5417 25.8742C13.16 25.6043 12.6924 25.4838 12.2278 25.5356C11.7631 25.5873 11.3336 25.8078 11.0205 26.155C10.7075 26.5023 10.5327 26.9524 10.5293 27.4199V43.0699C10.5316 46.0426 11.187 48.9785 12.4493 51.6699L18.2193 63.9299C19.2675 66.1753 20.6874 68.2275 22.4193 69.9999L31.4893 79.2999C32.2267 80.0594 32.7882 80.9717 33.1338 81.9723C33.4794 82.9729 33.6008 84.0372 33.4893 85.0899L32.7993 91.9999C32.7631 92.2383 32.642 92.4557 32.4583 92.6119C32.2745 92.7681 32.0405 92.8526 31.7993 92.8499Z" fill="white"/>
<path d="M47.9996 92.8499C47.7344 92.8499 47.48 92.7446 47.2925 92.5571C47.1049 92.3695 46.9996 92.1152 46.9996 91.8499V74.7799C47.0064 71.0437 45.8725 67.3944 43.7496 64.32L42.4796 62.4799C39.8229 58.608 36.0887 55.6005 31.7396 53.83C30.5125 53.3335 29.3998 52.5917 28.4696 51.65L20.9096 43.9999C20.4963 43.6153 19.9545 43.3985 19.3899 43.3919C18.8254 43.3853 18.2786 43.5892 17.8563 43.964C17.4341 44.3388 17.1666 44.8575 17.1062 45.4188C17.0458 45.9802 17.1968 46.5439 17.5296 46.9999L33.5896 66.9199C33.6727 67.0222 33.7347 67.1399 33.7721 67.2663C33.8096 67.3926 33.8216 67.5251 33.8077 67.6561C33.7938 67.7872 33.7541 67.9141 33.6909 68.0298C33.6277 68.1454 33.5423 68.2474 33.4396 68.33C33.2336 68.4946 32.9709 68.5712 32.7087 68.5431C32.4465 68.515 32.206 68.3845 32.0396 68.18L15.9996 48.2499C15.2966 47.3882 14.9602 46.2848 15.0631 45.1774C15.166 44.07 15.6998 43.0474 16.5496 42.33C17.3719 41.6302 18.4278 41.2663 19.5066 41.3108C20.5854 41.3553 21.6077 41.8049 22.3696 42.5699L29.9296 50.24C30.6559 50.9973 31.5309 51.5965 32.4996 51.9999C37.2052 53.9206 41.2474 57.1738 44.1296 61.36L45.3896 63.2C47.7403 66.6041 48.9995 70.643 48.9996 74.7799V91.8499C48.9996 92.1152 48.8942 92.3695 48.7067 92.5571C48.5192 92.7446 48.2648 92.8499 47.9996 92.8499Z" fill="white"/>
<path d="M64.1994 94C63.9506 94.0013 63.7103 93.9098 63.5254 93.7433C63.3405 93.5769 63.2242 93.3476 63.1994 93.1L62.4894 86.22C62.3779 85.1673 62.4993 84.103 62.8449 83.1024C63.1905 82.1018 63.7519 81.1895 64.4894 80.43L73.5594 71.13C75.2835 69.3777 76.703 67.3498 77.7594 65.13L83.5294 52.88C84.7906 50.1847 85.4459 47.2458 85.4494 44.27V28.58C85.4459 28.1125 85.2712 27.6625 84.9581 27.3152C84.6451 26.9679 84.2156 26.7475 83.7509 26.6957C83.2862 26.644 82.8187 26.7644 82.4369 27.0343C82.0551 27.3042 81.7856 27.7047 81.6794 28.16L78.2194 43.72C78.1905 43.8514 78.136 43.9757 78.0591 44.086C77.9821 44.1962 77.8842 44.2903 77.7709 44.3627C77.6576 44.4351 77.5312 44.4845 77.3988 44.5081C77.2664 44.5317 77.1307 44.5289 76.9994 44.5C76.868 44.4711 76.7437 44.4167 76.6334 44.3397C76.5232 44.2628 76.4291 44.1649 76.3567 44.0516C76.2843 43.9383 76.2349 43.8118 76.2113 43.6795C76.1877 43.5471 76.1905 43.4114 76.2194 43.28L79.6994 27.72C79.9148 26.7857 80.466 25.9631 81.2483 25.4086C82.0306 24.8541 82.9893 24.6064 83.9423 24.7125C84.8953 24.8187 85.776 25.2713 86.4171 25.9844C87.0581 26.6974 87.4148 27.6212 87.4194 28.58V44.22C87.4145 47.4895 86.6944 50.7184 85.3094 53.68L79.5894 65.93C78.4413 68.3725 76.8896 70.6038 74.9994 72.53L65.9294 81.82C65.3963 82.3681 64.9902 83.0265 64.7396 83.7488C64.4891 84.4711 64.4002 85.2396 64.4794 86L65.1894 92.89C65.2046 93.0215 65.1937 93.1547 65.1571 93.2819C65.1205 93.409 65.059 93.5277 64.9762 93.6309C64.8934 93.7342 64.791 93.82 64.6748 93.8833C64.5586 93.9467 64.431 93.9864 64.2994 94H64.1994Z" fill="white"/>
<path d="M48 93.9999C47.7348 93.9999 47.4804 93.8946 47.2929 93.707C47.1054 93.5195 47 93.2651 47 92.9999V75.9299C46.9961 71.7862 48.2554 67.7397 50.61 64.3299L51.87 62.4899C54.7522 58.3037 58.7944 55.0505 63.5 53.1299C64.4777 52.736 65.363 52.1435 66.1 51.3899L73.66 43.7299C74.4206 42.9634 75.4423 42.512 76.5211 42.4656C77.5999 42.4193 78.6565 42.7815 79.48 43.4799C80.3253 44.2016 80.8535 45.2263 80.9507 46.3336C81.048 47.4408 80.7066 48.5419 80 49.3999L64 69.3299C63.8336 69.5345 63.5931 69.665 63.3309 69.6931C63.0687 69.7212 62.806 69.6446 62.6 69.4799C62.4973 69.3974 62.4119 69.2954 62.3487 69.1797C62.2855 69.0641 62.2458 68.9371 62.2319 68.8061C62.218 68.6751 62.23 68.5426 62.2675 68.4162C62.3049 68.2899 62.3669 68.1722 62.45 68.0699L78.47 48.1499C78.8028 47.6939 78.9538 47.1301 78.8934 46.5688C78.833 46.0075 78.5655 45.4888 78.1433 45.114C77.721 44.7392 77.1742 44.5352 76.6097 44.5419C76.0451 44.5485 75.5033 44.7653 75.09 45.1499L67.53 52.7999C66.5985 53.745 65.4864 54.4931 64.26 54.9999C59.9101 56.7642 56.1751 59.7689 53.52 63.6399L52.25 65.4799C50.1336 68.5538 49.0003 72.1979 49 75.9299V92.9999C49 93.2651 48.8947 93.5195 48.7071 93.707C48.5196 93.8946 48.2652 93.9999 48 93.9999Z" fill="white"/>
<path d="M61.9997 55.8999C61.8084 55.9004 61.621 55.846 61.4598 55.7432C61.2985 55.6404 61.17 55.4935 61.0897 55.3199C59.9643 52.8861 58.1847 50.8129 55.9496 49.3316C53.7144 47.8503 51.1117 47.0192 48.4317 46.9311C45.7517 46.8429 43.0999 47.5012 40.7723 48.8324C38.4446 50.1636 36.5327 52.1154 35.2497 54.4699C35.195 54.598 35.1142 54.7131 35.0125 54.8081C34.9107 54.9031 34.7902 54.9758 34.6587 55.0216C34.5273 55.0673 34.3877 55.0851 34.2489 55.0738C34.1102 55.0626 33.9753 55.0224 33.853 54.956C33.7306 54.8896 33.6235 54.7984 33.5385 54.6882C33.4534 54.578 33.3923 54.4512 33.359 54.316C33.3258 54.1808 33.3211 54.0402 33.3453 53.9031C33.3696 53.766 33.4221 53.6355 33.4997 53.5199C34.9605 50.8385 37.1383 48.6163 39.7897 47.1018C42.4411 45.5872 45.4616 44.8401 48.5133 44.9438C51.565 45.0476 54.5277 45.9982 57.0702 47.6893C59.6126 49.3805 61.6344 51.7455 62.9097 54.5199C62.9652 54.6394 62.9965 54.7686 63.0019 54.9002C63.0072 55.0318 62.9866 55.1632 62.941 55.2867C62.8955 55.4103 62.826 55.5237 62.7365 55.6203C62.6471 55.717 62.5394 55.795 62.4197 55.8499C62.2845 55.8946 62.1416 55.9117 61.9997 55.8999Z" fill="white"/>
<path d="M47.1398 46.92C46.8746 46.92 46.6202 46.8146 46.4327 46.6271C46.2451 46.4396 46.1398 46.1852 46.1398 45.92C46.0855 43.4288 46.3749 40.9421 46.9998 38.53C47.5955 36.2763 47.8748 33.9507 47.8298 31.62C47.8754 29.286 47.596 26.957 46.9998 24.7C46.3655 22.2892 46.066 19.8025 46.1098 17.31C46.0653 14.8175 46.3648 12.3307 46.9998 9.92C47.6061 7.66441 47.8956 5.3354 47.8598 3C47.8598 2.73478 47.9651 2.48043 48.1527 2.29289C48.3402 2.10536 48.5946 2 48.8598 2C49.125 2 49.3794 2.10536 49.5669 2.29289C49.7544 2.48043 49.8598 2.73478 49.8598 3C49.9141 5.49115 49.6247 7.97789 48.9998 10.39C48.4036 12.647 48.1242 14.976 48.1698 17.31C48.1242 19.644 48.4036 21.973 48.9998 24.23C49.6356 26.6406 49.9351 29.1274 49.8898 31.62C49.9348 34.1093 49.6353 36.5928 48.9998 39C48.4036 41.257 48.1242 43.586 48.1698 45.92C48.1699 46.0539 48.143 46.1864 48.0909 46.3097C48.0388 46.4331 47.9624 46.5447 47.8664 46.6379C47.7703 46.7312 47.6565 46.8042 47.5317 46.8527C47.4069 46.9011 47.2736 46.924 47.1398 46.92Z" fill="white"/>
<path d="M48.7002 29.0001C48.5207 29.0001 48.3445 28.9517 48.1902 28.8601C45.559 27.2419 42.5565 26.326 39.4702 26.2001C22.4702 25.7101 19.5702 10.2001 19.5402 10.0301C19.5093 9.85262 19.527 9.67011 19.5913 9.50184C19.6556 9.33357 19.7642 9.18581 19.9056 9.07415C20.0469 8.96249 20.2158 8.8911 20.3944 8.8675C20.573 8.84391 20.7546 8.86899 20.9202 8.94011C22.1602 9.47011 25.7502 10.8001 27.4402 10.6101C47.2502 9.48011 49.6702 27.7201 49.6902 27.9001C49.7217 28.0915 49.6969 28.2879 49.6188 28.4655C49.5407 28.6431 49.4126 28.7941 49.2502 28.9001C49.0801 28.985 48.8893 29.0197 48.7002 29.0001ZM22.0002 11.4901C23.2402 15.3201 27.3802 23.8501 39.5302 24.2001C42.2387 24.2982 44.8977 24.9553 47.3402 26.1301C46.1002 21.7201 41.8402 11.7901 27.5602 12.6001C25.6534 12.5838 23.767 12.2072 22.0002 11.4901Z" fill="white"/>
<path d="M48.669 28.9999C48.5221 29.0002 48.377 28.9681 48.2439 28.9058C48.1108 28.8436 47.993 28.7528 47.899 28.6399C45.689 25.9999 39.049 18.9999 34.999 18.7699C34.8676 18.7611 34.7392 18.7263 34.6212 18.6677C34.5033 18.609 34.3981 18.5277 34.3116 18.4282C34.2252 18.3288 34.1593 18.2133 34.1177 18.0883C34.076 17.9633 34.0595 17.8313 34.069 17.6999C34.0779 17.5685 34.1127 17.4401 34.1713 17.3222C34.2299 17.2042 34.3113 17.099 34.4107 17.0126C34.5102 16.9262 34.6257 16.8602 34.7507 16.8186C34.8757 16.777 35.0076 16.7604 35.139 16.7699C40.889 17.1599 49.139 26.9399 49.459 27.3599C49.5432 27.461 49.6067 27.5777 49.6457 27.7033C49.6848 27.8289 49.6986 27.9609 49.6866 28.0919C49.6745 28.2229 49.6367 28.3502 49.5753 28.4666C49.514 28.5829 49.4303 28.686 49.329 28.7699C49.1438 28.9235 48.9095 29.0052 48.669 28.9999Z" fill="white"/>
<path d="M48.391 38.0499C48.2003 38.0524 48.013 38.0004 47.851 37.8999C47.6931 37.8023 47.5655 37.6626 47.4825 37.4966C47.3995 37.3306 47.3644 37.1448 47.381 36.9599C47.381 36.7299 50.311 14.3299 74.601 15.6199C76.801 15.8499 81.291 14.1599 82.841 13.4899C83.0065 13.4188 83.1881 13.3937 83.3667 13.4173C83.5453 13.4409 83.7142 13.5123 83.8556 13.624C83.9969 13.7356 84.1055 13.8834 84.1698 14.0516C84.2341 14.2199 84.2518 14.4024 84.221 14.5799C84.221 14.7699 80.741 33.8299 59.851 34.5799C55.9866 34.7323 52.2262 35.8755 48.931 37.8999C48.7689 38.0004 48.5816 38.0524 48.391 38.0499ZM72.561 17.5599C55.661 17.5599 50.961 30.1299 49.751 35.1599C52.8552 33.5713 56.2668 32.674 59.751 32.5299C75.481 32.0099 80.431 20.5899 81.751 16.0499C79.751 16.8099 76.471 17.8199 74.381 17.6099C73.801 17.5799 73.171 17.5599 72.561 17.5599Z" fill="white"/>
<path d="M48.4098 38.0501C48.2196 38.0504 48.0333 37.9964 47.8727 37.8946C47.7121 37.7927 47.5838 37.6472 47.503 37.4751C47.4222 37.3029 47.3921 37.1113 47.4164 36.9226C47.4406 36.734 47.5181 36.5562 47.6398 36.4101C48.0698 35.9001 58.1298 23.8101 65.1598 23.3001C65.425 23.2815 65.6868 23.369 65.8874 23.5435C66.0881 23.7179 66.2113 23.9648 66.2298 24.2301C66.2484 24.4953 66.1608 24.757 65.9864 24.9577C65.812 25.1583 65.565 25.2815 65.2998 25.3001C60.1798 25.6801 51.9298 34.3701 49.1898 37.7001C49.0938 37.8124 48.974 37.9021 48.8391 37.9626C48.7042 38.0231 48.5576 38.053 48.4098 38.0501Z" fill="white"/>
</svg>
