<svg width="96" height="96" viewBox="0 0 96 96" fill="none" xmlns="http://www.w3.org/2000/svg">
<path d="M59.6183 63.43C59.3531 63.43 59.0987 63.3246 58.9112 63.1371C58.7236 62.9496 58.6183 62.6952 58.6183 62.43V4H37.7383V49C37.7383 49.2652 37.6329 49.5196 37.4454 49.7071C37.2578 49.8946 37.0035 50 36.7383 50C36.4731 50 36.2187 49.8946 36.0312 49.7071C35.8436 49.5196 35.7383 49.2652 35.7383 49V3C35.7383 2.73478 35.8436 2.48043 36.0312 2.29289C36.2187 2.10536 36.4731 2 36.7383 2H59.6183C59.8835 2 60.1378 2.10536 60.3254 2.29289C60.5129 2.48043 60.6183 2.73478 60.6183 3V62.43C60.6183 62.6952 60.5129 62.9496 60.3254 63.1371C60.1378 63.3246 59.8835 63.43 59.6183 63.43Z" fill="white"/>
<path d="M17.6016 60.05C17.3363 60.05 17.082 59.9447 16.8945 59.7571C16.7069 59.5696 16.6016 59.3152 16.6016 59.05V27.94C16.6018 27.7727 16.6441 27.6081 16.7245 27.4614C16.8048 27.3146 16.9207 27.1904 17.0616 27.1L36.2016 14.63C36.3525 14.5332 36.5268 14.4787 36.706 14.4723C36.8853 14.4659 37.0629 14.5079 37.2204 14.5938C37.3779 14.6797 37.5093 14.8063 37.601 14.9605C37.6927 15.1147 37.7413 15.2906 37.7416 15.47V53C37.7416 53.2652 37.6362 53.5196 37.4487 53.7071C37.2611 53.8947 37.0068 54 36.7416 54C36.4763 54 36.222 53.8947 36.0345 53.7071C35.8469 53.5196 35.7416 53.2652 35.7416 53V17.32L18.6016 28.48V59.05C18.6016 59.3152 18.4962 59.5696 18.3087 59.7571C18.1211 59.9447 17.8668 60.05 17.6016 60.05Z" fill="white"/>
<path d="M82.4913 74.4999C82.2261 74.4999 81.9718 74.3946 81.7842 74.207C81.5967 74.0195 81.4913 73.7651 81.4913 73.4999V38.1599L71.0613 26.3999L60.6213 38.2899V62.8399C60.6213 63.1051 60.516 63.3595 60.3284 63.547C60.1409 63.7346 59.8866 63.8399 59.6213 63.8399C59.3561 63.8399 59.1018 63.7346 58.9142 63.547C58.7267 63.3595 58.6213 63.1051 58.6213 62.8399V37.9199C58.6158 37.6758 58.7054 37.4391 58.8713 37.2599L70.3013 24.2599C70.3951 24.1533 70.5104 24.0678 70.6397 24.0091C70.769 23.9505 70.9094 23.9201 71.0513 23.9199C71.1933 23.9201 71.3336 23.9505 71.463 24.0091C71.5923 24.0678 71.7076 24.1533 71.8013 24.2599L83.2413 37.1099C83.4044 37.2948 83.4934 37.5334 83.4913 37.7799V73.4999C83.4913 73.7651 83.386 74.0195 83.1984 74.207C83.0109 74.3946 82.7566 74.4999 82.4913 74.4999Z" fill="white"/>
<path d="M53.9297 18.94H42.4297C42.1645 18.94 41.9101 18.8346 41.7226 18.6471C41.535 18.4596 41.4297 18.2052 41.4297 17.94V11.48C41.4297 11.2148 41.535 10.9604 41.7226 10.7729C41.9101 10.5853 42.1645 10.48 42.4297 10.48H53.9297C54.1949 10.48 54.4493 10.5853 54.6368 10.7729C54.8243 10.9604 54.9297 11.2148 54.9297 11.48V17.94C54.9297 18.2052 54.8243 18.4596 54.6368 18.6471C54.4493 18.8346 54.1949 18.94 53.9297 18.94ZM43.4297 16.94H52.9297V12.48H43.4297V16.94Z" fill="white"/>
<path d="M53.9297 31.24H42.4297C42.1645 31.24 41.9101 31.1347 41.7226 30.9471C41.535 30.7596 41.4297 30.5052 41.4297 30.24V23.78C41.4297 23.5148 41.535 23.2605 41.7226 23.0729C41.9101 22.8854 42.1645 22.78 42.4297 22.78H53.9297C54.1949 22.78 54.4493 22.8854 54.6368 23.0729C54.8243 23.2605 54.9297 23.5148 54.9297 23.78V30.24C54.9297 30.5052 54.8243 30.7596 54.6368 30.9471C54.4493 31.1347 54.1949 31.24 53.9297 31.24ZM43.4297 29.24H52.9297V24.78H43.4297V29.24Z" fill="white"/>
<path d="M53.9297 43.5401H42.4297C42.1645 43.5401 41.9101 43.4347 41.7226 43.2472C41.535 43.0597 41.4297 42.8053 41.4297 42.5401V36.0901C41.4297 35.8249 41.535 35.5705 41.7226 35.383C41.9101 35.1954 42.1645 35.0901 42.4297 35.0901H53.9297C54.1949 35.0901 54.4493 35.1954 54.6368 35.383C54.8243 35.5705 54.9297 35.8249 54.9297 36.0901V42.5401C54.9297 42.8053 54.8243 43.0597 54.6368 43.2472C54.4493 43.4347 54.1949 43.5401 53.9297 43.5401ZM43.4297 41.5401H52.9297V37.0901H43.4297V41.5401Z" fill="white"/>
<path d="M23.8594 46.9999C23.5942 46.9999 23.3398 46.8946 23.1523 46.707C22.9647 46.5195 22.8594 46.2651 22.8594 45.9999V32.1599C22.8594 31.8947 22.9647 31.6403 23.1523 31.4528C23.3398 31.2653 23.5942 31.1599 23.8594 31.1599C24.1246 31.1599 24.3789 31.2653 24.5665 31.4528C24.754 31.6403 24.8594 31.8947 24.8594 32.1599V45.9999C24.8594 46.2651 24.754 46.5195 24.5665 46.707C24.3789 46.8946 24.1246 46.9999 23.8594 46.9999Z" fill="white"/>
<path d="M30 42.9999C29.7348 42.9999 29.4804 42.8946 29.2929 42.707C29.1054 42.5195 29 42.2651 29 41.9999V28.1699C29 27.9047 29.1054 27.6504 29.2929 27.4628C29.4804 27.2753 29.7348 27.1699 30 27.1699C30.2652 27.1699 30.5196 27.2753 30.7071 27.4628C30.8946 27.6504 31 27.9047 31 28.1699V41.9999C31 42.2651 30.8946 42.5195 30.7071 42.707C30.5196 42.8946 30.2652 42.9999 30 42.9999Z" fill="white"/>
<path d="M76.0008 43.6001H65.8008C65.5356 43.6001 65.2812 43.4947 65.0937 43.3072C64.9061 43.1197 64.8008 42.8653 64.8008 42.6001C64.8008 42.3349 64.9061 42.0805 65.0937 41.893C65.2812 41.7055 65.5356 41.6001 65.8008 41.6001H76.0008C76.266 41.6001 76.5203 41.7055 76.7079 41.893C76.8954 42.0805 77.0008 42.3349 77.0008 42.6001C77.0008 42.8653 76.8954 43.1197 76.7079 43.3072C76.5203 43.4947 76.266 43.6001 76.0008 43.6001Z" fill="white"/>
<path d="M76.0008 51.29H65.8008C65.5356 51.29 65.2812 51.1847 65.0937 50.9971C64.9061 50.8096 64.8008 50.5553 64.8008 50.29C64.8008 50.0248 64.9061 49.7705 65.0937 49.5829C65.2812 49.3954 65.5356 49.29 65.8008 49.29H76.0008C76.266 49.29 76.5203 49.3954 76.7079 49.5829C76.8954 49.7705 77.0008 50.0248 77.0008 50.29C77.0008 50.5553 76.8954 50.8096 76.7079 50.9971C76.5203 51.1847 76.266 51.29 76.0008 51.29Z" fill="white"/>
<path d="M76.0008 59.2H65.8008C65.5356 59.2 65.2812 59.0946 65.0937 58.9071C64.9061 58.7195 64.8008 58.4652 64.8008 58.2C64.8008 57.9347 64.9061 57.6804 65.0937 57.4928C65.2812 57.3053 65.5356 57.2 65.8008 57.2H76.0008C76.266 57.2 76.5203 57.3053 76.7079 57.4928C76.8954 57.6804 77.0008 57.9347 77.0008 58.2C77.0008 58.4652 76.8954 58.7195 76.7079 58.9071C76.5203 59.0946 76.266 59.2 76.0008 59.2Z" fill="white"/>
<path d="M60.9383 77.0901C28.3883 77.0901 14.1983 63.2901 13.6083 62.7101C13.5146 62.6171 13.4402 62.5065 13.3894 62.3846C13.3386 62.2628 13.3125 62.1321 13.3125 62.0001C13.3125 61.868 13.3386 61.7373 13.3894 61.6155C13.4402 61.4936 13.5146 61.383 13.6083 61.2901C13.7957 61.1038 14.0491 60.9993 14.3133 60.9993C14.5775 60.9993 14.8309 61.1038 15.0183 61.2901C15.1583 61.4301 29.2883 75.0901 60.9383 75.0901C61.2035 75.0901 61.4579 75.1954 61.6454 75.383C61.8329 75.5705 61.9383 75.8248 61.9383 76.0901C61.9383 76.3553 61.8329 76.6096 61.6454 76.7972C61.4579 76.9847 61.2035 77.0901 60.9383 77.0901Z" fill="white"/>
<path d="M45.0018 93.9999C42.4182 94.0166 39.8444 93.6801 37.3518 92.9999C26.1518 89.8799 18.0818 79.5399 13.3518 62.2599C13.3084 62.1011 13.3048 61.934 13.3415 61.7736C13.3781 61.6131 13.4538 61.4641 13.5618 61.3399C13.7518 61.1299 32.1918 40.5399 58.9018 61.2099C66.3118 66.9399 82.1618 75.4199 86.6418 71.6299L86.8518 71.4399C87.0388 71.2567 87.2901 71.154 87.5518 71.154C87.8136 71.154 88.0649 71.2567 88.2518 71.4399C88.4381 71.6273 88.5426 71.8807 88.5426 72.1449C88.5426 72.4091 88.4381 72.6625 88.2518 72.8499L88.0218 73.0599C85.5618 75.3699 64.9218 93.9999 45.0018 93.9999ZM15.4318 62.2699C20.0018 78.4999 27.5418 88.1899 37.8918 91.0699C54.8918 95.7999 75.2118 81.1499 83.2918 74.5199C75.2918 74.4099 62.5518 66.5199 57.6818 62.7899C34.1918 44.6199 18.0718 59.5199 15.4318 62.2699Z" fill="white"/>
<path d="M14.3097 63.0001C14.0748 62.9978 13.8483 62.9128 13.6697 62.7601L7.81973 57.8301C7.61965 57.6594 7.49487 57.4168 7.47241 57.1547C7.44995 56.8927 7.53162 56.6324 7.69973 56.4301C7.78439 56.3296 7.88803 56.2467 8.00473 56.1863C8.12143 56.1258 8.24891 56.089 8.37986 56.0778C8.51081 56.0667 8.64268 56.0815 8.76792 56.1213C8.89316 56.1612 9.00931 56.2253 9.10973 56.3101L14.9997 61.2301C15.1621 61.3641 15.2781 61.5459 15.3312 61.7496C15.3842 61.9533 15.3716 62.1686 15.2951 62.3648C15.2187 62.5609 15.0823 62.7279 14.9053 62.842C14.7284 62.9561 14.52 63.0114 14.3097 63.0001Z" fill="white"/>
<path d="M34.2989 83.94C34.1316 83.9397 33.967 83.8975 33.8203 83.8171C33.6735 83.7368 33.5493 83.6208 33.4589 83.48L24.4589 69.48C24.3194 69.2624 24.2696 68.9992 24.3199 68.7456C24.3703 68.4921 24.5168 68.2679 24.7289 68.12L36.4289 60.03C36.5357 59.941 36.6599 59.8752 36.7935 59.8369C36.9272 59.7985 37.0673 59.7885 37.2051 59.8074C37.3428 59.8263 37.4751 59.8737 37.5935 59.9465C37.7119 60.0194 37.8138 60.1162 37.8927 60.2307C37.9716 60.3452 38.0257 60.4749 38.0517 60.6115C38.0776 60.7481 38.0748 60.8886 38.0434 61.024C38.012 61.1595 37.9527 61.2869 37.8693 61.3981C37.7858 61.5093 37.6801 61.6019 37.5589 61.67L26.6589 69.21L35.1489 82.36C35.2217 82.4702 35.2719 82.5936 35.2967 82.7233C35.3215 82.8529 35.3204 82.9862 35.2934 83.1154C35.2665 83.2446 35.2142 83.3673 35.1396 83.4762C35.065 83.5851 34.9696 83.6782 34.8589 83.75C34.6933 83.8637 34.4995 83.9295 34.2989 83.94Z" fill="white"/>
<path d="M43.8481 83.9399C43.6962 83.9407 43.5461 83.9069 43.4093 83.8411C43.2724 83.7752 43.1523 83.6791 43.0581 83.5599L34.9981 73.4699C34.9122 73.3573 34.8511 73.2277 34.819 73.0897C34.7869 72.9517 34.7845 72.8085 34.8119 72.6695C34.8393 72.5305 34.8959 72.399 34.978 72.2835C35.0601 72.1681 35.1658 72.0714 35.2881 71.9999L46.8481 64.9999C47.0737 64.8979 47.3291 64.8833 47.5649 64.9588C47.8006 65.0342 48 65.1945 48.1245 65.4085C48.2489 65.6225 48.2895 65.8751 48.2385 66.1173C48.1874 66.3596 48.0483 66.5743 47.8481 66.7199L37.2981 73.1199L44.6281 82.3099C44.7106 82.4128 44.772 82.531 44.8086 82.6577C44.8452 82.7844 44.8564 82.9171 44.8415 83.0482C44.8267 83.1792 44.786 83.3061 44.7219 83.4213C44.6578 83.5366 44.5716 83.6381 44.4681 83.7199C44.2922 83.861 44.0737 83.9386 43.8481 83.9399Z" fill="white"/>
<path d="M56.4092 83.9401C56.1566 83.9392 55.9136 83.8428 55.7292 83.6701L47.5292 76.0001C47.4129 75.8917 47.3241 75.7572 47.2702 75.6076C47.2163 75.458 47.1988 75.2978 47.2192 75.1401C47.2402 74.9828 47.2982 74.8327 47.3887 74.7023C47.4791 74.5719 47.5992 74.4649 47.7392 74.3901L58.9992 68.5101C59.2332 68.3941 59.5033 68.3742 59.7517 68.4547C60.0001 68.5352 60.2072 68.7097 60.3287 68.9409C60.4502 69.1721 60.4764 69.4416 60.4017 69.6919C60.3271 69.9421 60.1575 70.1532 59.9292 70.2801L49.9292 75.5201L57.1092 82.2101C57.2955 82.3975 57.4 82.6509 57.4 82.9151C57.4 83.1793 57.2955 83.4327 57.1092 83.6201C57.0195 83.717 56.9114 83.7952 56.7912 83.8501C56.6711 83.9051 56.5412 83.9356 56.4092 83.9401Z" fill="white"/>
</svg>
