<svg width="96" height="96" viewBox="0 0 96 96" fill="none" xmlns="http://www.w3.org/2000/svg">
<path d="M63.3304 84.8C62.7022 84.8012 62.0756 84.7375 61.4604 84.61L7.20043 73.59C6.40668 73.4219 5.67347 73.0414 5.07908 72.4892C4.48468 71.9369 4.05142 71.2336 3.82555 70.4544C3.59967 69.6751 3.58966 68.8491 3.79658 68.0646C4.00351 67.2801 4.41959 66.5665 5.00043 66L36.1004 36C37.6591 34.5052 39.6797 33.5849 41.8304 33.39L90.7204 29C91.5239 28.9276 92.3321 29.0736 93.0595 29.4225C93.7869 29.7714 94.4066 30.3102 94.8531 30.9821C95.2997 31.654 95.5566 32.434 95.5966 33.2398C95.6366 34.0455 95.4582 34.8472 95.0804 35.56L71.7404 79.75C70.9256 81.273 69.7133 82.5467 68.2325 83.4359C66.7517 84.3251 65.0577 84.7965 63.3304 84.8ZM91.1404 31H90.9004L42.0004 35.39C40.3006 35.5434 38.7033 36.2698 37.4704 37.45L6.37043 67.45C6.05469 67.765 5.82977 68.1594 5.71936 68.5916C5.60894 69.0237 5.61712 69.4777 5.74303 69.9056C5.86895 70.3335 6.10793 70.7195 6.43481 71.023C6.76169 71.3264 7.16437 71.5361 7.60043 71.63L61.8604 82.63C63.4477 82.9551 65.0975 82.7589 66.5643 82.0706C68.031 81.3823 69.2362 80.2386 70.0004 78.81L93.3204 34.62C93.5152 34.2436 93.6104 33.8236 93.5967 33.4001C93.5831 32.9765 93.4612 32.5635 93.2425 32.2005C93.0239 31.8374 92.7159 31.5365 92.3479 31.3263C91.9799 31.1162 91.5642 31.0038 91.1404 31Z" fill="white"/>
<path d="M12.0008 74.55C11.8692 74.5508 11.7387 74.5255 11.6169 74.4758C11.495 74.426 11.3842 74.3527 11.2908 74.26C11.1045 74.0726 11 73.8192 11 73.555C11 73.2908 11.1045 73.0374 11.2908 72.85L50.8108 32.85C50.9034 32.7568 51.0134 32.6827 51.1346 32.632C51.2558 32.5813 51.3859 32.5549 51.5173 32.5544C51.6487 32.554 51.7789 32.5794 51.9004 32.6293C52.022 32.6791 52.1326 32.7524 52.2258 32.845C52.319 32.9376 52.3931 33.0476 52.4438 33.1688C52.4945 33.2901 52.5209 33.4201 52.5214 33.5515C52.5218 33.6829 52.4964 33.8131 52.4465 33.9346C52.3967 34.0562 52.3234 34.1668 52.2308 34.26L12.7208 74.26C12.6262 74.3539 12.5137 74.4279 12.3901 74.4777C12.2664 74.5275 12.1341 74.5521 12.0008 74.55Z" fill="white"/>
<path d="M26.7911 77.55C26.5574 77.5504 26.331 77.469 26.1511 77.32C26.0483 77.2374 25.9629 77.1354 25.8998 77.0198C25.8366 76.9042 25.7969 76.7772 25.783 76.6461C25.769 76.5151 25.7811 76.3826 25.8185 76.2563C25.856 76.1299 25.918 76.0122 26.0011 75.91L62.5411 31.83C62.6254 31.7212 62.7312 31.6311 62.8519 31.5651C62.9726 31.4991 63.1057 31.4588 63.2427 31.4466C63.3798 31.4344 63.5178 31.4506 63.6483 31.4942C63.7788 31.5378 63.8989 31.6078 64.0011 31.7C64.1023 31.7839 64.186 31.887 64.2474 32.0034C64.3087 32.1197 64.3465 32.247 64.3586 32.378C64.3707 32.509 64.3568 32.641 64.3178 32.7666C64.2787 32.8922 64.2153 33.0089 64.1311 33.11L27.5611 77.19C27.467 77.3028 27.3493 77.3936 27.2162 77.4558C27.0831 77.5181 26.938 77.5502 26.7911 77.55Z" fill="white"/>
<path d="M45.0489 81.26C44.845 81.2595 44.6461 81.1967 44.4789 81.08C44.2617 80.9285 44.1134 80.6972 44.0666 80.4366C44.0197 80.1761 44.0781 79.9075 44.2289 79.69L78.5989 30.4499C78.6744 30.3423 78.7704 30.2505 78.8814 30.1799C78.9923 30.1093 79.1161 30.0613 79.2457 30.0385C79.3752 30.0158 79.508 30.0188 79.6363 30.0473C79.7647 30.0759 79.8862 30.1294 79.9939 30.2049C80.1016 30.2805 80.1933 30.3764 80.2639 30.4874C80.3345 30.5984 80.3826 30.7222 80.4053 30.8517C80.4281 30.9812 80.4251 31.114 80.3965 31.2424C80.368 31.3708 80.3144 31.4923 80.2389 31.5999L45.8689 80.83C45.777 80.9624 45.6544 81.0707 45.5117 81.1456C45.3689 81.2204 45.2101 81.2597 45.0489 81.26Z" fill="white"/>
<path d="M31.2909 43C31.0257 43.0067 30.7687 42.9077 30.5765 42.7248C30.3843 42.542 30.2726 42.2903 30.2659 42.025C30.2593 41.7598 30.3583 41.5028 30.5412 41.3106C30.724 41.1184 30.9757 41.0067 31.2409 41L92.3809 37.42C92.6446 37.4064 92.903 37.4976 93.0997 37.6736C93.2964 37.8497 93.4155 38.0965 93.4309 38.36C93.4314 38.6152 93.3343 38.8609 93.1596 39.0468C92.9848 39.2327 92.7456 39.3447 92.4909 39.36L31.3509 43H31.2909Z" fill="white"/>
<path d="M86.0795 51.47H22.5195C22.2543 51.47 22 51.3646 21.8124 51.1771C21.6249 50.9895 21.5195 50.7352 21.5195 50.47C21.5195 50.2048 21.6249 49.9504 21.8124 49.7629C22 49.5753 22.2543 49.47 22.5195 49.47H86.0795C86.3447 49.47 86.5991 49.5753 86.7866 49.7629C86.9742 49.9504 87.0795 50.2048 87.0795 50.47C87.0795 50.7352 86.9742 50.9895 86.7866 51.1771C86.5991 51.3646 86.3447 51.47 86.0795 51.47Z" fill="white"/>
<path d="M77.7589 67.21H77.6889L10.9989 62.52C10.8675 62.5108 10.7393 62.4759 10.6215 62.4171C10.5037 62.3584 10.3986 62.277 10.3122 62.1776C10.2259 62.0783 10.1599 61.9629 10.1182 61.838C10.0764 61.7132 10.0597 61.5813 10.0689 61.45C10.078 61.3187 10.113 61.1905 10.1718 61.0727C10.2305 60.9549 10.3119 60.8498 10.4112 60.7634C10.5106 60.6771 10.626 60.6111 10.7508 60.5694C10.8757 60.5276 11.0075 60.5108 11.1389 60.52L77.8589 65.2C77.9902 65.2046 78.1193 65.235 78.2389 65.2895C78.3584 65.344 78.4661 65.4216 78.5557 65.5177C78.6453 65.6138 78.7151 65.7266 78.7611 65.8497C78.8071 65.9728 78.8284 66.1037 78.8239 66.235C78.8193 66.3663 78.7888 66.4955 78.7343 66.615C78.6798 66.7346 78.6023 66.8423 78.5062 66.9319C78.4101 67.0215 78.2973 67.0913 78.1742 67.1373C78.0511 67.1833 77.9202 67.2046 77.7889 67.2L77.7589 67.21Z" fill="white"/>
<path d="M32.9998 41.34C32.7835 41.34 32.5729 41.2698 32.3998 41.14C30.9287 40.034 29.7647 38.5704 29.0181 36.8881C28.2716 35.2058 27.9674 33.3606 28.1344 31.5277C28.3014 29.6947 28.934 27.9349 29.9722 26.4152C31.0105 24.8955 32.4199 23.6663 34.0666 22.8444C35.7134 22.0224 37.5429 21.6349 39.3815 21.7187C41.2201 21.8025 43.0068 22.3548 44.572 23.3231C46.1372 24.2915 47.4289 25.6437 48.3246 27.2516C49.2203 28.8594 49.6903 30.6695 49.6898 32.51C49.6921 32.9819 49.6587 33.4532 49.5898 33.92C49.555 34.1824 49.4175 34.4203 49.2076 34.5815C48.9976 34.7427 48.7323 34.8141 48.4698 34.78C48.339 34.7628 48.2128 34.7198 48.0986 34.6536C47.9844 34.5874 47.8844 34.4992 47.8045 34.3942C47.7245 34.2891 47.6661 34.1693 47.6327 34.0415C47.5993 33.9138 47.5916 33.7808 47.6098 33.65C47.6617 33.2722 47.6884 32.8914 47.6898 32.51C47.7296 31.3301 47.5316 30.1542 47.1075 29.0524C46.6834 27.9506 46.042 26.9454 45.2214 26.0966C44.4008 25.2479 43.4177 24.5729 42.3309 24.1119C41.244 23.651 40.0754 23.4134 38.8948 23.4134C37.7142 23.4134 36.5457 23.651 35.4588 24.1119C34.3719 24.5729 33.3889 25.2479 32.5683 26.0966C31.7477 26.9454 31.1062 27.9506 30.6822 29.0524C30.2581 30.1542 30.0601 31.3301 30.0998 32.51C30.0967 33.869 30.4116 35.2098 31.0194 36.4253C31.6271 37.6407 32.5108 38.6971 33.5998 39.51C33.812 39.6691 33.9523 39.906 33.9898 40.1686C34.0273 40.4311 33.959 40.6978 33.7998 40.91C33.7099 41.0397 33.5905 41.1463 33.4515 41.2211C33.3124 41.2958 33.1577 41.3366 32.9998 41.34Z" fill="white"/>
<path d="M41.9983 20.4299C41.8049 20.4286 41.6159 20.3713 41.4544 20.2648C41.2929 20.1583 41.1657 20.0072 41.0883 19.8299L38.9283 14.9999L36.8283 19.8599C36.7143 20.1026 36.5085 20.29 36.2563 20.381C36.0041 20.4719 35.726 20.459 35.4833 20.3449C35.2407 20.2309 35.0532 20.0251 34.9623 19.7729C34.8713 19.5206 34.8843 19.2426 34.9983 18.9999L37.9983 11.9999C38.0757 11.8226 38.2029 11.6715 38.3644 11.565C38.5259 11.4585 38.7149 11.4012 38.9083 11.3999C39.1035 11.3992 39.2946 11.4557 39.4581 11.5623C39.6216 11.6689 39.7503 11.821 39.8283 11.9999L42.8283 18.9999C42.9322 19.2427 42.9358 19.5167 42.8384 19.7621C42.7409 20.0075 42.5504 20.2044 42.3083 20.3099C42.2132 20.3684 42.1081 20.4091 41.9983 20.4299Z" fill="white"/>
<path d="M27.5499 26.4C27.3496 26.4002 27.1539 26.3402 26.9881 26.2279C26.8222 26.1156 26.694 25.956 26.6199 25.77L23.8199 18.69C23.7437 18.5132 23.7202 18.3182 23.7521 18.1284C23.7841 17.9386 23.8701 17.7621 23.9999 17.62C24.1385 17.4815 24.3148 17.3869 24.5068 17.3478C24.6988 17.3086 24.8981 17.3268 25.0799 17.4L32.1499 20.2C32.3965 20.2981 32.5941 20.4902 32.6991 20.734C32.8041 20.9778 32.808 21.2533 32.7099 21.5C32.6117 21.7466 32.4197 21.9442 32.1759 22.0492C31.9321 22.1542 31.6565 22.1581 31.4099 22.06L26.4899 20.11L28.4799 25C28.5286 25.1221 28.5527 25.2526 28.551 25.3841C28.5492 25.5155 28.5215 25.6454 28.4695 25.7661C28.4174 25.8869 28.3421 25.9962 28.2478 26.0878C28.1535 26.1794 28.0421 26.2515 27.9199 26.3C27.8041 26.3569 27.6785 26.3908 27.5499 26.4Z" fill="white"/>
<path d="M25.8496 36.53C25.7158 36.5275 25.5836 36.5004 25.4596 36.45L18.4596 33.45C18.2793 33.3732 18.1254 33.245 18.0173 33.0814C17.9092 32.9178 17.8516 32.7261 17.8516 32.53C17.8516 32.3339 17.9092 32.1422 18.0173 31.9786C18.1254 31.815 18.2793 31.6869 18.4596 31.61L25.4596 28.61C25.5805 28.5581 25.7103 28.5306 25.8418 28.5289C25.9732 28.5272 26.1038 28.5514 26.2259 28.6002C26.348 28.6489 26.4593 28.7213 26.5535 28.813C26.6476 28.9048 26.7228 29.0142 26.7746 29.135C26.8265 29.2558 26.8541 29.3857 26.8558 29.5172C26.8575 29.6486 26.8332 29.7791 26.7845 29.9013C26.7357 30.0234 26.6634 30.1347 26.5716 30.2288C26.4799 30.323 26.3705 30.3981 26.2496 30.45L21.3896 32.55L26.2496 34.65C26.4624 34.7406 26.6371 34.9021 26.7442 35.107C26.8512 35.312 26.8839 35.5477 26.8368 35.774C26.7896 36.0003 26.6655 36.2034 26.4855 36.3485C26.3055 36.4936 26.0808 36.5719 25.8496 36.57V36.53Z" fill="white"/>
<path d="M24.7495 47.7C24.6172 47.6995 24.4863 47.6727 24.3644 47.6212C24.2426 47.5697 24.1321 47.4945 24.0395 47.4C23.903 47.2622 23.8096 47.0877 23.7705 46.8977C23.7314 46.7078 23.7485 46.5105 23.8195 46.33L26.6195 39.25C26.7176 39.0034 26.9097 38.8058 27.1535 38.7008C27.3973 38.5958 27.6729 38.5919 27.9195 38.69C28.1662 38.7882 28.3637 38.9803 28.4687 39.2241C28.5738 39.4679 28.5776 39.7434 28.4795 39.99L26.4795 44.92L27.2195 44.63C27.4662 44.5266 27.7438 44.5254 27.9913 44.6267C28.2389 44.7279 28.4361 44.9234 28.5395 45.17C28.6429 45.4167 28.6442 45.6943 28.5429 45.9419C28.4416 46.1894 28.2462 46.3866 27.9995 46.49L25.1195 47.63C25.0009 47.6735 24.8758 47.6972 24.7495 47.7Z" fill="white"/>
<path d="M57.9997 33.94C57.8045 33.9406 57.6134 33.8842 57.4499 33.7776C57.2864 33.671 57.1577 33.5188 57.0797 33.34C56.9984 33.1509 56.9774 32.9414 57.0197 32.74L51.6297 30.41C51.4987 30.3658 51.3782 30.2949 51.276 30.2019C51.1738 30.1088 51.092 29.9955 51.0357 29.8692C50.9795 29.743 50.95 29.6064 50.9492 29.4681C50.9484 29.3299 50.9763 29.193 51.0311 29.0661C51.0859 28.9391 51.1664 28.825 51.2676 28.7307C51.3687 28.6365 51.4883 28.5642 51.6188 28.5186C51.7493 28.4729 51.8878 28.4548 52.0257 28.4653C52.1635 28.4759 52.2977 28.5149 52.4196 28.58L59.4196 31.58C59.6 31.6568 59.7539 31.785 59.862 31.9486C59.9701 32.1121 60.0277 32.3039 60.0277 32.5C60.0277 32.696 59.9701 32.8878 59.862 33.0514C59.7539 33.2149 59.6 33.3431 59.4196 33.42L58.4196 33.85C58.2888 33.913 58.1448 33.9439 57.9997 33.94Z" fill="white"/>
<path d="M50.3214 26.4001C50.1946 26.4019 50.0688 26.3781 49.9514 26.3301C49.8292 26.2816 49.7178 26.2095 49.6235 26.1179C49.5292 26.0263 49.4538 25.917 49.4018 25.7962C49.3498 25.6755 49.3221 25.5456 49.3203 25.4142C49.3185 25.2827 49.3427 25.1522 49.3914 25.0301L51.3914 20.1101L46.4614 22.0601C46.2177 22.1438 45.951 22.1301 45.7171 22.022C45.4831 21.9138 45.3 21.7195 45.2058 21.4796C45.1117 21.2397 45.1138 20.9727 45.2117 20.7343C45.3096 20.4959 45.4958 20.3045 45.7314 20.2001L52.8014 17.4001C52.9821 17.3288 53.1796 17.3117 53.3699 17.3508C53.5601 17.39 53.7349 17.4837 53.8727 17.6205C54.0106 17.7573 54.1057 17.9313 54.1463 18.1213C54.1869 18.3112 54.1713 18.5089 54.1014 18.6901L51.3014 25.7701C51.2244 25.9643 51.0884 26.1295 50.9126 26.2425C50.7369 26.3555 50.5301 26.4106 50.3214 26.4001Z" fill="white"/>
</svg>
