<svg width="96" height="96" viewBox="0 0 96 96" fill="none" xmlns="http://www.w3.org/2000/svg">
<path d="M39.42 63.83C35.9 63.83 31.3 63.08 27.88 59.83C23.56 55.72 22.3 48.75 24.13 39.11C24.1726 38.8889 24.2886 38.6886 24.4592 38.5416C24.6298 38.3946 24.845 38.3095 25.07 38.3C25.56 38.3 37.07 37.84 42.98 45.1C46.43 49.31 47.24 55.18 45.39 62.55C45.3463 62.7266 45.2551 62.8879 45.1265 63.0165C44.9979 63.1451 44.8366 63.2362 44.66 63.28C42.9388 63.6551 41.1816 63.8395 39.42 63.83ZM26 40.29C24.52 48.79 25.63 54.87 29.3 58.37C33.94 62.79 41.5 61.84 43.65 61.46C45.14 55.02 44.41 49.94 41.48 46.36C37 40.9 28.55 40.33 26 40.29Z" fill="white"/>
<path d="M60.939 60.39C58.5418 60.3672 56.1543 60.0822 53.819 59.54C53.6599 59.5039 53.512 59.4295 53.3883 59.3232C53.2645 59.2168 53.1686 59.0818 53.109 58.93C52.989 58.62 50.109 51.35 53.789 45.31C56.229 41.25 60.949 38.81 67.789 38.04L69.999 37.57C75.069 36.49 75.4791 36.4 76.909 34.83C77.0341 34.6962 77.1935 34.5994 77.3699 34.55C77.5462 34.5006 77.7327 34.5006 77.909 34.55C78.09 34.6071 78.251 34.7145 78.3732 34.8597C78.4954 35.0049 78.5737 35.1819 78.599 35.37C78.669 35.94 80.249 49.37 72.599 56.37C69.629 59 65.729 60.39 60.939 60.39ZM54.789 57.7C61.999 59.2 67.529 58.24 71.239 54.87C76.519 50.06 76.909 41.5 76.789 37.63C75.589 38.42 74.069 38.75 70.419 39.53L68.189 40H68.089C61.839 40.68 57.609 42.81 55.499 46.31C52.869 50.72 54.269 56.08 54.789 57.7Z" fill="white"/>
<path d="M46.6399 75.1201C46.4825 75.1259 46.3258 75.0945 46.1828 75.0284C46.0398 74.9622 45.9144 74.8632 45.8169 74.7394C45.7194 74.6156 45.6526 74.4705 45.6218 74.3159C45.5911 74.1614 45.5973 74.0017 45.6399 73.85C48.3899 64.29 36.5499 54.79 36.4299 54.69C36.2224 54.5265 36.088 54.2874 36.0561 54.0251C36.0243 53.7628 36.0975 53.4985 36.2599 53.29C36.341 53.1858 36.4419 53.0987 36.5568 53.0337C36.6718 52.9687 36.7984 52.9271 36.9295 52.9113C37.0606 52.8955 37.1935 52.9058 37.3206 52.9416C37.4477 52.9774 37.5664 53.0381 37.6699 53.12C38.0999 53.46 46.2899 60.03 47.8199 68.25C50.8199 61.35 56.8199 50.05 65.3199 46.4C65.4413 46.3392 65.5738 46.3037 65.7093 46.2957C65.8448 46.2877 65.9805 46.3074 66.1082 46.3535C66.2359 46.3997 66.3528 46.4714 66.4519 46.5642C66.551 46.657 66.6301 46.769 66.6845 46.8934C66.7389 47.0178 66.7673 47.1519 66.7682 47.2877C66.769 47.4235 66.7422 47.558 66.6894 47.683C66.6366 47.8081 66.5589 47.9211 66.461 48.0151C66.3631 48.1092 66.247 48.1823 66.1199 48.23C54.6999 53.16 47.6199 74.23 47.5499 74.43C47.4868 74.6242 47.3658 74.7944 47.2031 74.9177C47.0404 75.0411 46.8439 75.1117 46.6399 75.1201Z" fill="white"/>
<path d="M69.1707 84.3501C69.018 84.3497 68.8674 84.3144 68.7304 84.2468C68.5935 84.1792 68.4738 84.0811 68.3807 83.9601C64.2307 78.5901 55.9907 75.1201 47.3807 75.1201C39.6707 75.1201 32.1207 77.8201 27.6707 82.1201C27.4782 82.2827 27.2315 82.3666 26.9799 82.3551C26.7282 82.3437 26.4902 82.2377 26.3133 82.0583C26.1364 81.8789 26.0338 81.6393 26.0259 81.3875C26.018 81.1357 26.1054 80.8902 26.2707 80.7001C31.1007 76.0001 39.1907 73.1201 47.4007 73.1201C56.5907 73.1201 65.4507 76.9001 69.9607 82.7401C70.0745 82.888 70.1447 83.0647 70.1633 83.2503C70.1819 83.436 70.1482 83.6231 70.066 83.7906C69.9839 83.9581 69.8564 84.0993 69.6982 84.1982C69.54 84.297 69.3573 84.3497 69.1707 84.3501Z" fill="white"/>
<path d="M49.6101 89.4101C38.666 89.3969 28.174 85.0435 20.4353 77.3049C12.6967 69.5662 8.34331 59.0742 8.33008 48.1301C8.33008 47.8649 8.43544 47.6105 8.62297 47.423C8.81051 47.2355 9.06486 47.1301 9.33008 47.1301C9.59529 47.1301 9.84965 47.2355 10.0372 47.423C10.2247 47.6105 10.3301 47.8649 10.3301 48.1301C10.3323 57.4312 13.6359 66.4296 19.6524 73.5228C25.6689 80.6159 34.0078 85.3432 43.1839 86.8629C52.36 88.3826 61.7777 86.5959 69.7597 81.8211C77.7417 77.0463 83.7698 69.5933 86.7704 60.7895C89.771 51.9857 89.5494 42.4026 86.145 33.7469C82.7406 25.0912 76.3744 17.9249 68.1802 13.5242C59.986 9.12349 50.4958 7.77411 41.3997 9.71636C32.3037 11.6586 24.1922 16.7664 18.5101 24.1301C18.347 24.3396 18.1073 24.4758 17.8438 24.5086C17.5803 24.5414 17.3146 24.4682 17.1051 24.3051C16.8956 24.142 16.7594 23.9023 16.7266 23.6389C16.6938 23.3754 16.767 23.1096 16.9301 22.9001C21.2155 17.3506 26.8438 12.9841 33.2842 10.2124C39.7247 7.44068 46.765 6.35513 53.7412 7.05811C60.7174 7.76109 67.3996 10.2294 73.1576 14.2303C78.9156 18.2313 83.5596 23.6329 86.6517 29.9258C89.7437 36.2187 91.1819 43.1956 90.8306 50.1983C90.4793 57.201 88.3501 63.9989 84.6438 69.9508C80.9375 75.9027 75.7762 80.8124 69.6468 84.217C63.5173 87.6216 56.6216 89.4088 49.6101 89.4101Z" fill="white"/>
<path d="M27.3705 24.5201H17.7305C17.4653 24.5201 17.2109 24.4148 17.0234 24.2272C16.8358 24.0397 16.7305 23.7853 16.7305 23.5201V13.8701C16.7305 13.6049 16.8358 13.3505 17.0234 13.163C17.2109 12.9755 17.4653 12.8701 17.7305 12.8701C17.9957 12.8701 18.25 12.9755 18.4376 13.163C18.6251 13.3505 18.7305 13.6049 18.7305 13.8701V22.5201H27.3705C27.6357 22.5201 27.89 22.6255 28.0776 22.813C28.2651 23.0005 28.3705 23.2549 28.3705 23.5201C28.3705 23.7853 28.2651 24.0397 28.0776 24.2272C27.89 24.4148 27.6357 24.5201 27.3705 24.5201Z" fill="white"/>
</svg>
