<svg width="96" height="96" viewBox="0 0 96 96" fill="none" xmlns="http://www.w3.org/2000/svg">
<path d="M23.5 66.69C19.5444 66.69 15.6776 65.517 12.3886 63.3193C9.09962 61.1217 6.53617 57.9981 5.02242 54.3436C3.50867 50.6891 3.1126 46.6678 3.8843 42.7881C4.65601 38.9085 6.56082 35.3449 9.35787 32.5478C12.1549 29.7508 15.7186 27.8459 19.5982 27.0742C23.4778 26.3025 27.4992 26.6986 31.1537 28.2124C34.8082 29.7261 37.9318 32.2896 40.1294 35.5785C42.327 38.8675 43.5 42.7343 43.5 46.6899C43.5 49.3164 42.9827 51.9171 41.9776 54.3436C40.9725 56.7701 39.4993 58.9749 37.6421 60.8321C35.785 62.6893 33.5802 64.1624 31.1537 65.1675C28.7272 66.1726 26.1264 66.69 23.5 66.69ZM23.5 28.12C19.834 28.1219 16.2509 29.2107 13.2035 31.2487C10.1561 33.2866 7.78138 36.1823 6.37937 39.5696C4.97736 42.957 4.61105 46.6839 5.32674 50.2794C6.04243 53.8748 7.80799 57.1774 10.4003 59.7697C12.9925 62.362 16.2951 64.1275 19.8906 64.8432C23.4861 65.5589 27.213 65.1926 30.6003 63.7906C33.9877 62.3886 36.8833 60.0138 38.9213 56.9665C40.9592 53.9191 42.048 50.336 42.05 46.6699C42.0474 41.751 40.0921 37.0343 36.6139 33.556C33.1357 30.0778 28.419 28.1226 23.5 28.12Z" fill="white"/>
<path d="M41.4 87.1399H5.63C4.73438 87.1373 3.8762 86.7803 3.24289 86.147C2.60959 85.5137 2.25264 84.6555 2.25 83.7599V78.7599C2.25265 77.8652 2.60992 77.008 3.24351 76.3763C3.87709 75.7446 4.7353 75.3899 5.63 75.3899H41.4C42.2938 75.3899 43.151 75.7449 43.783 76.3769C44.4149 77.0089 44.77 77.8661 44.77 78.7599V83.7599C44.77 84.6546 44.4153 85.5128 43.7836 86.1464C43.1518 86.78 42.2947 87.1372 41.4 87.1399ZM5.63 76.9199C5.13312 76.9199 4.65644 77.1166 4.30416 77.467C3.95188 77.8174 3.75264 78.293 3.75 78.7899V83.7899C3.75 84.2885 3.94807 84.7667 4.30064 85.1193C4.65321 85.4718 5.13139 85.6699 5.63 85.6699H41.4C41.8969 85.6672 42.3725 85.468 42.7229 85.1157C43.0733 84.7634 43.27 84.2868 43.27 83.7899V78.7899C43.27 78.5443 43.2216 78.3012 43.1277 78.0743C43.0337 77.8474 42.8959 77.6413 42.7223 77.4676C42.5486 77.294 42.3425 77.1562 42.1156 77.0622C41.8887 76.9683 41.6456 76.9199 41.4 76.9199H5.63Z" fill="white"/>
<path d="M41.4 76.9199H5.63C4.73438 76.9173 3.8762 76.5603 3.24289 75.927C2.60959 75.2937 2.25264 74.4355 2.25 73.5399V68.5399C2.25264 67.6443 2.60959 66.7861 3.24289 66.1528C3.8762 65.5195 4.73438 65.1626 5.63 65.1599H41.4C42.2947 65.1626 43.1518 65.5198 43.7836 66.1534C44.4153 66.787 44.77 67.6452 44.77 68.5399V73.5399C44.77 74.4346 44.4153 75.2928 43.7836 75.9264C43.1518 76.56 42.2947 76.9173 41.4 76.9199ZM5.63 66.6899C5.13139 66.6899 4.65321 66.888 4.30064 67.2405C3.94807 67.5931 3.75 68.0713 3.75 68.5699V73.5699C3.75 74.0685 3.94807 74.5467 4.30064 74.8993C4.65321 75.2518 5.13139 75.4499 5.63 75.4499H41.4C41.8969 75.4473 42.3725 75.248 42.7229 74.8957C43.0733 74.5435 43.27 74.0668 43.27 73.5699V68.5699C43.27 68.073 43.0733 67.5964 42.7229 67.2441C42.3725 66.8918 41.8969 66.6926 41.4 66.6899H5.63Z" fill="white"/>
<path d="M11.7188 74.1999C11.5206 74.1973 11.3314 74.1175 11.1913 73.9774C11.0512 73.8373 10.9713 73.648 10.9688 73.4499V68.6599C10.9688 68.461 11.0478 68.2702 11.1884 68.1296C11.3291 67.9889 11.5198 67.9099 11.7188 67.9099C11.9177 67.9099 12.1084 67.9889 12.2491 68.1296C12.3897 68.2702 12.4687 68.461 12.4688 68.6599V73.4499C12.4687 73.6488 12.3897 73.8396 12.2491 73.9802C12.1084 74.1209 11.9177 74.1999 11.7188 74.1999Z" fill="white"/>
<path d="M23.5117 74.1999C23.3136 74.1973 23.1243 74.1175 22.9843 73.9774C22.8442 73.8373 22.7643 73.648 22.7617 73.4499V68.6599C22.7617 68.461 22.8407 68.2702 22.9814 68.1296C23.122 67.9889 23.3128 67.9099 23.5117 67.9099C23.7106 67.9099 23.9014 67.9889 24.042 68.1296C24.1827 68.2702 24.2617 68.461 24.2617 68.6599V73.4499C24.2617 73.6488 24.1827 73.8396 24.042 73.9802C23.9014 74.1209 23.7106 74.1999 23.5117 74.1999Z" fill="white"/>
<path d="M35.3008 74.1999C35.1019 74.1999 34.9111 74.1209 34.7705 73.9802C34.6298 73.8396 34.5508 73.6488 34.5508 73.4499V68.6599C34.5508 68.461 34.6298 68.2702 34.7705 68.1296C34.9111 67.9889 35.1019 67.9099 35.3008 67.9099C35.4997 67.9099 35.6905 67.9889 35.8311 68.1296C35.9718 68.2702 36.0508 68.461 36.0508 68.6599V73.4499C36.0482 73.648 35.9683 73.8373 35.8282 73.9774C35.6882 74.1175 35.4989 74.1973 35.3008 74.1999Z" fill="white"/>
<path d="M11.7188 84.27C11.5198 84.27 11.3291 84.191 11.1884 84.0503C11.0478 83.9097 10.9688 83.7189 10.9688 83.52V79C10.9688 78.8011 11.0478 78.6103 11.1884 78.4697C11.3291 78.329 11.5198 78.25 11.7188 78.25C11.9177 78.25 12.1084 78.329 12.2491 78.4697C12.3897 78.6103 12.4687 78.8011 12.4688 79V83.49C12.4742 83.5913 12.4588 83.6927 12.4235 83.7879C12.3881 83.883 12.3336 83.9698 12.2633 84.043C12.1929 84.1161 12.1083 84.174 12.0146 84.2131C11.9209 84.2522 11.8202 84.2715 11.7188 84.27Z" fill="white"/>
<path d="M23.5117 84.27C23.3128 84.27 23.122 84.191 22.9814 84.0503C22.8407 83.9097 22.7617 83.7189 22.7617 83.52V79C22.7617 78.8011 22.8407 78.6103 22.9814 78.4697C23.122 78.329 23.3128 78.25 23.5117 78.25C23.7106 78.25 23.9014 78.329 24.042 78.4697C24.1827 78.6103 24.2617 78.8011 24.2617 79V83.49C24.2672 83.5913 24.2518 83.6927 24.2165 83.7879C24.1811 83.883 24.1266 83.9698 24.0562 84.043C23.9859 84.1161 23.9012 84.174 23.8076 84.2131C23.7139 84.2522 23.6132 84.2715 23.5117 84.27Z" fill="white"/>
<path d="M35.3008 84.27C35.202 84.2713 35.1039 84.2529 35.0123 84.2157C34.9207 84.1784 34.8374 84.1232 34.7675 84.0533C34.6976 83.9834 34.6424 83.9002 34.6052 83.8086C34.568 83.717 34.5495 83.6189 34.5508 83.52V79C34.5508 78.8011 34.6299 78.6103 34.7705 78.4697C34.9112 78.329 35.1019 78.25 35.3008 78.25C35.4998 78.25 35.6905 78.329 35.8312 78.4697C35.9718 78.6103 36.0508 78.8011 36.0508 79V83.49C36.0549 83.591 36.0385 83.6917 36.0026 83.7862C35.9667 83.8807 35.9121 83.967 35.8421 84.0398C35.772 84.1127 35.688 84.1706 35.595 84.2102C35.502 84.2497 35.4019 84.2701 35.3008 84.27Z" fill="white"/>
<path d="M72.4813 76.92C68.8318 76.92 65.2643 75.8377 62.2299 73.8099C59.1956 71.7822 56.8309 68.9001 55.4347 65.5282C54.0386 62.1563 53.6738 58.4462 54.3865 54.8669C55.0992 51.2877 56.8574 48.0003 59.4387 45.4204C62.02 42.8405 65.3084 41.0841 68.888 40.3733C72.4676 39.6626 76.1776 40.0294 79.5487 41.4273C82.9198 42.8253 85.8006 45.1916 87.8267 48.227C89.8528 51.2624 90.9332 54.8305 90.9313 58.48C90.9286 63.3715 88.9836 68.0618 85.5238 71.5197C82.0641 74.9776 77.3728 76.92 72.4813 76.92ZM72.4813 41.53C69.131 41.5399 65.8588 42.5424 63.078 44.4109C60.2972 46.2794 58.1324 48.93 56.8572 52.0281C55.582 55.1262 55.2534 58.5327 55.9131 61.8174C56.5727 65.102 58.191 68.1176 60.5635 70.4831C62.9359 72.8486 65.9562 74.4579 69.2428 75.1079C72.5294 75.7579 75.9349 75.4193 79.0292 74.1349C82.1235 72.8506 84.7678 70.678 86.6281 67.8917C88.4884 65.1054 89.4812 61.8303 89.4813 58.48C89.468 53.98 87.6711 49.6688 84.4844 46.4915C81.2977 43.3142 76.9813 41.53 72.4813 41.53Z" fill="white"/>
<path d="M90.5405 87.1399H54.4305C53.5809 87.1373 52.7669 86.7979 52.1671 86.1962C51.5673 85.5945 51.2305 84.7795 51.2305 83.9299V78.6199C51.2305 77.7712 51.5676 76.9573 52.1677 76.3572C52.7678 75.7571 53.5818 75.4199 54.4305 75.4199H90.5405C91.3901 75.4199 92.205 75.7567 92.8068 76.3566C93.4085 76.9564 93.7478 77.7703 93.7505 78.6199V83.9299C93.7505 84.7813 93.4123 85.5977 92.8103 86.1997C92.2083 86.8017 91.3918 87.1399 90.5405 87.1399ZM54.4305 76.9199C53.9796 76.9199 53.5472 77.099 53.2284 77.4178C52.9096 77.7367 52.7305 78.1691 52.7305 78.6199V83.9299C52.7305 84.3817 52.9092 84.8152 53.2278 85.1356C53.5463 85.456 53.9787 85.6373 54.4305 85.6399H90.5405C90.9932 85.6373 91.4266 85.4563 91.7467 85.1362C92.0668 84.8161 92.2478 84.3826 92.2505 83.9299V78.6199C92.2478 78.1681 92.0665 77.7358 91.7461 77.4172C91.4257 77.0987 90.9923 76.9199 90.5405 76.9199H54.4305Z" fill="white"/>
<path d="M60.6992 84.4901C60.5003 84.4901 60.3095 84.411 60.1689 84.2704C60.0282 84.1297 59.9492 83.939 59.9492 83.7401V78.8101C59.9492 78.6111 60.0282 78.4204 60.1689 78.2797C60.3095 78.1391 60.5003 78.0601 60.6992 78.0601C60.8981 78.0601 61.0889 78.1391 61.2295 78.2797C61.3702 78.4204 61.4492 78.6111 61.4492 78.8101V83.7401C61.4506 83.8389 61.4321 83.9371 61.3949 84.0287C61.3577 84.1203 61.3025 84.2035 61.2325 84.2734C61.1626 84.3433 61.0794 84.3985 60.9878 84.4357C60.8962 84.4729 60.7981 84.4914 60.6992 84.4901Z" fill="white"/>
<path d="M72.4883 84.4901C72.3895 84.4914 72.2914 84.4729 72.1998 84.4357C72.1082 84.3985 72.0249 84.3433 71.955 84.2734C71.8851 84.2035 71.8299 84.1203 71.7927 84.0287C71.7555 83.9371 71.737 83.8389 71.7383 83.7401V78.8101C71.7383 78.6111 71.8174 78.4204 71.958 78.2797C72.0987 78.1391 72.2894 78.0601 72.4883 78.0601C72.6873 78.0601 72.878 78.1391 73.0187 78.2797C73.1593 78.4204 73.2383 78.6111 73.2383 78.8101V83.7401C73.2383 83.939 73.1593 84.1297 73.0187 84.2704C72.878 84.411 72.6873 84.4901 72.4883 84.4901Z" fill="white"/>
<path d="M84.2813 84.4901C84.1825 84.4914 84.0843 84.4729 83.9927 84.4357C83.9011 84.3985 83.8179 84.3433 83.748 84.2734C83.6781 84.2035 83.6229 84.1203 83.5857 84.0287C83.5485 83.9371 83.53 83.8389 83.5313 83.7401V78.8101C83.5313 78.6111 83.6103 78.4204 83.751 78.2797C83.8916 78.1391 84.0824 78.0601 84.2813 78.0601C84.4802 78.0601 84.671 78.1391 84.8117 78.2797C84.9523 78.4204 85.0313 78.6111 85.0313 78.8101V83.7401C85.0313 83.939 84.9523 84.1297 84.8117 84.2704C84.671 84.411 84.4802 84.4901 84.2813 84.4901Z" fill="white"/>
<path d="M66.4582 66.6799C66.2837 66.6785 66.1147 66.6187 65.9783 66.5099C65.8252 66.3847 65.7278 66.2041 65.7072 66.0075C65.6866 65.8109 65.7445 65.6141 65.8683 65.4599L77.9383 50.5499C78.0617 50.4109 78.2323 50.3227 78.4171 50.3024C78.6018 50.282 78.7876 50.331 78.9383 50.4399C79.0163 50.5002 79.0813 50.5758 79.1294 50.662C79.1774 50.7482 79.2075 50.8432 79.2178 50.9414C79.2281 51.0395 79.2183 51.1387 79.1892 51.233C79.1601 51.3273 79.1121 51.4147 79.0483 51.4899L66.9982 66.3999C66.932 66.4808 66.8499 66.5473 66.7571 66.5955C66.6642 66.6436 66.5626 66.6723 66.4582 66.6799Z" fill="white"/>
<path d="M67.3482 55.8999C66.5845 55.8979 65.8384 55.67 65.204 55.2449C64.5695 54.8197 64.0751 54.2164 63.7828 53.5108C63.4906 52.8052 63.4136 52.029 63.5617 51.2797C63.7097 50.5305 64.0761 49.8419 64.6148 49.3005C65.1534 48.759 65.8402 48.3891 66.5886 48.2372C67.3371 48.0853 68.1137 48.1583 68.8208 48.4469C69.5279 48.7355 70.1337 49.2269 70.5621 49.8591C70.9905 50.4914 71.2222 51.2362 71.2282 51.9999C71.2308 52.5111 71.1324 53.0178 70.9386 53.4909C70.7448 53.9639 70.4594 54.394 70.0988 54.7564C69.7383 55.1188 69.3097 55.4064 68.8376 55.6027C68.3656 55.7989 67.8594 55.8999 67.3482 55.8999ZM67.3482 49.6599C66.8786 49.6619 66.4202 49.8034 66.0311 50.0664C65.6421 50.3293 65.3399 50.7019 65.163 51.1369C64.9861 51.5719 64.9424 52.0496 65.0374 52.5095C65.1324 52.9694 65.3619 53.3906 65.6968 53.7199C66.0316 54.0491 66.4567 54.2714 66.9181 54.3586C67.3795 54.4459 67.8565 54.394 68.2884 54.2098C68.7203 54.0255 69.0878 53.7171 69.3441 53.3236C69.6004 52.9302 69.7341 52.4694 69.7282 51.9999C69.7177 51.3756 69.4623 50.7805 69.0171 50.3428C68.5719 49.9051 67.9725 49.6598 67.3482 49.6599Z" fill="white"/>
<path d="M77.6295 68.79C76.8641 68.7881 76.1165 68.5591 75.4812 68.1323C74.8458 67.7054 74.3514 67.0997 74.0603 66.3918C73.7692 65.6839 73.6946 64.9056 73.8459 64.1552C73.9971 63.4049 74.3675 62.7163 74.9101 62.1765C75.4527 61.6367 76.1433 61.2699 76.8943 61.1225C77.6454 60.9751 78.4234 61.0537 79.1297 61.3485C79.8361 61.6432 80.4393 62.1408 80.8629 62.7783C81.2865 63.4158 81.5115 64.1646 81.5095 64.93C81.5082 65.4383 81.4068 65.9412 81.2111 66.4103C81.0154 66.8793 80.7293 67.3052 80.369 67.6636C80.0087 68.0221 79.5813 68.306 79.1113 68.4993C78.6412 68.6926 78.1377 68.7914 77.6295 68.79ZM77.6295 62.55C77.1612 62.55 76.7034 62.6888 76.3139 62.9488C75.9243 63.2088 75.6206 63.5783 75.4409 64.0108C75.2612 64.4433 75.2137 64.9193 75.3044 65.3787C75.395 65.8382 75.6197 66.2605 75.9502 66.5923C76.2806 66.9242 76.702 67.1507 77.1611 67.2433C77.6201 67.3358 78.0963 67.2903 78.5296 67.1125C78.9628 66.9346 79.3336 66.6324 79.5953 66.244C79.8569 65.8556 79.9975 65.3983 79.9995 64.93C79.9969 64.3014 79.7467 63.699 79.3031 63.2535C78.8595 62.808 78.2582 62.5553 77.6295 62.55Z" fill="white"/>
<path d="M60.4492 41.1C60.2511 41.0974 60.0618 41.0176 59.9218 40.8775C59.7817 40.7374 59.7018 40.5481 59.6992 40.35V38C59.6992 37.8011 59.7782 37.6103 59.9189 37.4697C60.0595 37.329 60.2503 37.25 60.4492 37.25C60.6481 37.25 60.8389 37.329 60.9795 37.4697C61.1202 37.6103 61.1992 37.8011 61.1992 38V40.36C61.1941 40.5564 61.1131 40.7431 60.9733 40.8811C60.8334 41.019 60.6456 41.0975 60.4492 41.1Z" fill="white"/>
<path d="M54.7188 41.1C54.5206 41.0974 54.3314 41.0176 54.1913 40.8775C54.0512 40.7374 53.9713 40.5481 53.9688 40.35V28.52C53.9713 28.3219 54.0512 28.1326 54.1913 27.9926C54.3314 27.8525 54.5206 27.7726 54.7188 27.77H60.4487C60.6469 27.7726 60.8361 27.8525 60.9762 27.9926C61.1163 28.1326 61.1962 28.3219 61.1987 28.52V34.19C61.1987 34.3889 61.1197 34.5797 60.9791 34.7203C60.8384 34.861 60.6477 34.94 60.4487 34.94C60.2498 34.94 60.0591 34.861 59.9184 34.7203C59.7778 34.5797 59.6987 34.3889 59.6987 34.19V29.27H55.4688V40.35C55.4688 40.5489 55.3897 40.7397 55.2491 40.8803C55.1084 41.021 54.9177 41.1 54.7188 41.1Z" fill="white"/>
<path d="M62.7793 29.2699H52.3993C52.1064 29.2716 51.8191 29.1896 51.5712 29.0338C51.3232 28.8779 51.1248 28.6545 50.9993 28.3899C50.871 28.1257 50.8226 27.8299 50.8599 27.5386C50.8972 27.2473 51.0186 26.9733 51.2093 26.7499L56.3993 20.4699C56.5493 20.303 56.7328 20.1695 56.9379 20.0781C57.1429 19.9867 57.3648 19.9395 57.5893 19.9395C57.8138 19.9395 58.0357 19.9867 58.2407 20.0781C58.4458 20.1695 58.6292 20.303 58.7793 20.4699L63.9993 26.7499C64.19 26.9733 64.3114 27.2473 64.3487 27.5386C64.386 27.8299 64.3376 28.1257 64.2093 28.3899C64.0817 28.6592 63.8786 28.8857 63.6248 29.042C63.3709 29.1982 63.0772 29.2773 62.7793 29.2699ZM57.6193 21.4299L52.3593 27.6999L62.7793 27.7699L57.6193 21.4299Z" fill="white"/>
<path d="M76.1914 30.0499C75.9933 30.0474 75.804 29.9675 75.6639 29.8274C75.5238 29.6873 75.444 29.498 75.4414 29.2999V26.9399C75.4414 26.741 75.5204 26.5503 75.6611 26.4096C75.8017 26.269 75.9925 26.1899 76.1914 26.1899C76.3903 26.1899 76.5811 26.269 76.7217 26.4096C76.8624 26.5503 76.9414 26.741 76.9414 26.9399V29.2999C76.9414 29.4989 76.8624 29.6896 76.7217 29.8303C76.5811 29.9709 76.3903 30.0499 76.1914 30.0499Z" fill="white"/>
<path d="M70.4688 30.05C70.2698 30.05 70.0791 29.971 69.9384 29.8303C69.7978 29.6896 69.7188 29.4989 69.7188 29.3V17.47C69.7188 17.2711 69.7978 17.0803 69.9384 16.9396C70.0791 16.799 70.2698 16.72 70.4688 16.72H76.1888C76.3877 16.72 76.5784 16.799 76.7191 16.9396C76.8597 17.0803 76.9388 17.2711 76.9388 17.47V23.14C76.9388 23.3389 76.8597 23.5296 76.7191 23.6703C76.5784 23.811 76.3877 23.89 76.1888 23.89C75.9898 23.89 75.7991 23.811 75.6584 23.6703C75.5178 23.5296 75.4388 23.3389 75.4388 23.14V18.22H71.2188V29.3C71.2162 29.4981 71.1363 29.6873 70.9962 29.8274C70.8561 29.9675 70.6669 30.0474 70.4688 30.05Z" fill="white"/>
<path d="M78.5211 18.2199H68.1411C67.8531 18.2111 67.5734 18.1216 67.3337 17.9617C67.0941 17.8018 66.9041 17.5779 66.7853 17.3154C66.6666 17.0529 66.6239 16.7624 66.662 16.4768C66.7001 16.1912 66.8176 15.9221 67.0011 15.7L72.1911 9.41995C72.3358 9.24454 72.5176 9.10335 72.7233 9.00653C72.9291 8.9097 73.1537 8.85965 73.3811 8.85995C73.6088 8.8575 73.8342 8.90661 74.0403 9.00359C74.2463 9.10057 74.4278 9.24291 74.5711 9.41995L79.7611 15.7C79.9518 15.9233 80.0732 16.1974 80.1105 16.4887C80.1478 16.7799 80.0994 17.0758 79.9711 17.34C79.8421 17.6125 79.6359 17.8411 79.3782 17.9976C79.1204 18.154 78.8224 18.2313 78.5211 18.2199ZM73.3711 10.38L68.1111 16.65L78.5211 16.72L73.3711 10.38Z" fill="white"/>
<path d="M23.5084 56.5899C20.5084 56.5899 17.8884 54.5899 17.4584 52.0199C17.4253 51.8236 17.4715 51.6222 17.5868 51.46C17.7021 51.2978 17.8772 51.188 18.0734 51.1549C18.2697 51.1217 18.4711 51.1679 18.6333 51.2832C18.7955 51.3985 18.9053 51.5736 18.9384 51.7699C19.2484 53.6599 21.2184 55.0899 23.5084 55.0899C24.4082 55.1209 25.298 54.8935 26.0725 54.4345C26.847 53.9755 27.4737 53.3041 27.8784 52.4999C28.1849 51.7162 28.2087 50.8503 27.9459 50.051C27.6831 49.2516 27.1501 48.5688 26.4384 48.1199C25.5196 47.6867 24.5234 47.4419 23.5084 47.3999C22.6759 47.3233 21.8524 47.1693 21.0484 46.9399C20.0096 46.6078 19.0999 45.9604 18.4458 45.0877C17.7917 44.215 17.4256 43.1602 17.3984 42.0699C17.3984 39.0699 20.1384 36.7299 23.5084 36.7299C24.837 36.6717 26.1472 37.0567 27.2333 37.8241C28.3193 38.5916 29.1196 39.6981 29.5084 40.9699C29.5549 41.1635 29.5225 41.3676 29.4184 41.5373C29.3143 41.707 29.147 41.8284 28.9534 41.8749C28.7598 41.9213 28.5557 41.8889 28.386 41.7848C28.2163 41.6807 28.0949 41.5135 28.0484 41.3199C27.7393 40.3777 27.1276 39.5639 26.3085 39.0052C25.4893 38.4464 24.5085 38.1738 23.5184 38.2299C20.9984 38.2299 18.8984 39.9999 18.8984 42.0699C18.9237 42.8444 19.1896 43.5918 19.6591 44.2082C20.1286 44.8247 20.7785 45.2797 21.5184 45.5099C22.2268 45.7147 22.9536 45.8487 23.6884 45.9099C24.9027 45.9649 26.0919 46.2749 27.1784 46.8199C28.2081 47.4476 28.982 48.4198 29.3628 49.564C29.7436 50.7082 29.7066 51.9503 29.2584 53.0699C28.7479 54.1535 27.9315 55.0642 26.9098 55.6896C25.8881 56.3151 24.7058 56.628 23.5084 56.5899Z" fill="white"/>
<path d="M23.5117 38.2299C23.3136 38.2273 23.1243 38.1475 22.9843 38.0074C22.8442 37.8673 22.7643 37.678 22.7617 37.4799V34.9299C22.7617 34.731 22.8407 34.5403 22.9814 34.3996C23.122 34.2589 23.3128 34.1799 23.5117 34.1799C23.7106 34.1799 23.9014 34.2589 24.042 34.3996C24.1827 34.5403 24.2617 34.731 24.2617 34.9299V37.4799C24.2617 37.6788 24.1827 37.8696 24.042 38.0103C23.9014 38.1509 23.7106 38.2299 23.5117 38.2299Z" fill="white"/>
<path d="M23.5117 59.1298C23.3128 59.1298 23.122 59.0508 22.9814 58.9102C22.8407 58.7695 22.7617 58.5788 22.7617 58.3798V55.8398C22.7617 55.6409 22.8407 55.4502 22.9814 55.3095C23.122 55.1689 23.3128 55.0898 23.5117 55.0898C23.7106 55.0898 23.9014 55.1689 24.042 55.3095C24.1827 55.4502 24.2617 55.6409 24.2617 55.8398V58.3798C24.2631 58.4787 24.2446 58.5768 24.2074 58.6684C24.1702 58.76 24.115 58.8433 24.045 58.9132C23.9751 58.9831 23.8919 59.0383 23.8003 59.0755C23.7087 59.1127 23.6106 59.1312 23.5117 59.1298Z" fill="white"/>
</svg>
