<svg width="128" height="114" viewBox="0 0 128 114" fill="none" xmlns="http://www.w3.org/2000/svg">
<path d="M38.2875 100.641C38.3954 100.665 38.5063 100.677 38.6175 100.676C38.9299 100.676 39.2331 100.582 39.4787 100.41C39.7243 100.238 39.8982 99.9981 39.9725 99.7278L49.42 65.2873C49.4459 65.1911 49.4593 65.0924 49.46 64.9934V29.551C49.46 29.2215 49.313 28.9055 49.0514 28.6725C48.7898 28.4395 48.435 28.3086 48.065 28.3086C25.3475 28.3086 6.86749 44.7673 6.86749 64.9979C6.83183 73.2955 9.98972 81.3534 15.815 87.8291C21.5126 94.1918 29.4142 98.6965 38.2875 100.641ZM46.6675 30.8157V64.8487L37.5975 97.9132C29.5424 95.8989 22.4499 91.5901 17.4046 85.6459C12.3594 79.7018 9.63913 72.4493 9.65999 64.9979C9.65999 46.5531 26.135 31.4725 46.6675 30.8157Z" fill="white"/>
<path d="M87.8664 63.7554H54.8989C54.5289 63.7554 54.1741 63.8863 53.9125 64.1193C53.6509 64.3523 53.5039 64.6683 53.5039 64.9978C53.5039 65.3273 53.6509 65.6433 53.9125 65.8763C54.1741 66.1093 54.5289 66.2402 54.8989 66.2402H86.4439C86.2 72.6361 83.9292 78.84 79.8939 84.1351L72.9514 80.4234C72.6338 80.2539 72.2536 80.2038 71.8945 80.2839C71.5354 80.3641 71.2267 80.5681 71.0364 80.8509C70.8461 81.1338 70.7898 81.4724 70.8798 81.7922C70.9698 82.1121 71.1988 82.387 71.5164 82.5565L88.4464 91.6052C91.1304 93.0392 94.2015 93.7965 97.3314 93.7962H119.251C119.621 93.7962 119.976 93.6653 120.238 93.4323C120.499 93.1993 120.646 92.8832 120.646 92.5537C120.646 92.2242 120.499 91.9082 120.238 91.6752C119.976 91.4422 119.621 91.3113 119.251 91.3113H97.3314C94.7068 91.3108 92.1317 90.6751 89.8814 89.4722L82.2914 85.4154C86.8466 79.3804 89.2705 72.2697 89.2514 64.9978C89.2514 64.6698 89.1058 64.3552 88.8464 64.1224C88.5869 63.8897 88.2346 63.7577 87.8664 63.7554Z" fill="white"/>
<path d="M48.0644 101.687C58.3327 101.696 68.2326 98.2805 75.8144 92.1129C76.0879 91.8908 76.2511 91.5811 76.2682 91.2519C76.2854 90.9226 76.1549 90.6008 75.9056 90.3572C75.6563 90.1136 75.3086 89.9682 74.9389 89.953C74.5692 89.9377 74.2079 90.0539 73.9344 90.276C66.8672 96.0204 57.6423 99.2014 48.0744 99.1933C47.0919 99.1933 46.1044 99.1599 45.1344 99.0931C44.9517 99.0807 44.768 99.1005 44.5939 99.1513C44.4197 99.202 44.2585 99.2829 44.1195 99.3892C43.9804 99.4954 43.8662 99.6251 43.7834 99.7706C43.7006 99.9162 43.6508 100.075 43.6369 100.238C43.6229 100.4 43.6451 100.564 43.7021 100.719C43.7591 100.874 43.8499 101.018 43.9692 101.141C44.0885 101.265 44.2341 101.367 44.3975 101.441C44.561 101.515 44.7392 101.559 44.9219 101.571C45.9519 101.651 47.0119 101.687 48.0644 101.687Z" fill="white"/>
<path d="M119.737 13.7846H108.237C107.877 13.7981 107.536 13.9351 107.287 14.1668C107.038 14.3985 106.898 14.7071 106.898 15.0281C106.898 15.3491 107.038 15.6577 107.287 15.8894C107.536 16.1211 107.877 16.2581 108.237 16.2716H119.737C119.925 16.2787 120.113 16.2518 120.29 16.1925C120.466 16.1332 120.627 16.0428 120.763 15.9266C120.899 15.8104 121.007 15.6709 121.081 15.5165C121.155 15.3621 121.193 15.196 121.193 15.0281C121.193 14.8602 121.155 14.6941 121.081 14.5397C121.007 14.3852 120.899 14.2458 120.763 14.1296C120.627 14.0134 120.466 13.923 120.29 13.8637C120.113 13.8044 119.925 13.7775 119.737 13.7846Z" fill="white"/>
<path d="M102.749 15.0271C102.749 14.6976 102.602 14.3816 102.34 14.1486C102.078 13.9156 101.724 13.7847 101.354 13.7847H97.9986C97.6385 13.7982 97.2982 13.9352 97.0488 14.1669C96.7994 14.3986 96.6602 14.7072 96.6602 15.0282C96.6602 15.3492 96.7994 15.6578 97.0488 15.8895C97.2982 16.1212 97.6385 16.2582 97.9986 16.2717H101.369C101.736 16.2682 102.088 16.1355 102.346 15.9024C102.605 15.6693 102.749 15.3547 102.749 15.0271Z" fill="white"/>
<path d="M119.733 6.43701H96.0856C94.0673 6.44241 92.0843 6.90941 90.3267 7.79325C88.5691 8.67709 87.0959 9.94816 86.0481 11.4846L71.5481 32.9042C71.4529 33.0438 71.3896 33.1988 71.362 33.3602C71.3343 33.5217 71.3428 33.6865 71.3869 33.845C71.4311 34.0035 71.51 34.1527 71.6192 34.284C71.7284 34.4152 71.8657 34.5259 72.0231 34.6097C72.2392 34.7271 72.4876 34.7887 72.7406 34.7878C72.9815 34.788 73.2183 34.7328 73.4281 34.6274C73.6379 34.5221 73.8136 34.3703 73.9381 34.1867L77.4756 28.9587C82.5844 31.9485 86.8123 35.9873 89.8037 40.7352C92.7951 45.4832 94.4625 50.8016 94.6656 56.243H57.6806V23.3032C61.8913 23.4359 66.0483 24.1882 69.9831 25.5298C70.1543 25.5883 70.3368 25.6161 70.5201 25.6118C70.7034 25.6075 70.884 25.571 71.0515 25.5046C71.219 25.4381 71.3701 25.3429 71.4963 25.2244C71.6225 25.1059 71.7212 24.9664 71.7869 24.8139C71.8525 24.6615 71.8838 24.499 71.879 24.3357C71.8741 24.1724 71.8332 24.0116 71.7586 23.8625C71.6839 23.7133 71.577 23.5787 71.444 23.4663C71.3109 23.3539 71.1543 23.266 70.9831 23.2075C66.291 21.6093 61.3092 20.792 56.2856 20.7961C56.102 20.7961 55.9202 20.8284 55.7506 20.8911C55.5811 20.9538 55.427 21.0457 55.2974 21.1616C55.1678 21.2774 55.0652 21.4149 54.9954 21.5662C54.9256 21.7174 54.89 21.8795 54.8906 22.043V57.4899C54.8906 57.8194 55.0376 58.1354 55.2992 58.3684C55.5608 58.6014 55.9157 58.7323 56.2856 58.7323H96.0856C96.4556 58.7323 96.8104 58.6014 97.072 58.3684C97.3337 58.1354 97.4806 57.8194 97.4806 57.4899C97.5032 51.4065 95.8172 45.4147 92.5761 40.0599C89.3349 34.705 84.6416 30.1571 78.9231 26.8301L88.4406 12.7694C89.238 11.5983 90.3598 10.6295 91.6985 9.95574C93.0373 9.282 94.548 8.92598 96.0856 8.92186H119.733C120.103 8.92186 120.458 8.79096 120.72 8.55796C120.981 8.32496 121.128 8.00894 121.128 7.67943C121.128 7.34992 120.981 7.03391 120.72 6.80091C120.458 6.56791 120.103 6.43701 119.733 6.43701Z" fill="white"/>
<path d="M119.735 21.1345H112.395C112.025 21.1345 111.67 21.2654 111.409 21.4984C111.147 21.7314 111 22.0474 111 22.3769C111 22.7065 111.147 23.0225 111.409 23.2555C111.67 23.4885 112.025 23.6194 112.395 23.6194H119.735C120.105 23.6194 120.46 23.4885 120.721 23.2555C120.983 23.0225 121.13 22.7065 121.13 22.3769C121.13 22.0474 120.983 21.7314 120.721 21.4984C120.46 21.2654 120.105 21.1345 119.735 21.1345Z" fill="white"/>
<path d="M107.521 99.4361C107.521 99.2725 107.485 99.1105 107.415 98.9594C107.345 98.8083 107.242 98.6709 107.112 98.5553C106.983 98.4397 106.828 98.348 106.659 98.2856C106.489 98.2231 106.307 98.1911 106.124 98.1914H98.9986C98.6385 98.205 98.2982 98.3419 98.0488 98.5737C97.7994 98.8054 97.6602 99.114 97.6602 99.4349C97.6602 99.7559 97.7994 100.065 98.0488 100.296C98.2982 100.528 98.6385 100.665 98.9986 100.678H106.124C106.494 100.678 106.849 100.548 107.111 100.315C107.373 100.082 107.52 99.7658 107.521 99.4361Z" fill="white"/>
<path d="M119.737 98.1913H111.827C111.467 98.2049 111.126 98.3418 110.877 98.5735C110.628 98.8053 110.488 99.1138 110.488 99.4348C110.488 99.7558 110.628 100.064 110.877 100.296C111.126 100.528 111.467 100.665 111.827 100.678H119.737C119.925 100.685 120.113 100.659 120.289 100.599C120.466 100.54 120.627 100.45 120.763 100.333C120.899 100.217 121.007 100.078 121.081 99.9233C121.155 99.7689 121.193 99.6027 121.193 99.4348C121.193 99.267 121.155 99.1008 121.081 98.9464C121.007 98.792 120.899 98.6525 120.763 98.5363C120.627 98.4201 120.466 98.3297 120.289 98.2704C120.113 98.2111 119.925 98.1842 119.737 98.1913Z" fill="white"/>
<path d="M119.735 105.078H106.887C106.517 105.078 106.162 105.209 105.901 105.442C105.639 105.675 105.492 105.991 105.492 106.321C105.492 106.65 105.639 106.966 105.901 107.199C106.162 107.432 106.517 107.563 106.887 107.563H119.735C120.105 107.563 120.459 107.432 120.721 107.199C120.983 106.966 121.13 106.65 121.13 106.321C121.13 105.991 120.983 105.675 120.721 105.442C120.459 105.209 120.105 105.078 119.735 105.078Z" fill="white"/>
</svg>
