<svg width="96" height="96" viewBox="0 0 96 96" fill="none" xmlns="http://www.w3.org/2000/svg">
<path d="M7.8005 92.3499C7.61492 92.3546 7.43419 92.2903 7.29327 92.1695C7.15235 92.0486 7.06127 91.8798 7.03763 91.6957C7.01399 91.5115 7.05948 91.3252 7.1653 91.1726C7.27112 91.0201 7.42975 90.9122 7.6105 90.8699L14.7405 88.9999C13.9105 83.8199 11.3705 65.9399 10.8105 61.9999L3.1405 63.3799C3.04328 63.3987 2.94331 63.3981 2.84633 63.3781C2.74936 63.3581 2.65731 63.319 2.5755 63.2632C2.49369 63.2075 2.42373 63.136 2.36967 63.0531C2.3156 62.9701 2.2785 62.8773 2.2605 62.7799C2.22785 62.5842 2.27202 62.3834 2.38381 62.2194C2.4956 62.0555 2.66636 61.941 2.8605 61.8999L11.3005 60.3499C11.3999 60.3313 11.502 60.3331 11.6007 60.355C11.6993 60.3769 11.7926 60.4185 11.8748 60.4773C11.957 60.5362 12.0264 60.611 12.079 60.6974C12.1315 60.7838 12.166 60.8799 12.1805 60.9799C12.1805 61.2199 15.5705 84.9099 16.3305 89.3899C16.362 89.5733 16.3242 89.7619 16.2244 89.919C16.1246 90.0761 15.9699 90.1905 15.7905 90.2399L8.0005 92.3199C7.93567 92.3397 7.86828 92.3498 7.8005 92.3499Z" fill="white"/>
<path d="M15.2691 88.2599C15.0791 88.2648 14.8942 88.1974 14.752 88.0712C14.6097 87.9451 14.5207 87.7696 14.5029 87.5803C14.4852 87.391 14.5399 87.202 14.6562 87.0516C14.7724 86.9011 14.9415 86.8004 15.1291 86.7699L20.7691 85.6499L17.2391 61.9999L11.7391 62.9999C11.6432 63.0187 11.5445 63.0184 11.4488 62.9989C11.353 62.9794 11.2621 62.9411 11.1812 62.8862C11.1003 62.8314 11.0311 62.761 10.9775 62.6793C10.9239 62.5975 10.8871 62.506 10.8691 62.4099C10.8503 62.3127 10.8509 62.2127 10.871 62.1157C10.891 62.0188 10.93 61.9267 10.9858 61.8449C11.0416 61.7631 11.113 61.6931 11.196 61.6391C11.2789 61.585 11.3718 61.5479 11.4691 61.5299L17.7291 60.3599C17.8273 60.3391 17.9286 60.339 18.0268 60.3597C18.125 60.3803 18.2177 60.4213 18.2991 60.4799C18.3818 60.538 18.4519 60.6123 18.5052 60.6982C18.5585 60.7842 18.5938 60.88 18.6091 60.9799L22.3591 86.1499C22.386 86.3413 22.3388 86.5358 22.2274 86.6937C22.1159 86.8516 21.9485 86.9611 21.7591 86.9999L15.4191 88.2499L15.2691 88.2599Z" fill="white"/>
<path d="M46.2801 75.5298C41.7001 75.5298 37.4401 75.0598 34.7101 73.9398C34.6163 73.9026 34.5309 73.8469 34.4591 73.776C34.3873 73.7051 34.3306 73.6204 34.2923 73.527C34.2541 73.4336 34.235 73.3335 34.2363 73.2326C34.2377 73.1317 34.2593 73.0321 34.3001 72.9398C34.3384 72.8469 34.3947 72.7624 34.4658 72.6914C34.537 72.6204 34.6215 72.5642 34.7145 72.526C34.8075 72.4879 34.9071 72.4686 35.0077 72.4693C35.1082 72.4699 35.2076 72.4905 35.3001 72.5298C42.4801 75.5298 61.5501 73.5298 66.3001 70.8398C67.112 70.4242 67.7441 69.7263 68.0775 68.8773C68.4108 68.0283 68.4224 67.0868 68.1101 66.2298C67.7478 65.2469 67.0416 64.4287 66.1222 63.9267C65.2029 63.4248 64.1327 63.2731 63.1101 63.4998C60.0763 64.0871 56.9898 64.3585 53.9001 64.3098C50.833 64.2419 47.7808 63.8633 44.7901 63.1798C43.0856 62.7395 41.4147 62.178 39.7901 61.4998C37.1701 60.4998 34.7101 59.4998 32.0101 59.4998C27.2901 59.4998 22.3901 61.6698 18.4501 63.4098C18.3589 63.4583 18.2586 63.4875 18.1556 63.4955C18.0526 63.5035 17.9491 63.4901 17.8515 63.4562C17.7539 63.4223 17.6644 63.3686 17.5885 63.2985C17.5127 63.2283 17.4521 63.1433 17.4107 63.0486C17.3692 62.954 17.3478 62.8518 17.3477 62.7485C17.3476 62.6452 17.3688 62.543 17.4101 62.4482C17.4513 62.3535 17.5117 62.2684 17.5874 62.1981C17.6631 62.1278 17.7526 62.0739 17.8501 62.0398C21.9101 60.2398 26.9701 58.0398 32.0101 58.0398C35.0101 58.0398 37.6701 59.0398 40.2901 60.0998C41.8542 60.75 43.4613 61.2913 45.1001 61.7198C47.9914 62.3851 50.9437 62.7504 53.9101 62.8098C56.9056 62.8569 59.8981 62.5955 62.8401 62.0298C64.2069 61.7428 65.6315 61.9604 66.8503 62.6425C68.0691 63.3245 68.9997 64.4247 69.4701 65.7398C69.8983 66.9296 69.8844 68.2337 69.431 69.4142C68.9775 70.5946 68.1147 71.5726 67.0001 72.1698C63.7501 73.9998 54.5001 75.5298 46.2801 75.5298Z" fill="white"/>
<path d="M52.3693 87.87C42.7893 87.87 21.5793 81.94 20.6193 81.67C20.5242 81.6446 20.4352 81.6005 20.3574 81.5403C20.2795 81.48 20.2145 81.4049 20.1661 81.3192C20.1177 81.2335 20.0868 81.1391 20.0754 81.0413C20.0639 80.9436 20.072 80.8446 20.0993 80.75C20.1552 80.5587 20.284 80.397 20.4579 80.2997C20.6319 80.2025 20.8371 80.1774 21.0293 80.23C21.2693 80.3 45.6893 87.13 53.8893 86.31C60.4093 85.65 76.0793 74.38 85.4393 67.64C87.6493 66.06 89.5493 64.64 91.0693 63.64C91.6196 63.2445 92.0045 62.6598 92.1502 61.998C92.2959 61.3361 92.192 60.6438 91.8586 60.0539C91.5252 59.4639 90.9857 59.0178 90.3436 58.8011C89.7015 58.5845 89.002 58.6126 88.3793 58.88L69.2793 67.46C69.1893 67.5007 69.0922 67.5233 68.9936 67.5265C68.8949 67.5297 68.7965 67.5134 68.7041 67.4786C68.6117 67.4438 68.5271 67.3911 68.4551 67.3235C68.383 67.256 68.325 67.175 68.2843 67.085C68.2436 66.995 68.221 66.898 68.2178 66.7993C68.2146 66.7006 68.2309 66.6022 68.2657 66.5098C68.3005 66.4174 68.3532 66.3328 68.4208 66.2608C68.4883 66.1887 68.5693 66.1307 68.6593 66.09L87.7593 57.51C88.7266 57.0587 89.8285 56.9888 90.8451 57.3143C91.8617 57.6398 92.7181 58.3367 93.2433 59.266C93.7686 60.1952 93.924 61.2884 93.6785 62.3272C93.4331 63.366 92.8049 64.2741 91.9193 64.87C90.4093 65.87 88.5093 67.28 86.3193 68.87C76.2193 76.13 60.9993 87.11 53.9993 87.8C53.5293 87.85 52.9993 87.87 52.3693 87.87Z" fill="white"/>
<path d="M44.8213 55.4099C42.4513 55.4099 41.0213 54.8399 40.5613 53.6999L37.0013 44.9199C36.9606 44.8275 36.9389 44.7279 36.9376 44.627C36.9362 44.5261 36.9553 44.426 36.9936 44.3326C37.0318 44.2393 37.0886 44.1546 37.1603 44.0837C37.2321 44.0127 37.3175 43.957 37.4113 43.9199C37.5164 43.8655 37.633 43.8371 37.7513 43.8371C37.8696 43.8371 37.9862 43.8655 38.0913 43.9199C38.1914 43.8334 38.3116 43.7734 38.4409 43.7454C38.5702 43.7175 38.7044 43.7225 38.8313 43.7599C41.7513 44.6999 49.6813 42.9599 58.1313 39.5099C69.4913 34.8799 75.8013 29.6299 75.1313 28.0399C75.067 27.8576 75.0755 27.6576 75.155 27.4815C75.2346 27.3054 75.379 27.1668 75.5583 27.0946C75.7375 27.0224 75.9377 27.0222 76.1171 27.0939C76.2965 27.1657 76.4413 27.304 76.5213 27.4799L80.5213 37.3199C81.9413 40.7999 72.6213 46.7099 62.6813 50.7599C58.0794 52.7403 53.2691 54.1962 48.3413 55.0999C47.1777 55.2933 46.0008 55.397 44.8213 55.4099ZM38.8213 45.4099L42.0013 53.1299C42.2013 53.6299 43.7313 54.2999 48.1613 53.6199C52.9667 52.7519 57.6617 51.3568 62.1613 49.4599C73.5213 44.8299 79.8313 39.5599 79.1613 37.9699L76.0013 30.1899C73.7513 33.5599 66.4013 37.8299 58.6813 40.9999C50.0013 44.4999 42.3513 46.1999 38.7913 45.3899L38.8213 45.4099Z" fill="white"/>
<path d="M58.401 40.9998C58.2509 40.9993 58.1044 40.9545 57.9798 40.8708C57.8552 40.7872 57.7582 40.6685 57.701 40.5298C57.6602 40.4375 57.6385 40.3379 57.6372 40.237C57.6359 40.1361 57.6549 40.036 57.6932 39.9426C57.7315 39.8492 57.7882 39.7646 57.86 39.6936C57.9318 39.6227 58.0171 39.567 58.111 39.5298C69.481 34.8998 75.791 29.6398 75.111 28.0598C74.431 26.4798 66.7509 27.0598 55.6009 31.4798C55.508 31.5203 55.4078 31.5415 55.3064 31.5422C55.2051 31.5428 55.1046 31.5229 55.0111 31.4837C54.9177 31.4444 54.8331 31.3866 54.7626 31.3138C54.6921 31.2409 54.6371 31.1545 54.6009 31.0598C54.559 30.9671 54.5366 30.8667 54.5352 30.7649C54.5338 30.6631 54.5535 30.5621 54.5929 30.4683C54.6323 30.3744 54.6907 30.2897 54.7643 30.2194C54.838 30.1491 54.9253 30.0948 55.021 30.0598C64.351 26.3498 75.021 23.9598 76.471 27.4698C77.921 30.9798 68.6209 36.9198 58.681 40.9998C58.5882 41.0141 58.4937 41.0141 58.401 40.9998Z" fill="white"/>
<path d="M36.2008 45.4499C32.0667 45.4499 28.0255 44.2239 24.5883 41.9269C21.1511 39.63 18.4723 36.3652 16.8908 32.5457C15.3092 28.7261 14.8959 24.5233 15.7031 20.4688C16.5104 16.4144 18.5019 12.6904 21.4258 9.76784C24.3497 6.84532 28.0747 4.85558 32.1295 4.05028C36.1844 3.24498 40.387 3.6603 44.2058 5.2437C48.0246 6.82711 51.288 9.50747 53.5834 12.9458C55.8787 16.3841 57.1028 20.4259 57.1008 24.5599C57.0955 30.1004 54.8915 35.4123 50.9729 39.3291C47.0542 43.2458 41.7413 45.4473 36.2008 45.4499ZM36.2008 5.14991C32.3643 5.14991 28.6139 6.28745 25.4238 8.41871C22.2337 10.55 19.7471 13.5792 18.2785 17.1235C16.8099 20.6678 16.4251 24.568 17.1728 28.331C17.9206 32.0939 19.7672 35.5507 22.4794 38.2642C25.1915 40.9778 28.6473 42.8262 32.4099 43.5759C36.1725 44.3256 40.0729 43.9429 43.6179 42.476C47.163 41.0092 50.1935 38.5242 52.3264 35.3352C54.4593 32.1462 55.5988 28.3964 55.6008 24.5599C55.5981 19.4146 53.5537 14.4806 49.9163 10.8414C46.279 7.20221 41.3461 5.15521 36.2008 5.14991Z" fill="white"/>
<path d="M74.1122 44.62C73.963 44.6216 73.8167 44.5788 73.692 44.4968C73.5673 44.4149 73.4699 44.2976 73.4122 44.16L69.5622 34.71C69.4866 34.519 69.4899 34.3059 69.5715 34.1174C69.6531 33.9289 69.8062 33.7806 69.9972 33.705C70.1881 33.6294 70.4013 33.6328 70.5898 33.7143C70.7782 33.7959 70.9266 33.949 71.0022 34.14L74.8522 43.59C74.8929 43.6823 74.9146 43.7819 74.9159 43.8828C74.9172 43.9837 74.8982 44.0838 74.8599 44.1772C74.8216 44.2706 74.7649 44.3553 74.6931 44.4262C74.6213 44.4971 74.536 44.5528 74.4422 44.59C74.3349 44.6199 74.2231 44.63 74.1122 44.62Z" fill="white"/>
<path d="M67.4804 48.64C67.3363 48.642 67.1948 48.6013 67.0738 48.523C66.9528 48.4447 66.8577 48.3323 66.8004 48.2L62.4804 38.47C62.4044 38.2891 62.4023 38.0857 62.4746 37.9033C62.5468 37.7209 62.6876 37.5741 62.8668 37.4943C63.046 37.4145 63.2494 37.4081 63.4332 37.4765C63.6171 37.5448 63.7669 37.6825 63.8504 37.86L68.1704 47.59C68.2517 47.7731 68.2573 47.9809 68.1862 48.1682C68.115 48.3554 67.9728 48.507 67.7904 48.59C67.6911 48.6258 67.586 48.6427 67.4804 48.64Z" fill="white"/>
<path d="M60.2804 51.76C60.1329 51.7597 59.9888 51.7159 59.8661 51.6341C59.7433 51.5523 59.6475 51.4361 59.5904 51.3L55.5904 41.45C55.5467 41.3581 55.5226 41.2581 55.5198 41.1564C55.517 41.0547 55.5355 40.9535 55.5741 40.8593C55.6127 40.7651 55.6706 40.6801 55.744 40.6096C55.8174 40.5391 55.9048 40.4848 56.0004 40.45C56.0928 40.4093 56.1923 40.3876 56.2933 40.3863C56.3942 40.385 56.4943 40.404 56.5877 40.4423C56.681 40.4806 56.7657 40.5373 56.8366 40.6091C56.9076 40.6809 56.9633 40.7662 57.0004 40.86L61.0004 50.7C61.0397 50.7925 61.0603 50.8919 61.061 50.9925C61.0616 51.093 61.0423 51.1926 61.0042 51.2856C60.966 51.3786 60.9098 51.4631 60.8388 51.5343C60.7678 51.6054 60.6834 51.6618 60.5904 51.7C60.4926 51.7421 60.3869 51.7626 60.2804 51.76Z" fill="white"/>
<path d="M52.3207 54.22C52.1723 54.2175 52.028 54.1717 51.9054 54.0882C51.7828 54.0047 51.6873 53.8871 51.6307 53.75L47.6307 43.91C47.5737 43.8173 47.5375 43.7133 47.5247 43.6053C47.5119 43.4972 47.5228 43.3877 47.5566 43.2842C47.5904 43.1808 47.6463 43.086 47.7204 43.0063C47.7945 42.9266 47.885 42.864 47.9858 42.8229C48.0865 42.7817 48.1949 42.7629 48.3036 42.7679C48.4123 42.7728 48.5187 42.8014 48.6152 42.8515C48.7118 42.9017 48.7963 42.9722 48.8628 43.0583C48.9294 43.1444 48.9764 43.2439 49.0007 43.35L53.0007 53.19C53.0382 53.3025 53.0488 53.4223 53.0317 53.5397C53.0147 53.6571 52.9703 53.7689 52.9023 53.8661C52.8342 53.9633 52.7444 54.0432 52.6399 54.0995C52.5355 54.1557 52.4193 54.1867 52.3007 54.19L52.3207 54.22Z" fill="white"/>
<path d="M36.2116 34.8999C33.0716 34.8999 30.3616 32.8999 29.9216 30.1499C29.9044 30.0533 29.9066 29.9542 29.928 29.8585C29.9495 29.7627 29.9898 29.6722 30.0466 29.5922C30.1033 29.5122 30.1754 29.4442 30.2587 29.3923C30.342 29.3404 30.4347 29.3056 30.5316 29.2899C30.729 29.258 30.931 29.3052 31.0939 29.4212C31.2567 29.5373 31.3673 29.7128 31.4016 29.9099C31.7316 31.9099 33.8016 33.3999 36.2116 33.3999C37.1581 33.4271 38.093 33.185 38.9073 32.7017C39.7217 32.2184 40.382 31.5138 40.8116 30.6699C41.1324 29.8429 41.1562 28.9302 40.879 28.0876C40.6018 27.2451 40.0407 26.5248 39.2916 26.0499C38.329 25.5948 37.2853 25.3364 36.2216 25.2899C35.3509 25.2172 34.4898 25.0564 33.6516 24.8099C32.5696 24.4681 31.6215 23.7966 30.9401 22.8892C30.2587 21.9819 29.8781 20.8842 29.8516 19.7499C29.8516 16.6899 32.7016 14.1999 36.2116 14.1999C37.5917 14.1417 38.952 14.5431 40.0795 15.3412C41.2069 16.1393 42.0377 17.2889 42.4416 18.6099C42.4712 18.7929 42.4319 18.9804 42.3314 19.1362C42.2309 19.292 42.0762 19.4051 41.8972 19.4536C41.7183 19.502 41.5277 19.4825 41.3623 19.3987C41.1969 19.3149 41.0684 19.1728 41.0016 18.9999C40.677 18.0067 40.0333 17.1487 39.1707 16.5591C38.308 15.9696 37.2748 15.6816 36.2316 15.7399C33.5516 15.7399 31.3716 17.5599 31.3716 19.7899C31.397 20.6068 31.6765 21.3955 32.1712 22.0461C32.6659 22.6967 33.3512 23.1769 34.1316 23.4199C34.8766 23.6314 35.64 23.772 36.4116 23.8399C37.676 23.9035 38.9144 24.2233 40.0516 24.7799C41.1217 25.4358 41.9255 26.449 42.3208 27.6403C42.716 28.8316 42.6773 30.1243 42.2116 31.2899C41.6713 32.4103 40.8159 33.3486 39.7501 33.9899C38.6843 34.6311 37.4545 34.9474 36.2116 34.8999Z" fill="white"/>
<path d="M36.2109 15.7C36.0128 15.6974 35.8236 15.6176 35.6835 15.4775C35.5434 15.3374 35.4635 15.1481 35.4609 14.95V12.28C35.4609 12.0811 35.54 11.8904 35.6806 11.7497C35.8213 11.609 36.012 11.53 36.2109 11.53C36.4098 11.53 36.6006 11.609 36.7413 11.7497C36.8819 11.8904 36.9609 12.0811 36.9609 12.28V15C36.9482 15.1902 36.8636 15.3683 36.7243 15.4983C36.585 15.6283 36.4015 15.7005 36.2109 15.7Z" fill="white"/>
<path d="M36.2109 37.5599C36.012 37.5599 35.8213 37.4809 35.6806 37.3402C35.54 37.1996 35.4609 37.0088 35.4609 36.8099V34.1499C35.4609 33.951 35.54 33.7602 35.6806 33.6196C35.8213 33.4789 36.012 33.3999 36.2109 33.3999C36.4098 33.3999 36.6006 33.4789 36.7413 33.6196C36.8819 33.7602 36.9609 33.951 36.9609 34.1499V36.8099C36.9623 36.9088 36.9438 37.0069 36.9066 37.0985C36.8694 37.1901 36.8142 37.2733 36.7443 37.3432C36.6744 37.4131 36.5911 37.4683 36.4995 37.5056C36.4079 37.5428 36.3098 37.5612 36.2109 37.5599Z" fill="white"/>
</svg>
