<svg width="3941" height="1726" viewBox="0 0 3941 1726" fill="none" xmlns="http://www.w3.org/2000/svg">
<path d="M2208.91 385.155L2233.03 377.388L2265.8 351.802L2293.56 305.655L2315.86 304.741L2342.26 313.422L2364.56 329.871L2379.58 330.784L2399.6 302L2418.26 305.198L2419.17 321.647L2442.38 341.75L2459.22 338.552L2486.07 345.405L2477.88 376.017L2483.8 400.69L2481.52 439.983L2502 460.543L2472.42 473.793L2471.96 492.069L2451.48 495.267L2433.28 514L2410.52 503.948L2398.24 482.931L2386.86 454.147H2360.01L2312.67 423.991L2271.72 425.362L2208 399.776L2208.91 385.155Z" fill="#FAFAFA" stroke="#ADADAD" stroke-width="0.5" stroke-miterlimit="12"/>
<path d="M2293 305.476L2265.23 351.563L2232.46 377.117L2208.33 384.874L2197.41 374.379L2155.99 384.874L2134.14 370.272L2115.02 350.194L2107.28 355.67L2098.63 378.942L2074.51 394L2059.03 387.155L2009.87 388.068L1996.67 374.379L1960.71 349.282L1948.42 352.019L1886.97 336.049L1864.66 336.505L1856.47 306.388L1846 288.592L1855.1 275.359L1887.88 257.107L1895.62 268.058L1926.57 289.505L1967.54 281.748L1959.8 246.155L1956.61 205.087L1963.9 186.835L1987.57 188.204L2040.37 166.757L2052.2 159L2069.96 167.214L2084.98 186.379L2089.53 230.184L2110.92 256.651L2130.95 266.233L2132.77 273.99L2154.17 286.311L2177.38 270.34L2186.03 249.35L2228.82 253.913L2258.86 267.602L2268.87 280.835L2271.15 297.262L2293 305.476Z" fill="#FAFAFA" stroke="#ADADAD" stroke-width="0.5" stroke-miterlimit="12"/>
<path d="M1640 1639L1638 1642L1639 1640.2L1640 1639Z" fill="#FAFAFA" stroke="#ADADAD" stroke-width="0.5" stroke-miterlimit="12"/>
<path d="M853.682 313.259L907.752 317.8L935.015 301L965.912 312.351L957.734 332.33L960.46 345.951L975 348.676L969.547 374.557L940.922 369.562L943.648 380.005L930.471 393.627L920.929 432.676L912.75 449.022L874.583 464.459L860.952 465.368L834.143 454.47L783.253 469L760.534 465.368L762.806 455.832L763.715 432.222L778.709 422.687L790.069 432.676L828.691 425.411L862.315 429.043L863.678 418.146H830.963L811.879 409.519H764.624L750.084 412.697L731 381.822L771.439 348.222L781.436 349.584L796.43 371.378L809.153 376.373L814.605 363.659L850.501 345.951L856.408 332.784L853.682 313.259Z" fill="#FAFAFA" stroke="#ADADAD" stroke-width="0.5" stroke-miterlimit="12"/>
<path d="M405.108 420L423.791 426.838L420.601 434.133L398.274 443.251L385.059 435.501L383.692 425.471L405.108 420ZM207.808 804.778L197.327 779.248L175 774.233L219.199 744.143L216.921 735.026L242.893 722.716L246.994 699.466L238.337 696.274L191.859 702.201L192.771 680.318L200.973 660.258L227.401 662.538L267.955 642.478L289.371 641.566L318.989 650.684L353.163 633.816L364.099 603.271L357.72 594.153L370.023 561.784L354.986 546.74L385.515 525.312L387.793 511.18L431.537 512.091L451.586 495.679L432.904 492.944L413.31 462.854L428.803 454.648L470.268 466.046L482.571 474.252L455.231 492.488L462.977 501.606L497.152 495.223L516.29 495.679L493.051 521.209L502.164 541.269L493.962 559.505L504.442 587.77L518.112 602.815L524.036 630.625L575.07 672.568L591.018 675.303L601.042 668.464L607.422 696.274L620.636 709.039L647.52 709.495L658 718.157L644.786 749.158L641.141 767.85L622.914 796.116L592.841 808.425L590.107 830.308L572.336 826.661L553.198 835.323L520.846 837.603L507.176 848.544L480.292 849L470.724 824.837L450.675 799.763L427.436 800.219L437.005 780.159L432.448 771.497L388.705 766.938L357.264 749.158L341.316 756.453L328.102 735.481L316.71 732.746L266.132 759.188L253.374 774.689L207.808 804.778Z" fill="#FAFAFA" stroke="#ADADAD" stroke-width="0.5" stroke-miterlimit="12"/>
<path d="M71.1979 614.735L79.4028 617.922L76.6678 631.126L58.8905 620.198L71.1979 614.735ZM237.576 393.911V393L266.293 398.008L264.926 419.408L269.94 438.986L212.049 463.117L197.007 487.704L160.085 516.388L139.572 525.95L145.042 538.698L114.046 560.098L99.0035 561.464L122.707 525.95L125.442 509.559L115.413 491.346L138.661 482.24L162.364 464.028L196.551 447.637L211.594 448.548L224.813 435.344L244.869 426.693L236.208 410.757L237.576 393.911ZM21.9682 514.112L53.4205 507.737L64.8163 513.656L62.0813 530.503L71.6537 534.145L21.0565 543.251L1 533.69L21.9682 514.112ZM191.993 702.154L148.689 706.707L128.633 715.813L115.413 713.081L85.7844 719L70.2862 713.536L80.3145 681.665L88.5194 674.835L93.0777 653.891L89.4311 643.874L95.8127 590.603L106.297 573.757L129.544 572.846L147.777 550.536L152.336 528.226L171.025 524.584L221.622 477.687L277.233 484.517L294.555 469.492L336.491 471.313L341.505 494.534L363.841 509.103L388 512.291L385.721 526.405L355.18 547.804L370.223 562.83L357.915 595.156L364.297 604.263L353.357 634.768L319.17 651.615L289.541 642.508L268.117 643.419L227.548 663.453L201.11 661.176L192.449 680.299L191.993 702.154Z" fill="#FAFAFA" stroke="#ADADAD" stroke-width="0.5" stroke-miterlimit="12"/>
<path d="M2156.32 384.505L2197.74 374L2208.66 384.505L2207.75 399.578L2271.47 425.156L2312.43 423.786L2359.77 453.931H2386.62L2398 482.706L2377.97 521.986L2343.84 538.886L2291.95 545.737L2259.18 557.156L2235.97 555.329L2221.41 563.093L2210.03 604.657L2174.53 623.841L2141.76 627.038L2095.34 638L2084.87 621.557L2085.78 595.979L2077.13 588.215L2042.08 598.263L2007.49 597.35L1977 571.772L1990.2 547.564L2011.59 538.429L2041.17 485.446L2073.94 487.273L2099.89 500.062L2134.02 477.225L2134.93 463.979L2150.86 458.955L2168.61 416.934L2153.59 399.578L2156.32 384.505Z" fill="#FAFAFA" stroke="#ADADAD" stroke-width="0.5" stroke-miterlimit="12"/>
<path d="M2664.38 570.081L2656.63 573.724L2630.2 576L2588.28 561.886L2567.77 568.26L2530.41 547.316L2502.15 459.444L2481.65 438.955L2483.92 399.8L2478 375.214L2486.2 344.709L2520.84 346.075L2529.95 352.904L2571.42 347.896L2591.92 333.781L2606.05 338.334L2618.35 324.675L2646.15 311.927L2668.48 310.106L2688.99 301L2685.8 333.781L2689.44 371.116L2694 381.132L2670.3 385.685L2648.43 406.629L2649.34 421.654L2638.41 438.955L2638.86 462.631L2644.78 468.55L2668.94 473.558L2685.34 483.575L2684.89 493.136L2655.27 517.267L2657.09 544.129L2664.38 570.081Z" fill="#FAFAFA" stroke="#ADADAD" stroke-width="0.5" stroke-miterlimit="12"/>
<path d="M2629.98 576.62L2656.44 574.34L2664.19 570.693L2688.37 577.532L2726.68 595.313L2733.98 603.064L2758.61 611.271L2806.05 607.623L2838.89 593.945L2853.95 571.605L2885.88 564.766L2902.75 552L2936.05 556.559L2930.58 586.195L2941.98 591.21L2976.65 588.93L2991.7 605.799L3000.82 629.963L3025 645.009L3015.42 670.541L3016.33 687.41L3003.11 684.219L2939.7 685.131L2927.84 681.483L2889.07 698.353L2861.25 689.69L2831.6 711.119L2785.07 719.325L2753.6 717.046L2726.68 723.429L2696.58 735.739L2688.37 748.505L2658.72 766.742L2661.91 788.17L2646.86 796.833L2638.19 815.982L2645.04 847.441L2638.65 849.264L2633.63 852L2619.49 836.954L2600.79 829.204L2581.63 829.66L2564.75 822.365L2570.23 805.951L2562.02 758.991L2577.07 738.93L2557.46 722.517L2559.74 675.556L2572.96 652.304L2588.02 646.377L2585.28 634.067L2557 639.994L2561.11 609.447L2569.77 603.064L2589.39 610.815L2609 600.784L2627.7 601.24L2629.98 576.62Z" fill="#FAFAFA" stroke="#ADADAD" stroke-width="0.5" stroke-miterlimit="12"/>
<path d="M3001.68 683.146L3014.9 686.34L3033.14 687.253L3061.87 669L3089.68 689.535L3117.95 695.923L3138.01 720.108L3132.99 736.992L3141.2 763.003L3157.16 784.907L3158.07 807.267L3145.31 825.976L3140.75 847.879L3164 885.298L3093.78 929.105L3040.89 928.649L3009.89 940.057L3009.43 955.116L2997.12 969.262L2972.95 972L2967.94 947.815L2956.08 932.3L2963.38 903.095L2976.6 905.833L2982.07 877.997L2964.29 854.724L2957.91 834.646L2960.64 815.937L2977.06 783.081L2969.76 770.304L2946.96 782.625L2901.82 811.83L2905.93 794.033L2900 774.867L2902.74 747.944L2914.59 738.361L2931.92 736.536L2934.65 726.953L2953.35 721.934L2970.22 698.661L2985.26 699.118L3001.68 683.146Z" fill="#FAFAFA" stroke="#ADADAD" stroke-width="0.5" stroke-miterlimit="12"/>
<path d="M2196.94 1420.23L2227.94 1440.76L2241.16 1454.45L2230.22 1476.35L2224.29 1510.11V1533.38L2218.37 1543.42L2230.68 1588.13L2241.16 1589.95L2248 1612.76L2212.9 1614.59L2202.87 1622.35L2186 1615.05L2183.26 1631.47L2184.63 1677.55H2167.76L2166.4 1687.13L2151.35 1689.41L2139.96 1725L2108.5 1710.86L2105.31 1697.17L2090.72 1699.91L2103.94 1672.99L2097.56 1655.2L2064.74 1605.01L2062 1594.97L2077.04 1580.37L2088.44 1559.84L2112.6 1537.94L2144.06 1516.5L2149.07 1502.35L2142.24 1464.03L2113.97 1433.92L2098.47 1435.29L2087.99 1446.69L2084.34 1430.27L2104.85 1407L2113.97 1409.74L2160.01 1409.28L2175.06 1421.6L2196.94 1420.23Z" fill="#FAFAFA" stroke="#ADADAD" stroke-width="0.5" stroke-miterlimit="12"/>
<path d="M2114.25 1410.8L2105.13 1408.07L2084.6 1431.32L2088.25 1447.73L2062.24 1474.17L2036.7 1477.82L2013.88 1494.69L2033.05 1491.5L2026.66 1519.76L2008.41 1525.23L2001.57 1518.85L1967.35 1538L1902.11 1499.25L1878.85 1491.5L1906.68 1472.81L1902.57 1428.58L1908.5 1411.71L1900.29 1403.51L1877.48 1397.12L1871.09 1355.18L1861.05 1347.43L1846 1317.34L1846.46 1299.1L1860.6 1273.57L1852.39 1240.29L1858.77 1230.26L1879.76 1233.91L1900.29 1230.26L1926.75 1202L1962.79 1203.82L2007.5 1217.95L2018.45 1212.03L2012.52 1163.7L2087.79 1108.08L2111.97 1066.13L2120.18 1043.34L2144.36 1026.47L2161.24 1021L2172.19 1025.56L2195 1060.21L2178.12 1088.02L2162.15 1170.08L2170.82 1217.5L2154.85 1234.82L2119.73 1237.1L2110.6 1253.51L2086.42 1315.97L2087.33 1336.49L2094.18 1355.64L2111.97 1357L2123.38 1380.26L2114.25 1410.8Z" fill="#FAFAFA" stroke="#ADADAD" stroke-width="0.5" stroke-miterlimit="12"/>
<path d="M1685.22 653L1684.76 639.3L1693.87 621.491L1691.14 599.115L1677.47 589.525L1667 558.473L1690.22 546.143L1703.43 515.547L1691.14 487.234L1681.12 437.459L1687.49 416.453L1677.47 400.013L1723.01 383.574L1727.57 370.331L1712.99 352.065L1728.02 320.556L1741.68 306.399L1753.52 281.74L1763.54 279L1769.01 285.85L1802.7 290.873L1813.63 300.463L1835.95 306.856L1845.51 289.046L1855.98 306.856L1864.18 336.995L1886.5 336.538L1879.21 364.394L1876.48 408.69L1892.42 442.026L1932.03 451.159L1957.54 462.118L1963 473.535L1959.36 502.761L1942.51 529.703L1939.32 561.212L1912 566.236L1910.18 596.832L1889.68 614.184L1863.27 610.988L1833.67 626.514L1797.24 632.451L1766.27 627.427L1728.02 642.954L1696.6 647.52L1685.22 653Z" fill="#FAFAFA" stroke="#ADADAD" stroke-width="0.5" stroke-miterlimit="12"/>
<path d="M1666.18 558.481L1676.64 589.429L1690.27 598.987L1693 621.288L1683.91 639.038L1684.36 652.692L1687.09 663.16L1688.91 674.083L1656.64 705.487L1648 732.34L1634.36 755.096L1601.64 781.949L1579.36 822L1563 790.141L1554.82 752.82L1533 722.782L1528 700.481L1538.91 655.423L1547.55 632.667L1585.73 623.564L1586.64 574.865L1591.64 538L1646.64 555.295L1666.18 558.481Z" fill="#FAFAFA" stroke="#ADADAD" stroke-width="0.5" stroke-miterlimit="12"/>
<path d="M1780 1053.18L1712.89 1156.37L1697.83 1154.54L1649.89 1169.15L1601.5 1170.98L1567.72 1176L1545.35 1150.89L1540.78 1129.88L1528 1104.32L1529.37 1082.86L1549 1018.02L1569.09 987.884L1621.59 967.794L1640.3 968.251L1664.96 947.248L1665.41 931.724L1657.2 909.807L1663.59 892L1687.78 900.675L1698.74 918.482L1726.59 910.72L1724.3 921.222L1731.15 944.965L1721.11 970.534L1724.3 983.775L1743.93 992.45H1757.17L1753.52 1030.8L1780 1053.18Z" fill="#FAFAFA" stroke="#ADADAD" stroke-width="0.5" stroke-miterlimit="12"/>
<path d="M1725.18 911.879L1697.4 919.653L1686.47 901.818L1662.34 893.13L1663.7 884.441L1623.17 865.235L1583.55 838.712L1579 823.621L1601.31 783.379L1634.1 756.399L1647.76 733.534L1656.42 706.553L1688.75 675L1707.42 682.774L1728.37 704.267L1753.87 707.011L1762.07 723.931L1790.3 758.228L1809.43 765.545L1824 785.666L1795.31 787.495L1803.51 824.536L1801.23 841.455L1812.16 862.948L1803.96 873.466L1756.15 897.703L1751.59 911.879L1755.24 929.714L1747.04 932L1725.18 911.879Z" fill="#FAFAFA" stroke="#ADADAD" stroke-width="0.5" stroke-miterlimit="12"/>
<path d="M1689.56 674.437L1687.74 663.504L1685 653.025L1696.4 647.103L1727.88 642.547L1766.2 627.058L1797.22 632.069L1833.71 626.147L1863.36 610.657L1889.82 613.846L1910.34 596.535L1912.17 566.011L1939.54 561L1946.84 569.656L1976.49 571.934L2007.05 597.446L2041.72 598.357L2076.84 588.334L2085.51 596.079L2084.59 621.591L2095.09 637.992L2101.47 657.125L2122 689.471L2116.53 711.338L2085.51 741.406L2062.24 779.219L2045.82 795.619L2029.4 820.22L1964.63 865.322L1933.15 884L1886.62 877.622L1874.76 838.898L1858.34 828.876L1851.04 810.653L1825.5 784.23L1810.9 764.185L1791.74 756.896L1763.46 722.728L1755.25 705.872L1729.7 703.138L1708.72 681.726L1689.56 674.437Z" fill="#FAFAFA" stroke="#ADADAD" stroke-width="0.5" stroke-miterlimit="12"/>
<path d="M1975.89 572L1946.24 569.723L1938.94 561.07L1942.14 529.645L1959.01 502.775L1962.66 473.628L1957.19 462.242L1931.65 451.312L1891.96 442.204L1876 408.957L1878.74 364.781L1886.03 337L1947.61 352.94L1959.92 350.207L1995.96 375.256L2009.18 388.919L2058.45 388.008L2073.95 394.839L2098.13 379.81L2106.79 356.583L2114.55 351.118L2133.7 371.157L2155.6 385.731L2151.95 401.215L2167 418.521L2149.21 460.421L2133.25 465.43L2132.34 478.638L2098.13 501.409L2072.13 488.657L2039.29 486.835L2009.64 539.665L1988.2 548.773L1975.89 572Z" fill="#FAFAFA" stroke="#ADADAD" stroke-width="0.5" stroke-miterlimit="12"/>
<path d="M3224.61 929.247L3213.22 932.439L3201.82 937L3192.25 928.791L3190.43 907.357L3163.99 885.466L3140.75 848.07L3145.31 826.179L3158.07 807.481L3157.16 785.134L3141.2 763.244L3133 737.249L3138.01 720.375L3169.92 711.71L3186.78 713.99L3216.41 735.881L3235.09 755.947L3270.64 760.964L3285.68 747.738L3310.3 740.897L3332.63 719.463L3338.1 683.891L3364.08 667.017L3383.22 662L3400.54 691.643L3432.9 724.935L3437 787.415L3407.37 809.305H3373.65L3340.38 827.547L3335.36 844.421L3317.13 845.789L3314.4 855.366L3324.42 876.801L3305.74 899.604L3292.06 909.181L3256.97 910.093L3224.61 929.247Z" fill="#FAFAFA" stroke="#ADADAD" stroke-width="0.5" stroke-miterlimit="12"/>
<path d="M3201.85 936.748L3213.25 932.19L3224.65 929L3242.89 934.469L3259.31 983.689L3262.96 1015.13L3242.43 1054.33L3219.18 1062.99L3213.25 1076.2L3216.44 1093.07L3240.61 1111.75L3279.37 1124.06L3304 1146.84L3246.08 1197.43L3215.07 1207L3191.36 1194.7L3174.03 1165.07L3157.61 1147.75L3148.03 1146.84L3138 1121.78L3156.24 1097.17L3169.47 1051.59L3164.45 1007.84L3169.01 967.738L3173.12 960.902L3204.13 944.951L3201.85 936.748Z" fill="#FAFAFA" stroke="#ADADAD" stroke-width="0.5" stroke-miterlimit="12"/>
<path d="M3614.8 468.895L3555.16 494.876L3549.69 514.931L3538.31 511.74L3497.78 515.387L3438.14 540L3398.07 536.809L3379.4 510.373L3356.18 495.331L3325.67 488.95L3307 468.895L3311.55 453.854L3339.78 441.091L3379.4 410.097L3371.2 384.116L3373.93 365.428L3419.92 353.122L3423.11 280.649L3445.42 265.152L3537.4 210L3544.23 231.878L3574.73 244.185L3601.6 290.221L3608.43 317.113L3597.96 358.135L3582.48 376.823L3596.14 387.307L3592.04 407.818L3610.71 426.961L3623 451.575L3610.25 461.146L3614.8 468.895Z" fill="#FAFAFA" stroke="#ADADAD" stroke-width="0.5" stroke-miterlimit="12"/>
<path d="M3550 514.945L3555.46 494.929L3615.11 469L3667.48 485.831L3692.07 486.741L3735.78 471.729L3750.35 472.184L3780.4 484.922L3804.54 508.576L3830.49 525.863L3848.71 543.149L3861 564.074L3808.18 537.235L3789.06 558.161L3790.88 573.173L3779.04 569.988L3743.98 583.18L3712.56 580.451L3673.85 585L3670.21 577.722L3637.88 569.988L3625.59 553.612L3597.36 545.423L3572.77 563.165L3561.84 558.616L3550 514.945Z" fill="#FAFAFA" stroke="#ADADAD" stroke-width="0.5" stroke-miterlimit="12"/>
<path d="M1069.19 338.375L1123.58 337.011L1146.43 322L1154.2 329.278L1187.56 347.018L1236 352.022L1231.89 375.22L1221.83 386.592L1177.96 394.325L1167.91 402.058L1159.22 434.354L1143.69 446.635L1124.49 448L1102.1 437.993L1069.65 438.448L1053.2 432.079L1054.57 395.235L1050 380.224L1068.74 354.296L1069.19 338.375Z" fill="#FAFAFA" stroke="#ADADAD" stroke-width="0.5" stroke-miterlimit="12"/>
<path d="M1332.89 275.785L1315.07 299.56L1305.01 335.224L1304.56 359L1262.06 357.171L1235.56 351.684L1187.12 346.655L1153.77 328.823L1146 321.507L1157.42 307.791L1158.34 277.614L1209.06 256.581L1251.1 228.69L1284.45 210.401L1303.19 204L1326.03 220.917L1337 252.923L1332.89 275.785Z" fill="#FAFAFA" stroke="#ADADAD" stroke-width="0.5" stroke-miterlimit="12"/>
<path d="M1305 358.395L1305.46 334.666L1315.51 299.072L1333.34 275.343L1354.83 277.168L1375.4 271.236L1399.63 251.157L1408.77 231.991L1419.74 229.253L1438.49 211L1444.89 218.758L1471.4 211.913L1485.57 222.408L1497 258.915L1477.34 263.478L1458.14 286.295L1460.43 323.714L1481.91 330.103L1488.31 339.686L1479.63 361.59L1460.89 372.085L1441.69 369.803L1424.77 391.707L1401 410.417L1380.43 420L1374.03 398.552L1331.51 376.648L1332.89 362.502L1305 358.395Z" fill="#FAFAFA" stroke="#ADADAD" stroke-width="0.5" stroke-miterlimit="12"/>
<path d="M761.545 455.727L759.269 465.273L746.979 462.545L733.779 475.727L721.034 477.545L691.448 462.545L671.421 459.364L670.51 488L657.766 486.182L630 471.182L634.097 463L673.697 440.727L732.869 438L755.172 428L762 433L761.545 455.727Z" fill="#FAFAFA" stroke="#ADADAD" stroke-width="0.5" stroke-miterlimit="12"/>
<path d="M1069.09 337.941L1070 353.869L1051.33 379.81L1055.88 394.829L1054.52 431.692L1041.77 441.249L1040.86 465.825L1013.99 470.831L993.959 503.598L1003.07 525.443L998.967 535L973.468 531.814L959.808 516.796L935.675 514.976L907.9 521.802L890.597 515.431L875.571 499.957L863.732 477.202L861.911 471.286L861 465.369L874.66 464.459L912.908 448.986L921.105 432.602L930.667 393.463L943.871 379.81L941.139 369.343L969.826 374.349L975.29 348.408L960.719 345.678L957.987 332.025L966.183 312L1019 326.563L1028.56 334.755L1069.09 337.941Z" fill="#FAFAFA" stroke="#ADADAD" stroke-width="0.5" stroke-miterlimit="12"/>
<path d="M1375 442.153L1378.19 428.004L1379.11 420.245L1399.63 410.66L1423.36 391.946L1440.24 370.037L1459.4 372.319L1478.1 361.822L1486.77 339.913L1494.07 348.129L1519.61 351.324L1554.28 374.602L1582.57 359.083L1597.62 356.344L1629.55 339L1641.41 348.129L1628.19 370.95L1635.94 383.73L1660.57 398.792L1677 400.618L1687.03 417.05L1680.65 438.046L1690.68 487.797L1703 516.095L1689.77 546.676L1666.5 559L1647.8 557.174L1592.6 539.83L1552.91 525.224L1542.42 540.743L1527.82 542.112L1514.59 532.071L1508.21 516.095L1482.2 497.838L1465.33 473.191L1407.39 445.349L1375 442.153Z" fill="#FAFAFA" stroke="#ADADAD" stroke-width="0.5" stroke-miterlimit="12"/>
<path d="M1379 420.288L1378.09 428.027L1374.9 442.14L1362.14 450.79L1361.23 464.903L1368.97 486.3L1352.57 510.428L1336.16 518.623L1308.36 514.07L1291.5 522.72L1237.27 538.198H1204.46L1186.23 545.027L1163.44 538.198L1157.06 530.914L1123.34 533.646L1087.34 515.891L1074.12 560.506L1057.26 569.611L1044.5 586L1031.28 583.724L1019.43 578.716L1000.75 546.848L998.013 535.467L1002.11 525.907L993 504.054L1013.05 471.276L1039.94 466.268L1040.85 441.685L1053.61 432.125L1070.02 438.498L1102.37 438.043L1124.7 448.058L1143.85 446.693L1159.34 434.401L1168 402.078L1178.02 394.339L1221.77 386.599L1231.8 375.218L1235.9 352L1262.33 357.463L1304.72 359.284L1331.6 363.837L1330.24 377.949L1372.62 399.802L1379 420.288Z" fill="#FAFAFA" stroke="#ADADAD" stroke-width="0.5" stroke-miterlimit="12"/>
<path d="M861.259 465.83L862.172 471.745L864 477.66L844.81 490.854L834.302 519.519L840.241 541.358L816.026 568.203L809.629 607.332L824.707 627.807L827.448 641.457L805.974 641.912L780.845 644.642L760.285 635.542L749.776 642.367L731.957 688.776L721.905 695.601L715.052 725.175L703.629 732L666.164 726.085L658.397 719.715L647.888 711.07L620.931 710.615L607.681 697.876L601.284 670.121L591.233 676.946L575.241 674.216L524.069 632.357L518.129 604.602L504.422 589.588L493.914 561.378L502.138 543.178L493 523.159L516.302 497.679L572.043 500.409L601.741 510.874L629.155 502.229L665.707 514.514L687.638 512.694L693.121 499.044L705.457 497.679L689.009 484.484L671.647 487.669L672.56 459.005L692.664 462.19L722.362 477.205L735.155 475.385L748.405 462.19L760.741 464.92L783.586 468.56L834.759 454L861.259 465.83Z" fill="#FAFAFA" stroke="#ADADAD" stroke-width="0.5" stroke-miterlimit="12"/>
<path d="M521.101 207.273L531.125 195L565.754 220.909L607.673 242.273L666.907 274.091L706.093 284.091L700.169 301.364L709.738 290.909L730.242 283.636L805.879 302.727L853.722 311.818L856 330.909L850.077 344.091L814.081 361.818L808.613 374.545L795.855 369.545L780.819 347.727L770.794 346.364L730.242 380L709.282 368.636L686.956 350.455L683.766 336.818L695.157 325.909L696.524 312.727L678.298 344.091L670.097 342.727L645.948 353.182L630.911 347.727L601.294 346.818L598.105 323.182L590.814 343.182L575.778 330.909L532.036 315H520.19L517 279.545L527.48 242.727L521.101 207.273Z" fill="#FAFAFA" stroke="#ADADAD" stroke-width="0.5" stroke-miterlimit="12"/>
<path d="M1400.01 1571.63L1374.49 1546.55L1359 1509.15L1382.7 1491.36L1419.15 1451.68L1416.42 1436.63L1391.36 1429.33L1395.46 1402.88L1440.57 1341.76L1476.12 1301.63L1495.71 1293.87L1559.06 1287.49L1580.48 1279.73L1606 1251L1635.16 1255.56L1641.09 1289.31L1694.4 1346.32L1714 1380.53L1675.72 1391.02L1655.67 1406.53L1627.87 1414.28L1603.26 1413.82L1586.86 1420.67L1551.77 1425.68L1515.77 1452.59L1508.93 1471.75L1496.17 1463.54L1469.28 1474.03L1482.5 1508.69L1507.11 1522.83L1522.15 1538.34L1516.68 1545.63L1494.8 1540.16L1484.32 1563.42L1464.73 1564.79L1440.12 1573L1400.01 1571.63Z" fill="#FAFAFA" stroke="#ADADAD" stroke-width="0.5" stroke-miterlimit="12"/>
<path d="M1358.96 1509.35L1374.46 1546.74L1400 1571.81L1399.09 1616.49L1382.67 1663L1370.36 1660.72L1339.35 1640.66L1322.02 1620.6L1321.1 1611.48L1303.32 1592.79L1284.62 1558.59L1268.66 1543.54L1224.88 1530.32L1208 1516.19L1139.14 1483.36L1125.46 1470.59L1041.54 1456.46L1006.88 1457.37L988.186 1445.97L969.944 1459.65L963.103 1474.7L959.455 1517.56L961.279 1541.72L950.79 1551.3L940.757 1574.55L949.878 1590.51L923.427 1626.07L923.883 1615.13L893.783 1598.26L873.261 1600.08L870.069 1611.48L836.777 1620.14H820.359L782.963 1643.39L791.172 1634.28H776.578L768.825 1642.94L754.688 1620.6L732.341 1618.77L715.467 1602.82L703.61 1611.02L684 1594.61L694.033 1586.86L707.259 1550.38L731.885 1546.74L732.797 1532.15L753.32 1516.19L755.144 1485.64L779.771 1433.21L791.628 1430.02L811.694 1402.2L815.799 1382.14L827.656 1366.64L865.964 1348.4L910.201 1333.81L922.515 1336.09L939.845 1354.33L1011.9 1354.79L1028.77 1330.16L1043.82 1317.4L1062.07 1325.15L1094.9 1316.49L1115.42 1306L1126.83 1307.82L1143.7 1325.61L1173.34 1330.16L1226.7 1342.48L1271.85 1377.13L1291.46 1401.75L1317.45 1425.46L1332.5 1433.21L1328.4 1460.11L1353.48 1466.49L1361.24 1490.66L1358.96 1509.35Z" fill="#FAFAFA" stroke="#ADADAD" stroke-width="0.5" stroke-miterlimit="12"/>
<path d="M854.123 1208.35L835.408 1206.53L818.518 1212L809.845 1195.12L782 1186L782.913 1159.08L856.862 1105.7L860.057 1081.52L834.038 1035.9L805.737 1028.14L818.062 994.382L830.843 982.065L835.408 961.078L879.229 936.899L894.293 915.912L913.921 864.359L938.115 854.323L953.178 832.424L965.96 840.18L973.263 854.323L988.783 864.816L1019.37 851.129L1039.91 832.88L1058.62 848.392L1119.79 816L1133.49 831.968L1143.53 855.235L1158.59 867.553L1185.07 865.272L1208.8 868.009L1203.78 892.189L1212 911.35L1189.63 949.673L1186.44 980.24L1152.2 1019.93L1115.68 1043.65L1084.64 1018.56L1044.02 1054.15L1018 1080.15L993.348 1087L965.503 1101.59L944.049 1122.58L897.488 1160.9L894.293 1188.73L886.989 1201.51L854.123 1208.35Z" fill="#FAFAFA" stroke="#ADADAD" stroke-width="0.5" stroke-miterlimit="12"/>
<path d="M819.05 1211.1L835.892 1205.62L854.555 1207.44L860.927 1224.34L876.403 1223.89L921.922 1191L957.426 1228.45L985.192 1231.65L997.027 1239.87L1008.86 1273.67L1026.16 1302.91L1035.72 1303.82L1043 1317.98L1027.98 1330.77L1011.14 1355.44L939.218 1354.98L921.922 1336.71L909.632 1334.42L865.479 1349.04L827.244 1367.31L815.409 1382.84L811.312 1402.94L791.284 1430.8L779.45 1434L762.608 1408.88L737.118 1411.16L726.649 1423.49L718.455 1420.75L718 1391.52L724.373 1363.2L762.153 1301.99L754.87 1282.81L753.959 1257.69L780.815 1244.44L786.277 1233.02L819.05 1211.1Z" fill="#FAFAFA" stroke="#ADADAD" stroke-width="0.5" stroke-miterlimit="12"/>
<path d="M1125.5 1308.66L1114.11 1306.83L1093.61 1317.33L1060.82 1326L1042.59 1318.24L1035.3 1304.09L1025.74 1303.18L1008.43 1273.97L996.584 1240.19L984.74 1231.98L956.952 1228.78L921.42 1191.35L875.866 1224.22L860.378 1224.67L854 1207.79L884.977 1200.03L892.265 1187.25L895.454 1159.4L941.919 1121.07L963.33 1100.07L991.118 1085.46L1015.72 1078.62L1041.68 1052.6L1082.23 1017L1113.2 1042.1L1118.67 1061.27L1146.91 1091.85L1187 1127.91L1185.63 1136.58L1151.01 1153.93L1146.46 1171.27L1151.01 1212.81L1140.99 1238.82L1125.05 1249.32L1132.79 1276.25L1125.5 1308.66Z" fill="#FAFAFA" stroke="#ADADAD" stroke-width="0.5" stroke-miterlimit="12"/>
<path d="M556.879 1109L584.658 1110.36L600.141 1131.24L604.24 1163.92L596.498 1179.35L607.883 1200.23L621.089 1203.41L622 1216.57L607.428 1221.11L585.569 1244.71L554.603 1245.17L550.049 1254.7L558.701 1275.58L531.833 1270.13L504.054 1249.25L489.027 1244.71L461.248 1272.85L421.174 1272.4L412.977 1266.95L384.287 1266.04L370.17 1255.6L338.749 1242.9L325.087 1246.07L306.871 1278.3L290.933 1293.28L273.173 1296L266.342 1290.1L269.985 1259.24L260.422 1261.5L269.074 1227.46L229 1206.58L253.136 1201.59L279.548 1188.88L284.102 1150.76L315.068 1145.76L341.025 1130.33L351.955 1129.42L402.503 1136.23L451.229 1126.25L491.304 1127.61L556.879 1109Z" fill="#FAFAFA" stroke="#ADADAD" stroke-width="0.5" stroke-miterlimit="12"/>
<path d="M585.423 1110L557.587 1108.63L536.139 1058.97L511.497 1047.58L477.728 1050.77L464.951 1027.54L433.007 1022.07L423.881 1038.93L413.385 1040.75L400.151 1015.24L370.946 996.104L362.275 974.692L320.749 971.047L309.341 959.657L304.777 941.434L292 926.855L310.71 897.698L315.729 877.652L340.371 866.263L360.45 849.862L363.188 836.194L353.149 811.593L341.74 758.289L357.712 751L389.199 768.768L433.007 773.324L437.571 781.98L427.988 802.025L451.261 801.57L471.339 826.627L480.922 850.773L507.846 850.317L521.536 839.383L553.936 837.105L573.102 828.449L590.899 832.094L604.589 847.128L640.64 860.34L655.699 890.409L652.961 906.81L663 931.867L661.175 948.268L622.386 981.07L632.426 998.837L633.795 1023.44L628.775 1044.4L616.91 1058.97L635.62 1072.64L616.454 1076.29L604.133 1107.27L585.423 1110Z" fill="#FAFAFA" stroke="#ADADAD" stroke-width="0.5" stroke-miterlimit="12"/>
<path d="M2752.44 1103.74L2764.3 1073.67L2756.09 1060.46L2733.74 1065.47L2739.21 1040.88L2731 1025.84L2758.82 1018.56L2793.94 1021.74L2823.59 1010.36L2855.07 1007.62L2867.84 999.879L2879.24 973.915L2903.87 979.836L2972.75 972.548L2996.92 969.815L3009.24 955.694L3009.69 940.662L3040.71 929.274L3093.62 929.73L3163.86 886L3190.32 907.865L3192.14 929.274L3201.72 937.473L3204 946.128L3172.98 962.071L3168.88 968.904L3164.32 1008.99L3169.33 1052.72L3156.11 1098.27L3137.86 1122.87L3147.9 1147.92L3135.58 1155.21L3062.6 1159.77L3040.25 1166.6L3029.3 1187.55L3012.43 1189.83L2950.85 1241.76L2932.15 1270L2921.66 1259.98L2904.78 1226.27L2896.57 1194.84L2895.66 1165.69L2872.85 1150.2L2869.21 1157.49L2836.82 1142L2809 1119.22L2767.95 1113.3L2752.44 1103.74Z" fill="#FAFAFA" stroke="#ADADAD" stroke-width="0.5" stroke-miterlimit="12"/>
<path d="M2734.41 1066.01L2756.78 1061L2765 1074.2L2753.13 1104.23L2727.11 1121.07L2726.19 1133.82L2711.58 1143.83L2711.13 1182.51L2696.06 1188.88L2703.37 1195.71L2678.26 1201.63L2693.32 1212.55L2647.67 1222.56L2622.1 1254.42L2571.88 1266.71L2554.99 1284L2535.36 1274.44L2523.94 1277.17L2506.59 1263.52L2481.94 1255.33L2436.29 1262.16L2400.22 1245.32L2392 1217.56L2419.85 1182.97L2486.05 1163.85L2503.85 1167.04L2535.36 1154.75L2547.23 1142.01L2551.79 1117.43L2567.31 1107.88L2593.34 1069.19L2619.82 1063.28L2633.06 1073.29L2623.01 1090.13L2642.65 1096.5H2671.86L2697.89 1090.58L2725.74 1076.93L2734.41 1066.01Z" fill="#FAFAFA" stroke="#ADADAD" stroke-width="0.5" stroke-miterlimit="12"/>
<path d="M2419.12 1182.07L2391.28 1216.72L2399.49 1244.53L2435.55 1261.39L2435.09 1289.2L2426.42 1295.59L2400.41 1298.32L2335.6 1321.57L2317.34 1343L2300.91 1337.99L2294.07 1314.73L2284.03 1308.81L2274.44 1322.48L2249.8 1335.71L2239.76 1322.48L2212.37 1305.62L2161.71 1318.38L2153.04 1308.35L2143 1277.35L2154.41 1254.56L2153.5 1234.04L2169.47 1216.72L2160.8 1169.3L2176.77 1087.24L2193.66 1059.43L2221.96 1021.59L2233.82 988.765L2240.21 983.75L2267.14 976L2304.56 983.75L2350.2 977.824L2339.25 998.795L2341.99 1014.3L2357.05 1011.56L2388.08 1017.03L2415.01 1031.62L2446.05 1041.65L2457 1058.97L2445.59 1108.67L2434.64 1126.45L2425.97 1166.11L2419.12 1182.07Z" fill="#FAFAFA" stroke="#ADADAD" stroke-width="0.5" stroke-miterlimit="12"/>
<path d="M2241.39 984.165L2235.02 989.188L2223.18 1022.07L2194.95 1059.98L2172.18 1025.27L2161.25 1020.7L2144.4 1026.18L2120.27 1043.08L2112.07 1065.92L2087.94 1107.93L2012.8 1163.65L2018.72 1212.06L2007.79 1218L1963.17 1203.84L1927.2 1202.02L1931.29 1171.87L1940.86 1165.48L1934.03 1147.21L1934.48 1124.37L1928.56 1107.02L1895.32 1107.48L1883.03 1094.23L1868 1054.5L1898.96 1004.26L1898.05 967.266L1873.46 929.816L1887.58 878.208L1934.03 884.602L1965.45 865.877L2030.11 820.662L2046.5 796L2066.99 801.481L2106.61 827.97L2127.1 830.253L2142.13 823.859L2175.82 827.056L2196.31 838.017L2214.53 830.71L2250.96 832.08L2267.8 840.301L2276 863.593L2260.97 909.264L2241.39 984.165Z" fill="#FAFAFA" stroke="#ADADAD" stroke-width="0.5" stroke-miterlimit="12"/>
<path d="M1879.82 1491.35L1845.18 1468.55L1828.76 1469.01L1800.04 1482.23L1770.87 1510.49L1741.69 1531.01L1721.18 1561.55L1700.21 1577.51L1700.66 1599.85L1684.25 1607.14L1676.04 1630.85L1669.66 1610.34L1656.9 1603.95L1641.85 1626.29L1630 1631.31L1618.15 1650L1609.94 1636.78L1589.88 1654.1L1569.82 1645.9L1554.78 1651.37L1501.44 1652.73L1491.41 1666.41L1460.41 1660.48L1430.78 1681L1402.97 1675.53L1382 1662.76L1398.41 1616.26L1399.32 1571.58L1439.44 1572.95L1464.06 1564.75L1483.66 1564.29L1494.15 1541.04L1516.03 1546.51L1521.5 1539.21L1506.46 1523.71L1481.84 1509.58L1468.62 1474.93L1495.51 1464.45L1508.28 1472.65L1515.12 1453.51L1551.13 1426.61L1586.24 1421.59L1602.65 1414.75L1627.26 1415.21L1655.07 1407.46L1675.13 1391.96L1713.43 1381.47L1726.19 1368.71L1755.82 1355.49L1785.91 1336.34L1788.19 1328.13L1804.15 1327.22L1831.96 1314L1846.54 1317.19L1861.59 1347.28L1871.62 1355.03L1878 1396.97L1900.79 1403.36L1909 1411.56L1903.07 1428.43L1907.18 1472.65L1879.82 1491.35Z" fill="#FAFAFA" stroke="#ADADAD" stroke-width="0.5" stroke-miterlimit="12"/>
<path d="M1710.12 108.667L1732.89 111.402L1762.5 103.651L1777.53 109.579L1803.49 110.49L1823.53 105.931L1840.84 93.1647L1852.22 69L1866.8 70.3678L1889.57 88.6053L1881.37 108.667L1908.25 156.54L1923.28 168.851L1943.77 174.778L1963.36 187.544L1956.07 205.782L1959.26 246.816L1967 282.379L1926.01 290.13L1895.04 268.701L1887.29 257.759L1854.5 275.996L1845.39 289.218L1835.83 307L1813.51 300.617L1802.58 291.042L1768.87 286.027L1763.41 279.188L1764.32 244.992L1760.68 234.962L1766.14 215.812L1777.53 205.782L1783.9 188L1772.97 173.41L1759.76 170.218L1708.75 165.203L1696 160.188L1711.03 123.713L1710.12 108.667Z" fill="#FAFAFA" stroke="#ADADAD" stroke-width="0.5" stroke-miterlimit="12"/>
<path d="M3089.82 206.966L3105.33 191.479L3125.4 182.37L3133.15 162.329L3147.75 144.11L3169.64 150.942L3184.69 147.298L3207.95 162.784L3232.12 138.188L3247.17 141.832L3274.08 135L3333.83 147.298L3340.67 172.805L3358 208.788L3354.81 227.007L3339.3 237.483L3324.25 258.435L3314.22 284.853L3264.05 293.507L3251.73 303.527L3252.65 325.846L3241.24 346.342L3239.42 369.116L3231.67 383.692L3197.46 373.216L3182.41 379.137L3149.11 401L3134.06 390.524L3136.8 349.075L3104.42 345.887L3088 338.599L3089.82 327.668L3132.7 264.356L3104.42 241.127L3089.82 206.966Z" fill="#FAFAFA" stroke="#ADADAD" stroke-width="0.5" stroke-miterlimit="12"/>
<path d="M2930 303.483L2950.88 287.021H2969.49L2995.82 270.103L3018.97 240.838L3033.04 242.209L3056.65 230.778L3074.8 212.487L3089.78 207L3103.86 239.923L3132 263.244L3089.33 326.803L3087.51 337.778L3053.47 368.872L3029.87 377.103L3025.33 392.65L2997.64 401.795L2966.77 421L2963.59 386.248L2948.61 355.154L2944.53 336.863L2930 303.483Z" fill="#FAFAFA" stroke="#ADADAD" stroke-width="0.5" stroke-miterlimit="12"/>
<path d="M3374.82 365.55L3372.08 384.229L3380.29 410.198L3340.6 441.178L3312.32 453.934L3307.75 468.968L3326.46 489.014L3357.03 495.392L3380.29 510.427L3399 536.851L3364.33 562.364L3341.97 565.097L3360.68 583.776L3390.79 591.977L3386.68 601.544L3391.24 637.536L3384.4 662.137L3365.24 667.149L3339.23 684.006L3333.76 719.542L3311.4 740.954L3286.77 747.788L3271.71 761L3236.13 755.989L3217.42 735.943L3187.77 714.074L3170.89 711.796L3138.95 720.453L3118.88 696.307L3090.59 689.928L3062.76 669.427L3034.02 687.65L3015.77 686.739L3014.86 669.882L3024.44 644.37L3000.26 629.335L2991.13 605.189L2976.08 588.332L2941.41 590.61L2930 585.599L2935.47 555.986L2975.62 555.074L2991.59 538.218L3026.72 520.905L3034.93 498.126L3002.08 493.57L2988.85 487.648L2973.8 436.166L2966.04 420.676L2997.06 401.542L3024.89 392.43L3029.46 376.94L3053.18 368.739L3087.4 337.759L3103.82 345.049L3136.21 348.238L3133.48 389.696L3148.53 400.175L3181.84 378.307L3196.89 372.384L3231.11 382.862L3238.86 368.284L3240.69 345.504L3252.1 325.003L3251.18 302.679L3263.5 292.656L3313.69 284L3320.07 304.046L3346.08 329.103L3374.82 365.55Z" fill="#FAFAFA" stroke="#ADADAD" stroke-width="0.5" stroke-miterlimit="12"/>
<path d="M3335 1294.09L3249.43 1323.33L3191.62 1331.1L3126.53 1321.5L3087.85 1330.64L3051.43 1353.48L3032.77 1358.96L2998.18 1385L2988.16 1381.35L2966.77 1348.91L2964.04 1322.42L2939.01 1300.95L2934 1269.43L2952.66 1241.1L3014.11 1189.03L3030.95 1186.74L3041.87 1165.73L3064.18 1158.88L3137 1154.31L3149.29 1147L3158.85 1147.91L3175.24 1165.27L3192.53 1194.97L3216.2 1207.3L3247.15 1197.71L3304.96 1147L3328.63 1201.36L3327.72 1219.18L3294.04 1241.1L3286.3 1251.61L3290.85 1262.12L3315.88 1268.06L3329.99 1277.65L3335 1294.09Z" fill="#FAFAFA" stroke="#ADADAD" stroke-width="0.5" stroke-miterlimit="12"/>
<path d="M3638.17 1221.4L3617.21 1221.85L3588.05 1209.59L3578.03 1210.5L3548.42 1226.85L3502.4 1220.94L3474.61 1280.92L3432.7 1295L3426.32 1279.55L3428.6 1264.11L3414.47 1250.02L3399.9 1250.48L3396.25 1240.94L3366.64 1278.19L3335.2 1293.18L3329.74 1277.28L3315.61 1267.74L3290.56 1261.83L3286 1251.38L3293.74 1240.94L3327.46 1219.13L3328.37 1201.41L3304.68 1147.34L3335.66 1158.7L3377.12 1157.79L3392.15 1140.07L3419.94 1138.26L3463.22 1145.07L3543.4 1146.44L3554.79 1131.9L3555.71 1116.9L3571.2 1106L3611.29 1111.91L3631.33 1108.27L3630.42 1148.25L3644.09 1178.69L3645 1202.32L3638.17 1221.4Z" fill="#FAFAFA" stroke="#ADADAD" stroke-width="0.5" stroke-miterlimit="12"/>
<path d="M3555 1116.23L3554.09 1131.21L3542.69 1145.74L3462.43 1144.38L3419.11 1137.57L3391.3 1139.39L3376.25 1157.09L3334.75 1158L3303.74 1146.65L3279.12 1123.95L3240.36 1111.69L3216.19 1093.07L3213 1076.28L3218.93 1063.11L3242.18 1054.48L3262.7 1015.44L3285.05 1021.34H3307.39L3342.05 1005.9L3356.64 1010.9L3384.46 1031.33L3424.58 1041.32L3475.66 1067.65L3488.88 1056.75L3485.69 1027.7L3493.9 1002.72L3509.86 1000L3542.23 1005.45L3549.53 1045.4L3548.62 1083.54L3544.97 1098.07L3555 1116.23Z" fill="#FAFAFA" stroke="#ADADAD" stroke-width="0.5" stroke-miterlimit="12"/>
<path d="M3795.44 1041L3799.55 1048.28L3820.07 1045.55L3832.84 1050.56L3851.08 1071.96L3862.48 1066.95L3883 1081.51L3874.33 1105.19L3884.37 1112.47L3885.73 1153.44L3940 1188.04L3933.62 1204.88L3937.72 1229.01L3929.97 1223.09L3897.13 1227.64L3868.86 1258.6L3851.99 1266.79L3846.52 1285H3830.56L3815.96 1259.05L3826 1238.57L3819.61 1213.53L3789.52 1201.24L3769 1203.51L3751.21 1229.01L3734.34 1237.66L3725.22 1231.28L3693.3 1234.93L3663.66 1234.01L3637.66 1220.36L3643.59 1199.87L3642.68 1176.2L3629 1145.7L3629.91 1105.64L3657.73 1102.46L3696.03 1087.43L3713.82 1090.16L3740.27 1084.25L3751.21 1076.05L3761.24 1045.1L3795.44 1041Z" fill="#FAFAFA" stroke="#ADADAD" stroke-width="0.5" stroke-miterlimit="12"/>
<path d="M3717.01 664L3727.94 700.032L3752.09 711.435L3754.37 741.082L3747.53 753.397L3761.66 779.394L3780.33 789.429L3779.88 839.144L3791.72 847.354L3798.1 911.665L3825.89 909.384L3835 923.068L3819.51 944.961L3820.42 972.783L3797.64 1024.32L3796.28 1041.2L3763.02 1046.67L3753 1077.69L3742.07 1085.9L3715.64 1091.83L3697.88 1089.09L3659.61 1104.14L3631.82 1107.33L3611.78 1110.98L3571.69 1105.05L3556.2 1116L3545.72 1097.3L3549.37 1082.7L3550.28 1044.39L3542.99 1004.25L3510.64 998.781L3494.7 1001.52L3483.31 999.237L3476.93 966.397L3466 944.505L3469.64 928.541L3502.44 903.455L3524.31 856.476L3548 829.566L3552.1 809.497L3542.08 796.727L3516.11 785.324L3506.09 752.484L3533.42 734.24L3530.69 707.786L3513.83 701.401L3514.74 693.191L3537.98 684.069L3552.56 665.824L3583.08 669.017L3605.86 684.981L3631.37 685.437L3648.68 672.21L3690.59 675.859L3717.01 664Z" fill="#FAFAFA" stroke="#ADADAD" stroke-width="0.5" stroke-miterlimit="12"/>
<path d="M3333.58 146.523L3349.97 123.262L3352.24 107.754L3370.46 100L3401.87 100.456L3393.67 119.613L3406.88 126.454L3413.25 118.244L3443.3 146.523L3482 165.68L3466.98 179.819H3480.63L3494.29 197.151L3512.05 189.398L3535.72 196.239L3538 209.466L3446.03 264.656L3423.72 280.164L3420.54 352.685L3374.55 365L3346.33 329.423L3320.37 304.337L3314 284.269L3324.02 257.814L3339.04 236.833L3354.52 226.343L3357.71 208.098L3340.41 172.065L3333.58 146.523Z" fill="#FAFAFA" stroke="#ADADAD" stroke-width="0.5" stroke-miterlimit="12"/>
<path d="M2425 1487.16L2409.52 1497.73L2366.28 1493.14L2337.14 1496.35L2326.67 1506L2318.48 1500.49L2317.11 1479.35L2307.1 1471.08L2242 1454.08L2253.38 1442.59L2284.34 1423.76L2285.7 1405.84L2299.36 1404L2306.64 1418.7L2337.6 1431.57L2364.91 1459.59L2371.28 1455L2407.25 1472.46L2425 1487.16Z" fill="#FAFAFA" stroke="#ADADAD" stroke-width="0.5" stroke-miterlimit="12"/>
<path d="M1303 204.447L1328.99 172.961L1355.44 167.029L1397.39 141.476L1433.86 136L1435.69 151.971L1448 183.456L1435.69 192.583L1437.51 210.835L1418.82 229.087L1407.87 231.825L1398.75 250.99L1374.59 271.068L1354.07 277L1332.64 275.175L1337.2 252.816L1326.25 220.874L1303 204.447Z" fill="#FAFAFA" stroke="#ADADAD" stroke-width="0.5" stroke-miterlimit="12"/>
<path d="M518.721 316.15L485.963 325.283L474.589 341.724L455.026 339.898L430.913 329.394L388.602 333.047L377.227 344.465L365.853 373.236L346.29 391.047L336.736 405.205L313.533 423.016L287.145 426.213L270.311 439L265.307 418.906L266.672 397.441L238.009 392.417L228 357.709V335.787L239.829 301.992L254.843 274.134L253.933 232.575L283.96 228.008L339.011 228.921L368.128 257.693L392.696 247.189L410.895 219.331L452.296 210.654L520.995 207L526 243.992L515.536 280.984L518.721 316.15Z" fill="#FAFAFA" stroke="#ADADAD" stroke-width="0.5" stroke-miterlimit="12"/>
<path d="M284.863 1151L282.124 1124.53L256.563 1121.34L246.521 1108.1L222.785 1099.43L204.983 1105.82L198.592 1077.07L186.724 1057L160.706 1058.82L149.295 1083.46L120.994 1053.34L79 1034.18L96.8019 1018.66L107.757 1025.05L130.58 1013.64L126.472 997.216L139.253 996.76L117.799 980.332L109.126 943.825L123.733 929.223L141.991 937.893L165.271 974.856L159.337 1002.69L170.292 1032.35L171.205 1011.36L183.529 999.954L190.833 1018.21L223.698 1016.84L242.412 1008.62L257.476 1012.27L272.082 997.672L244.695 995.391L226.436 1001.78L218.22 979.419L207.265 970.293L210.917 957.059L191.745 950.214L186.724 922.378L207.722 914.62L221.415 921.009L229.175 914.164L224.611 899.105L259.758 883.133L256.106 868.53L243.782 873.094L232.37 867.162L217.764 872.181L208.178 863.055L209.547 840.694L225.98 832.024L206.352 804.188L251.998 774.982L264.779 759.467L315.446 733L326.857 735.738L340.095 756.729L351.506 810.12L361.548 834.762L358.81 848.452L338.725 864.88L314.077 876.288L309.055 896.367L290.341 925.572L303.122 940.175L307.686 958.428L319.098 969.836L360.635 973.487L369.308 994.934L398.522 1014.1L411.759 1039.65L422.257 1037.83L431.387 1020.95L463.339 1026.42L476.12 1049.69L509.898 1046.5L534.546 1057.91L556 1107.65L490.726 1126.81L450.558 1125.45L401.717 1135.48L351.05 1128.64L340.095 1129.55L314.077 1145.07L284.863 1151Z" fill="#FAFAFA" stroke="#ADADAD" stroke-width="0.5" stroke-miterlimit="12"/>
<path d="M1434 136.881L1458.65 130.963L1474.62 121.858L1505.66 111.388L1536.7 95L1578.69 97.2761L1592.84 100.918L1643.5 105.925L1669.06 103.649L1710.6 109.112L1711.97 124.134L1696.91 160.552L1709.69 165.56L1760.81 170.567L1774.05 173.754L1785 188.321L1778.61 206.075L1767.2 216.09L1761.72 235.209L1765.37 245.224L1764.46 279.366L1754.42 282.097L1742.55 306.679L1728.86 320.791L1713.8 352.202L1728.4 370.41L1723.84 383.612L1678.19 400L1661.76 398.179L1637.11 383.157L1629.36 370.41L1642.59 347.649L1630.72 338.545L1598.77 355.843L1583.71 358.575L1555.41 374.052L1520.72 350.836L1495.16 347.649L1487.86 339.455L1481.47 329.896L1460.02 323.522L1457.73 286.194L1476.91 263.433L1496.53 258.881L1485.12 222.463L1470.97 211.993L1444.5 218.821L1438.11 211.082L1436.28 192.873L1448.61 183.769L1436.28 152.358L1434 136.881Z" fill="#FAFAFA" stroke="#ADADAD" stroke-width="0.5" stroke-miterlimit="12"/>
<path d="M682.483 1595L648.793 1568.07L656.077 1562.59L649.703 1544.34L654.256 1525.62L637.411 1526.99L639.687 1505.99L655.622 1504.17L651.524 1495.5L619.2 1471.31L602.355 1486.37L597.802 1500.52L568.665 1481.8L551.82 1482.26L549.089 1451.22L519.496 1449.4L516.764 1432.05L501.741 1439.35L511.756 1446.66L505.383 1456.24L480.343 1438.9L472.148 1448.48L482.164 1467.65L454.392 1485L443.011 1502.34L417.06 1512.38L410.686 1500.97L426.166 1501.89L438.458 1491.39L414.329 1477.24L445.287 1471.76L431.629 1458.98L403.857 1464L365.615 1456.24L354.233 1464.92L350.591 1482.72L326.461 1474.04L306.885 1478.61L287.764 1471.31L309.161 1453.96L341.03 1453.5L344.217 1443.92L372.444 1450.77L381.094 1444.38L421.613 1449.4L434.816 1447.57L425.255 1433.88L435.726 1431.14L430.718 1415.62L463.498 1414.25L469.872 1398.28L494.911 1391.43L489.903 1385.95L448.474 1388.23L402.036 1387.78L379.273 1395.08L366.98 1391.43L333.291 1398.28L308.251 1382.3L285.032 1384.13L280.024 1398.73L270.463 1396.91L265 1370.43L285.487 1355.37L299.145 1354.91L316.901 1365.41L334.201 1356.28L329.648 1339.4L346.493 1338.94L349.225 1318.86L316.901 1322.51L323.73 1303.34H304.153L314.169 1285.99L307.34 1279.6L325.096 1247.19L338.754 1244L370.167 1256.78L384.281 1267.28L412.963 1268.19L421.158 1273.67L461.221 1274.12L489.448 1245.83L504.472 1250.39L532.244 1271.39L559.105 1276.86L561.836 1301.97L584.144 1309.27L598.258 1343.05L613.737 1345.79L621.932 1359.48L649.248 1380.02L653.801 1413.34L690.678 1432.51L705.246 1416.53L707.523 1399.19L717.539 1391.89L717.994 1421.1L726.189 1423.84L736.66 1411.51L762.155 1409.23L779 1434.33L754.415 1486.82L752.594 1517.41L732.107 1533.38L730.286 1547.07L705.702 1550.73L692.499 1587.24L682.483 1595Z" fill="#FAFAFA" stroke="#ADADAD" stroke-width="0.5" stroke-miterlimit="12"/>
<path d="M661.141 947.216L662.962 930.779L652.942 905.667L655.675 889.23L640.645 859.095L604.664 845.854L591 830.787L593.733 808.871L623.793 796.543L642.011 768.235L645.655 749.516L658.863 718.468L666.606 724.86L703.954 730.796L715.34 723.947L722.172 694.269L732.192 687.42L749.955 640.849L760.43 634L780.926 643.132L805.976 640.392L802.332 673.723L811.897 692.443L848.334 718.468L856.987 720.751L895.246 713.902L924.395 749.516L931.227 786.042L950.812 814.35L954 831.244L938.97 853.16L914.831 863.205L895.246 914.798L880.216 935.801L836.492 960L837.403 933.062L828.294 921.647L797.322 912.059L773.183 916.625L763.619 943.107L725.36 949.955L697.122 947.672L672.982 938.541L661.141 947.216Z" fill="#FAFAFA" stroke="#ADADAD" stroke-width="0.5" stroke-miterlimit="12"/>
<path d="M1886.55 878.58L1872.36 930.163L1897.08 967.594L1898 1004.57L1866.87 1054.78L1845.35 1063L1820.17 1048.85L1778.97 1053.87L1751.5 1031.96L1755.17 993.614H1741.89L1722.2 984.941L1719 971.703L1729.07 946.14L1722.2 922.402L1724.49 911.903L1746.93 931.076L1755.17 928.793L1751.5 910.99L1756.08 896.839L1804.15 872.645L1812.39 862.146L1801.4 840.691L1803.69 823.801L1795.45 786.826L1824.29 785L1849.93 811.476L1857.26 829.736L1873.74 839.778L1886.55 878.58Z" fill="#FAFAFA" stroke="#ADADAD" stroke-width="0.5" stroke-miterlimit="12"/>
<path d="M2643.84 845.984L2637 814.52L2645.67 795.368L2660.73 786.704L2657.53 765.272L2687.19 747.032L2695.4 734.264L2725.51 721.952L2752.43 715.568L2783.91 717.848L2830.45 709.64L2860.11 688.208L2887.94 696.872L2926.72 680L2938.58 683.648L3002 682.736L2985.12 698.24L2970.06 697.784L2953.18 721.04L2934.48 726.056L2931.74 735.632L2914.4 737.456L2902.54 747.032L2899.8 773.936L2905.73 793.088L2901.62 810.872L2881.09 815.888L2874.71 823.184L2879.27 842.336L2872.88 866.504L2861.48 881.552L2842.77 890.672L2808.55 895.688L2798.06 908L2745.13 886.568L2697.68 878.816L2660.27 886.568L2650.69 878.816L2652.06 856.472L2643.84 845.984Z" fill="#FAFAFA" stroke="#ADADAD" stroke-width="0.5" stroke-miterlimit="12"/>
<path d="M2564.26 821L2581.11 828.293L2600.23 827.837L2618.9 835.586L2633.01 850.628L2618.44 851.995L2613.89 870.683L2620.72 885.269L2625.73 914.896L2622.99 924.013L2600.69 923.557L2591.58 940.878L2580.2 946.803L2570.18 968.226L2576.56 983.724L2599.32 998.309L2617.08 1000.13L2643.03 1009.7L2667.61 1003.32L2684.46 1022.01L2706.76 1031.13L2731.81 1024.75L2740 1039.79L2734.54 1064.4L2726.34 1075.8L2698.57 1089.47L2672.62 1095.4H2643.48L2623.9 1089.02L2633.92 1072.15L2620.72 1062.12L2594.31 1068.05L2568.36 1106.79L2552.88 1116.36L2548.33 1140.98L2536.49 1153.74L2505.08 1166.05L2487.32 1162.86L2421.31 1182L2429.5 1166.05L2438.15 1126.39L2449.08 1108.61L2460.46 1058.93L2449.53 1041.61L2418.58 1031.58L2391.71 1017L2360.76 1011.53L2345.73 1014.26L2343 998.765L2353.93 977.798L2365.76 971.417L2385.34 948.17L2398.54 939.966L2415.39 913.529L2404.01 877.976L2417.21 864.302L2434.51 872.051L2451.36 867.492L2480.04 848.804L2536.95 839.232L2564.26 821Z" fill="#FAFAFA" stroke="#ADADAD" stroke-width="0.5" stroke-miterlimit="12"/>
<path d="M3383.9 662.041L3390.29 637.871L3385.73 601.842L3389.83 592.265L3359.71 584.056L3341 565.358L3363.36 562.622L3398.05 537.083L3438.21 540.275L3498 515.648L3538.62 512L3550.03 515.192L3561.44 558.061L3572.39 562.622L3597.03 544.836L3625.33 553.045L3637.65 569.463L3670.06 577.216L3673.71 584.512L3712.5 579.952L3743.99 582.688L3779.13 569.463L3791 572.655L3785.07 591.353L3786.89 629.206L3780.5 638.327L3760.88 646.536L3745.82 640.607L3717.98 646.992L3709.31 655.201L3717.06 663.866L3689.23 675.267L3647.24 671.619L3629.89 684.844L3604.34 684.388L3581.52 668.426L3550.94 665.234L3536.33 683.476L3513.06 692.597L3512.15 700.806L3529.03 707.191L3531.77 733.642L3504.39 751.884L3467.88 764.653L3437.3 787L3433.19 724.521L3400.79 691.229L3383.9 662.041Z" fill="#FAFAFA" stroke="#ADADAD" stroke-width="0.5" stroke-miterlimit="12"/>
<path d="M3225 928.913L3257.32 910.684L3292.37 909.772L3306.02 900.202L3324.68 877.415L3314.67 855.996L3317.4 846.425L3335.61 845.058L3340.62 828.196L3373.84 809.967H3407.53L3437.11 788.091L3467.61 765.761L3504.03 753L3514.04 785.813L3539.99 797.206L3550 809.967L3545.9 830.019L3522.23 856.907L3500.39 903.848L3467.61 928.913L3463.97 944.864L3474.89 966.739L3481.27 999.552L3492.65 1001.83L3484.45 1026.9L3487.64 1056.06L3474.44 1067L3423.46 1040.57L3383.4 1030.54L3355.64 1010.03L3341.07 1005.02L3306.48 1020.52H3284.17L3261.87 1014.59L3258.23 983.145L3241.84 933.926L3225 928.913Z" fill="#FAFAFA" stroke="#ADADAD" stroke-width="0.5" stroke-miterlimit="12"/>
<path d="M2854 571.209L2838.97 593.62L2806.17 607.341L2758.8 611L2734.2 602.767L2726.91 594.992L2688.65 577.155L2664.51 570.295L2657.68 545.14L2655.85 518.155L2685.46 493.915L2685.92 484.31L2669.52 474.248L2645.38 469.217L2639.46 463.271L2639 439.488L2649.93 422.108L2649.02 407.016L2670.89 385.977L2694.57 381.403L2709.6 375L2736.93 407.473L2784.76 423.023L2803.44 419.364L2810.73 402.899L2825.3 411.132L2836.24 426.682L2845.8 465.558L2847.17 504.434L2840.33 537.822L2854 571.209Z" fill="#FAFAFA" stroke="#ADADAD" stroke-width="0.5" stroke-miterlimit="12"/>
<path d="M2250 1335.76L2233.14 1359.49L2222.67 1383.21L2196.7 1420.17L2175.74 1422L2160.71 1409.68L2114.7 1410.14L2122.9 1379.56L2111.51 1356.29L2093.74 1354.92L2086.91 1335.76L2086 1315.22L2110.14 1252.71L2119.26 1236.28L2154.33 1234L2155.24 1254.53L2143.86 1277.35L2153.88 1308.38L2162.53 1318.42L2213.56 1305.64L2240.89 1322.52L2250 1335.76Z" fill="#FAFAFA" stroke="#ADADAD" stroke-width="0.5" stroke-miterlimit="12"/>
<path d="M805.75 1027L834.015 1034.75L860 1080.35L856.809 1104.52L782.956 1157.87L782.044 1184.77L809.853 1193.89L818.515 1210.76L785.691 1232.19L780.221 1243.59L753.324 1256.81L754.235 1281.89L761.529 1301.05L723.691 1362.15L717.309 1390.42L707.279 1397.71L705 1415.04L690.412 1431L653.485 1411.85L648.926 1378.56L621.574 1358.04L613.368 1344.36L597.868 1341.63L583.735 1307.88L561.397 1300.59L558.662 1275.51L550 1254.53L554.559 1244.96L585.559 1244.5L607.441 1220.79L622.029 1216.23L621.118 1203.01L607.897 1199.82L596.5 1178.84L604.25 1163.34L600.147 1130.51L584.647 1109.53L602.882 1106.8L615.191 1075.79L634.338 1072.14L657.588 1082.63L679.926 1076.25L693.603 1085.37L720.044 1084.91L733.721 1068.95L763.809 1071.23L778.397 1063.48L779.765 1031.56L805.75 1027Z" fill="#FAFAFA" stroke="#ADADAD" stroke-width="0.5" stroke-miterlimit="12"/>
<path d="M836.091 960.677L831.545 981.564L818.818 993.824L806.545 1027.43L780.636 1032.42L779.273 1064.2L764.727 1071.92L734.727 1069.65L721.091 1085.55L694.727 1086L681.091 1076.92L658.818 1083.28L635.636 1072.83L617 1059.21L629.273 1044.23L634.273 1023.34L632.909 998.819L622.909 981.11L661.545 948.417L672.909 939.336L697 948.417L725.182 950.688L763.364 943.877L772.909 917.541L797 913L827.909 922.535L837 933.887L836.091 960.677Z" fill="#FAFAFA" stroke="#ADADAD" stroke-width="0.5" stroke-miterlimit="12"/>
<g filter="url(#filter0_d_5_3376)">
<path d="M2690.1 301.609L2715.15 305.261L2744.75 287L2757.5 288.826L2778.45 307.543L2794.39 312.565L2805.78 307.543L2832.19 318.957L2859.97 312.109L2886.39 326.261L2929.65 302.978L2944.68 336.304L2948.78 354.565L2963.81 385.609L2967 420.304L2906.88 434L2872.73 431.261L2850.87 413.913L2835.84 426.696L2824.91 411.174L2810.33 402.957L2803.05 419.391L2784.37 423.044L2736.55 407.522L2709.23 375.109L2694.2 381.5L2689.64 371.457L2686 334.022L2690.1 301.609Z" fill="white"/>
<path d="M2690.1 301.609L2715.15 305.261L2744.75 287L2757.5 288.826L2778.45 307.543L2794.39 312.565L2805.78 307.543L2832.19 318.957L2859.97 312.109L2886.39 326.261L2929.65 302.978L2944.68 336.304L2948.78 354.565L2963.81 385.609L2967 420.304L2906.88 434L2872.73 431.261L2850.87 413.913L2835.84 426.696L2824.91 411.174L2810.33 402.957L2803.05 419.391L2784.37 423.044L2736.55 407.522L2709.23 375.109L2694.2 381.5L2689.64 371.457L2686 334.022L2690.1 301.609Z" stroke="url(#paint0_linear_5_3376)" stroke-width="2" stroke-miterlimit="12"/>
</g>
<g filter="url(#filter1_d_5_3376)">
<path d="M1568.35 988L1547.84 947.444L1549.21 887.749L1538.26 862.231L1494.5 835.345H1485.84L1474.9 866.788L1444.81 852.661L1406.97 885.015L1391.93 878.635L1366.85 894.129L1326.74 876.813L1295.28 884.104L1259.26 857.218L1241.49 847.649L1269.75 831.7L1278.87 820.763L1267.01 800.713L1269.29 761.98L1260.63 738.284L1250.6 729.171L1239.66 687.703L1247.87 678.59L1241.03 661.729L1228.26 657.172L1217.78 621.629L1158.06 620.717L1149.85 612.059L1121.59 611.148L1110.19 619.806L1088.31 612.971L1069.16 620.717L1055.94 619.806L1053.21 598.389L1045 586.997L1057.76 570.592L1074.63 561.478L1087.85 516.821L1123.87 534.593L1157.6 531.859L1163.99 539.15L1186.78 545.985L1205.01 539.15H1237.84L1292.09 523.656L1308.96 514.998L1336.76 519.555L1353.18 511.353L1369.59 487.202L1361.84 465.784L1362.75 451.658L1375.51 443L1406.97 445.278L1464.87 473.075L1481.74 497.682L1507.72 515.91L1514.1 531.859L1527.32 541.884L1541.91 540.517L1552.4 525.023L1592.06 539.605L1587.04 576.516L1586.13 625.274L1547.84 634.388L1539.18 657.172L1528.24 702.285L1533.25 724.614L1555.13 754.689L1563.34 792.055L1579.75 823.953L1584.31 838.991L1623.97 865.421L1664.54 884.559L1663.18 893.217L1656.79 910.989L1665 932.862L1664.54 948.355L1639.93 969.317L1621.24 968.861L1568.35 988Z" fill="white"/>
<path d="M1568.35 988L1547.84 947.444L1549.21 887.749L1538.26 862.231L1494.5 835.345H1485.84L1474.9 866.788L1444.81 852.661L1406.97 885.015L1391.93 878.635L1366.85 894.129L1326.74 876.813L1295.28 884.104L1259.26 857.218L1241.49 847.649L1269.75 831.7L1278.87 820.763L1267.01 800.713L1269.29 761.98L1260.63 738.284L1250.6 729.171L1239.66 687.703L1247.87 678.59L1241.03 661.729L1228.26 657.172L1217.78 621.629L1158.06 620.717L1149.85 612.059L1121.59 611.148L1110.19 619.806L1088.31 612.971L1069.16 620.717L1055.94 619.806L1053.21 598.389L1045 586.997L1057.76 570.592L1074.63 561.478L1087.85 516.821L1123.87 534.593L1157.6 531.859L1163.99 539.15L1186.78 545.985L1205.01 539.15H1237.84L1292.09 523.656L1308.96 514.998L1336.76 519.555L1353.18 511.353L1369.59 487.202L1361.84 465.784L1362.75 451.658L1375.51 443L1406.97 445.278L1464.87 473.075L1481.74 497.682L1507.72 515.91L1514.1 531.859L1527.32 541.884L1541.91 540.517L1552.4 525.023L1592.06 539.605L1587.04 576.516L1586.13 625.274L1547.84 634.388L1539.18 657.172L1528.24 702.285L1533.25 724.614L1555.13 754.689L1563.34 792.055L1579.75 823.953L1584.31 838.991L1623.97 865.421L1664.54 884.559L1663.18 893.217L1656.79 910.989L1665 932.862L1664.54 948.355L1639.93 969.317L1621.24 968.861L1568.35 988Z" stroke="url(#paint1_linear_5_3376)" stroke-width="2" stroke-miterlimit="12"/>
</g>
<g filter="url(#filter2_d_5_3376)">
<path d="M2836 426.779L2851.03 414L2872.9 431.343L2907.07 434.081L2967.21 420.39L2974.95 435.907L2989.99 487.48L3003.2 493.413L3036 497.977L3027.8 520.797L2992.72 538.14L2976.77 555.026L2936.68 555.939L2903.43 551.375L2886.57 564.154L2854.68 571L2840.56 537.683L2847.39 504.366L2846.02 465.573L2836 426.779Z" fill="white"/>
<path d="M2836 426.779L2851.03 414L2872.9 431.343L2907.07 434.081L2967.21 420.39L2974.95 435.907L2989.99 487.48L3003.2 493.413L3036 497.977L3027.8 520.797L2992.72 538.14L2976.77 555.026L2936.68 555.939L2903.43 551.375L2886.57 564.154L2854.68 571L2840.56 537.683L2847.39 504.366L2846.02 465.573L2836 426.779Z" stroke="url(#paint2_linear_5_3376)" stroke-width="2" stroke-miterlimit="12"/>
</g>
<g filter="url(#filter3_d_5_3376)">
<path d="M863.441 477L875.273 499.804L890.292 515.31L907.587 521.695L935.349 514.854L959.47 516.679L973.123 531.729L998.61 534.922L1001.34 546.323L1020 578.249L999.52 578.705L982.681 591.475L975.854 618.383L958.104 637.538L937.169 641.187L918.509 658.974L915.779 685.882L894.843 714.159L856.614 721L847.967 718.72L811.557 692.723L802 674.024L805.641 640.731L827.031 640.275L824.301 626.593L809.282 606.069L815.653 566.847L839.774 539.938L833.858 518.047L844.326 489.314L863.441 477Z" fill="white"/>
<path d="M863.441 477L875.273 499.804L890.292 515.31L907.587 521.695L935.349 514.854L959.47 516.679L973.123 531.729L998.61 534.922L1001.34 546.323L1020 578.249L999.52 578.705L982.681 591.475L975.854 618.383L958.104 637.538L937.169 641.187L918.509 658.974L915.779 685.882L894.843 714.159L856.614 721L847.967 718.72L811.557 692.723L802 674.024L805.641 640.731L827.031 640.275L824.301 626.593L809.282 606.069L815.653 566.847L839.774 539.938L833.858 518.047L844.326 489.314L863.441 477Z" stroke="url(#paint3_linear_5_3376)" stroke-width="2" stroke-miterlimit="12"/>
</g>
<g filter="url(#filter4_d_5_3376)">
<path d="M531 195.012L521.448 207.336H520.994L452.313 210.988L410.923 219.66L392.729 247.502L368.168 258L339.058 229.245L284.023 228.788L254.003 233.353L249 220.573L273.106 170.822L279.474 145.261L279.019 119.701L271.742 63.1037L291.755 58.5394L309.494 39.3693L339.058 45.7594L359.071 38L385.452 71.3195L409.103 92.3154L422.294 79.0788L444.581 76.7967L456.861 84.0996L461.41 70.8631L501.89 79.0788L505.984 100.988H492.794L490.519 118.332L510.987 158.041L509.623 166.257L531 195.012Z" fill="white"/>
<path d="M531 195.012L521.448 207.336H520.994L452.313 210.988L410.923 219.66L392.729 247.502L368.168 258L339.058 229.245L284.023 228.788L254.003 233.353L249 220.573L273.106 170.822L279.474 145.261L279.019 119.701L271.742 63.1037L291.755 58.5394L309.494 39.3693L339.058 45.7594L359.071 38L385.452 71.3195L409.103 92.3154L422.294 79.0788L444.581 76.7967L456.861 84.0996L461.41 70.8631L501.89 79.0788L505.984 100.988H492.794L490.519 118.332L510.987 158.041L509.623 166.257L531 195.012Z" stroke="url(#paint4_linear_5_3376)" stroke-width="2" stroke-miterlimit="12"/>
</g>
<g filter="url(#filter5_d_5_3376)">
<path d="M237.857 392.784V393.697L235.114 410.131L200.371 412.87L178.886 422L167.457 415.609L138.657 418.348L93.4 411.957L87 378.633L108.029 371.329L124.943 351.243L128.6 337.549L156.486 322.028L151.457 280.03L156.943 245.337L169.286 244.88L199.914 222.512L209.971 229.359L220.029 217.034L216.371 154.038L212.257 159.516L191.229 142.626L193.971 135.778L166.543 123.453L168.371 102.91L177.057 96.0631L206.771 96.5195L213.171 69.5864L229.171 60L251.114 63.652L271.229 61.3695L278.543 117.975L279 143.538L272.6 169.102L248.371 218.86L253.4 231.642L254.314 273.183L239.229 301.029L227.343 334.81V356.721L237.857 392.784Z" fill="white"/>
<path d="M237.857 392.784V393.697L235.114 410.131L200.371 412.87L178.886 422L167.457 415.609L138.657 418.348L93.4 411.957L87 378.633L108.029 371.329L124.943 351.243L128.6 337.549L156.486 322.028L151.457 280.03L156.943 245.337L169.286 244.88L199.914 222.512L209.971 229.359L220.029 217.034L216.371 154.038L212.257 159.516L191.229 142.626L193.971 135.778L166.543 123.453L168.371 102.91L177.057 96.0631L206.771 96.5195L213.171 69.5864L229.171 60L251.114 63.652L271.229 61.3695L278.543 117.975L279 143.538L272.6 169.102L248.371 218.86L253.4 231.642L254.314 273.183L239.229 301.029L227.343 334.81V356.721L237.857 392.784Z" stroke="url(#paint5_linear_5_3376)" stroke-width="2" stroke-miterlimit="12"/>
</g>
<g filter="url(#filter6_d_5_3376)">
<path d="M2397.91 482.35L2410.23 503.332L2433.02 513.367L2451.26 494.666L2471.78 491.473L2472.24 473.228L2501.87 460L2530.14 548.032L2567.53 569.014L2588.05 562.628L2630 576.768L2626.81 600.943L2608.11 600.487L2588.51 610.521L2568.9 602.767L2560.24 609.153L2556.13 639.713L2584.4 633.784L2587.14 646.099L2572.09 652.029L2558.87 675.291L2556.59 722.272L2576.2 738.692L2561.15 758.762L2569.36 805.743L2563.89 822.163L2534.25 840.408L2477.25 849.987L2448.53 868.688L2431.66 873.249L2414.33 865.495L2401.11 879.179L2412.51 914.757L2395.64 941.212L2382.41 949.422L2362.81 972.685L2350.95 979.07L2305.35 985L2267.97 977.246L2241.06 985L2259.76 911.108L2274.81 865.495L2266.6 842.233L2249.73 834.023L2213.25 832.654L2195.01 839.952L2174.49 829.005L2140.75 825.812L2125.71 832.198L2105.19 829.917L2065.52 803.462L2045 797.989L2061.41 781.568L2084.67 743.71L2115.67 713.606L2121.15 691.712L2100.63 659.327L2094.24 640.169L2140.75 629.222L2173.58 626.03L2209.15 606.872L2220.55 565.365L2235.14 557.611L2258.39 559.435L2291.22 548.032L2343.2 541.19L2377.4 524.314L2397.91 482.35Z" fill="white"/>
<path d="M2397.91 482.35L2410.23 503.332L2433.02 513.367L2451.26 494.666L2471.78 491.473L2472.24 473.228L2501.87 460L2530.14 548.032L2567.53 569.014L2588.05 562.628L2630 576.768L2626.81 600.943L2608.11 600.487L2588.51 610.521L2568.9 602.767L2560.24 609.153L2556.13 639.713L2584.4 633.784L2587.14 646.099L2572.09 652.029L2558.87 675.291L2556.59 722.272L2576.2 738.692L2561.15 758.762L2569.36 805.743L2563.89 822.163L2534.25 840.408L2477.25 849.987L2448.53 868.688L2431.66 873.249L2414.33 865.495L2401.11 879.179L2412.51 914.757L2395.64 941.212L2382.41 949.422L2362.81 972.685L2350.95 979.07L2305.35 985L2267.97 977.246L2241.06 985L2259.76 911.108L2274.81 865.495L2266.6 842.233L2249.73 834.023L2213.25 832.654L2195.01 839.952L2174.49 829.005L2140.75 825.812L2125.71 832.198L2105.19 829.917L2065.52 803.462L2045 797.989L2061.41 781.568L2084.67 743.71L2115.67 713.606L2121.15 691.712L2100.63 659.327L2094.24 640.169L2140.75 629.222L2173.58 626.03L2209.15 606.872L2220.55 565.365L2235.14 557.611L2258.39 559.435L2291.22 548.032L2343.2 541.19L2377.4 524.314L2397.91 482.35Z" stroke="url(#paint6_linear_5_3376)" stroke-width="2" stroke-miterlimit="12"/>
</g>
<g filter="url(#filter7_d_5_3376)">
<path d="M2632.82 851.168L2637.83 848.435L2644.21 846.613L2652.86 858L2651.49 880.319L2661.05 888.063L2698.38 880.319L2745.73 888.063L2798.53 909.471L2809.01 897.173L2843.15 892.162L2861.81 883.052L2873.2 868.021L2879.57 843.88L2875.02 824.749L2881.39 817.461L2901.88 812.45L2946.95 783.298L2969.71 771L2976.99 783.754L2960.6 816.55L2957.87 835.225L2964.25 855.267L2982 878.497L2976.54 906.283L2963.33 903.55L2956.05 932.702L2967.89 948.189L2972.9 972.33L2904.15 979.618L2879.57 973.696L2868.19 999.66L2855.44 1007.4L2824.03 1010.14L2794.44 1021.52L2759.38 1018.34L2731.61 1025.62L2706.57 1032L2684.27 1022.89L2667.42 1004.21L2642.84 1010.59L2616.89 1001.03L2599.14 999.204L2576.37 984.628L2570 969.141L2580.02 947.733L2591.4 941.811L2600.5 924.503L2622.81 924.958L2625.54 915.848L2620.53 886.241L2613.7 871.665L2618.26 852.989L2632.82 851.168Z" fill="white"/>
<path d="M2632.82 851.168L2637.83 848.435L2644.21 846.613L2652.86 858L2651.49 880.319L2661.05 888.063L2698.38 880.319L2745.73 888.063L2798.53 909.471L2809.01 897.173L2843.15 892.162L2861.81 883.052L2873.2 868.021L2879.57 843.88L2875.02 824.749L2881.39 817.461L2901.88 812.45L2946.95 783.298L2969.71 771L2976.99 783.754L2960.6 816.55L2957.87 835.225L2964.25 855.267L2982 878.497L2976.54 906.283L2963.33 903.55L2956.05 932.702L2967.89 948.189L2972.9 972.33L2904.15 979.618L2879.57 973.696L2868.19 999.66L2855.44 1007.4L2824.03 1010.14L2794.44 1021.52L2759.38 1018.34L2731.61 1025.62L2706.57 1032L2684.27 1022.89L2667.42 1004.21L2642.84 1010.59L2616.89 1001.03L2599.14 999.204L2576.37 984.628L2570 969.141L2580.02 947.733L2591.4 941.811L2600.5 924.503L2622.81 924.958L2625.54 915.848L2620.53 886.241L2613.7 871.665L2618.26 852.989L2632.82 851.168Z" stroke="url(#paint7_linear_5_3376)" stroke-width="2" stroke-miterlimit="12"/>
</g>
<g filter="url(#filter8_d_5_3376)">
<path d="M1019.9 579L1031.76 584.013L1044.99 586.291L1053.2 597.684L1055.94 619.101L1069.17 620.013L1088.32 612.266L1110.22 619.101L1121.62 610.443L1149.91 611.354L1158.12 620.013L1217.87 620.924L1228.37 656.468L1241.14 661.025L1247.98 677.886L1239.77 687L1250.72 728.468L1260.75 737.582L1269.42 761.279L1267.14 800.013L1279 820.063L1269.88 831L1241.59 846.949L1236.12 866.089L1208.3 867L1184.57 864.266L1158.12 866.544L1143.06 854.241L1133.03 831L1119.34 815.051L1058.22 847.405L1039.52 831.911L1018.99 850.139L988.425 863.81L972.916 853.329L965.617 839.202L952.845 831.456L949.652 814.595L930.037 786.342L923.194 749.886L894 714.342L914.983 686.089L917.72 659.203L936.423 641.43L957.406 637.785L975.197 618.646L982.039 591.76L998.917 579H1019.9Z" fill="white"/>
<path d="M1019.9 579L1031.76 584.013L1044.99 586.291L1053.2 597.684L1055.94 619.101L1069.17 620.013L1088.32 612.266L1110.22 619.101L1121.62 610.443L1149.91 611.354L1158.12 620.013L1217.87 620.924L1228.37 656.468L1241.14 661.025L1247.98 677.886L1239.77 687L1250.72 728.468L1260.75 737.582L1269.42 761.279L1267.14 800.013L1279 820.063L1269.88 831L1241.59 846.949L1236.12 866.089L1208.3 867L1184.57 864.266L1158.12 866.544L1143.06 854.241L1133.03 831L1119.34 815.051L1058.22 847.405L1039.52 831.911L1018.99 850.139L988.425 863.81L972.916 853.329L965.617 839.202L952.845 831.456L949.652 814.595L930.037 786.342L923.194 749.886L894 714.342L914.983 686.089L917.72 659.203L936.423 641.43L957.406 637.785L975.197 618.646L982.039 591.76L998.917 579H1019.9Z" stroke="url(#paint8_linear_5_3376)" stroke-width="2" stroke-miterlimit="12"/>
</g>
<g filter="url(#filter9_d_5_3376)">
<path d="M1713 1156.25L1780.17 1053.02L1821.29 1048L1846.42 1062.16L1867.89 1053.94L1882.97 1093.68L1895.31 1106.92L1928.66 1106.47L1934.6 1123.82L1934.15 1146.66L1941 1164.93L1931.4 1171.33L1927.29 1201.47L1900.79 1229.79L1880.23 1233.45L1859.21 1229.79L1852.82 1239.84L1861.04 1273.19L1846.88 1298.77L1846.42 1317.04L1831.8 1313.84L1803.93 1327.09L1788.39 1328L1762.35 1292.37L1763.26 1272.27L1776.05 1246.24L1773.31 1230.71L1742.7 1189.6L1723.05 1180.46L1713 1156.25Z" fill="white"/>
<path d="M1713 1156.25L1780.17 1053.02L1821.29 1048L1846.42 1062.16L1867.89 1053.94L1882.97 1093.68L1895.31 1106.92L1928.66 1106.47L1934.6 1123.82L1934.15 1146.66L1941 1164.93L1931.4 1171.33L1927.29 1201.47L1900.79 1229.79L1880.23 1233.45L1859.21 1229.79L1852.82 1239.84L1861.04 1273.19L1846.88 1298.77L1846.42 1317.04L1831.8 1313.84L1803.93 1327.09L1788.39 1328L1762.35 1292.37L1763.26 1272.27L1776.05 1246.24L1773.31 1230.71L1742.7 1189.6L1723.05 1180.46L1713 1156.25Z" stroke="url(#paint9_linear_5_3376)" stroke-width="2" stroke-miterlimit="12"/>
</g>
<g filter="url(#filter10_d_5_3376)">
<path d="M2997 1384.27L2940.01 1419.88L2896.24 1440.87L2786.82 1470.09L2775.42 1471L2742.14 1462.33L2692.9 1469.17L2664.63 1462.33L2634.54 1433.57L2583.48 1418.51H2562.51L2529.22 1439.05L2523.75 1407.09L2514.63 1398.42L2516 1382.9L2504.6 1385.18L2493.21 1376.51L2485 1326.76L2493.21 1303.93L2510.53 1280.65L2524.21 1277.46L2535.61 1274.72L2555.21 1284.3L2572.08 1266.96L2622.23 1254.63L2647.76 1222.68L2693.36 1212.64L2678.31 1201.68L2703.39 1195.75L2696.09 1188.9L2711.14 1182.51L2711.59 1143.71L2726.18 1133.67L2727.09 1120.89L2753.08 1104L2769.95 1112.22L2810.98 1118.15L2838.8 1140.97L2871.17 1156.49L2874.81 1149.19L2897.61 1164.71L2898.52 1193.92L2906.73 1225.42L2923.6 1259.2L2934.08 1269.24L2939.1 1300.74L2964.17 1322.19L2966.91 1348.67L2988.34 1381.08L2997 1384.27Z" fill="white"/>
<path d="M2997 1384.27L2940.01 1419.88L2896.24 1440.87L2786.82 1470.09L2775.42 1471L2742.14 1462.33L2692.9 1469.17L2664.63 1462.33L2634.54 1433.57L2583.48 1418.51H2562.51L2529.22 1439.05L2523.75 1407.09L2514.63 1398.42L2516 1382.9L2504.6 1385.18L2493.21 1376.51L2485 1326.76L2493.21 1303.93L2510.53 1280.65L2524.21 1277.46L2535.61 1274.72L2555.21 1284.3L2572.08 1266.96L2622.23 1254.63L2647.76 1222.68L2693.36 1212.64L2678.31 1201.68L2703.39 1195.75L2696.09 1188.9L2711.14 1182.51L2711.59 1143.71L2726.18 1133.67L2727.09 1120.89L2753.08 1104L2769.95 1112.22L2810.98 1118.15L2838.8 1140.97L2871.17 1156.49L2874.81 1149.19L2897.61 1164.71L2898.52 1193.92L2906.73 1225.42L2923.6 1259.2L2934.08 1269.24L2939.1 1300.74L2964.17 1322.19L2966.91 1348.67L2988.34 1381.08L2997 1384.27Z" stroke="url(#paint10_linear_5_3376)" stroke-width="2" stroke-miterlimit="12"/>
</g>
<g filter="url(#filter11_d_5_3376)">
<path d="M2529 1438.76L2486.52 1461.06L2451.8 1470.16L2424.85 1487L2406.12 1471.53L2370.04 1454.23L2363.64 1458.79L2336.23 1431.03L2305.17 1418.28L2297.86 1403.72L2284.16 1405.54L2282.79 1423.29L2251.73 1441.95L2240.31 1453.32L2227.06 1439.67L2196 1419.19L2222.04 1382.33L2232.54 1358.67L2249.44 1335L2274.11 1321.81L2283.7 1308.15L2293.75 1314.07L2300.61 1337.28L2317.05 1342.29L2335.32 1320.9L2400.19 1297.69L2426.22 1294.96L2434.9 1288.59L2435.36 1260.83L2481.04 1254L2505.7 1262.19L2523.06 1275.84L2509.36 1279.03L2492 1302.24L2483.78 1324.99L2492 1374.6L2503.42 1383.24L2514.84 1380.97L2513.47 1396.44L2522.6 1405.09L2529 1438.76Z" fill="white"/>
<path d="M2529 1438.76L2486.52 1461.06L2451.8 1470.16L2424.85 1487L2406.12 1471.53L2370.04 1454.23L2363.64 1458.79L2336.23 1431.03L2305.17 1418.28L2297.86 1403.72L2284.16 1405.54L2282.79 1423.29L2251.73 1441.95L2240.31 1453.32L2227.06 1439.67L2196 1419.19L2222.04 1382.33L2232.54 1358.67L2249.44 1335L2274.11 1321.81L2283.7 1308.15L2293.75 1314.07L2300.61 1337.28L2317.05 1342.29L2335.32 1320.9L2400.19 1297.69L2426.22 1294.96L2434.9 1288.59L2435.36 1260.83L2481.04 1254L2505.7 1262.19L2523.06 1275.84L2509.36 1279.03L2492 1302.24L2483.78 1324.99L2492 1374.6L2503.42 1383.24L2514.84 1380.97L2513.47 1396.44L2522.6 1405.09L2529 1438.76Z" stroke="url(#paint11_linear_5_3376)" stroke-width="2" stroke-miterlimit="12"/>
</g>
<g filter="url(#filter12_d_5_3376)">
<path d="M1208.24 867.356L1236.04 866.444L1241.51 847.304L1259.28 856.874L1295.29 883.761L1326.73 876.47L1366.83 893.787L1391.9 878.293L1406.94 884.673L1444.76 852.317L1474.84 866.444L1485.77 835H1494.43L1538.18 861.887L1549.12 887.407L1547.75 947.106L1568.26 987.664L1548.21 1017.74L1528.61 1082.45L1527.24 1103.87L1540 1129.39L1544.56 1150.35L1566.89 1175.42L1600.61 1170.41L1648.92 1168.58L1696.77 1154L1711.81 1155.82L1721.83 1179.98L1741.43 1189.09L1771.96 1230.1L1774.7 1245.6L1761.94 1271.57L1761.02 1291.62L1787 1327.17L1784.72 1335.37L1754.64 1354.51L1725.02 1367.73L1712.26 1380.49L1692.67 1346.31L1639.35 1289.35L1633.42 1255.62L1604.26 1251.07L1578.74 1279.78L1557.32 1287.52L1493.98 1293.9L1474.38 1301.65L1438.84 1341.75L1393.72 1402.82L1389.62 1429.25L1414.68 1436.54L1417.42 1451.58L1380.96 1491.23L1357.26 1509L1358.63 1491.23L1350.88 1467.07L1325.82 1460.69L1329.92 1433.81L1314.88 1426.06L1288.91 1402.36L1269.31 1377.75L1224.19 1343.12L1170.88 1330.82L1141.25 1326.26L1124.39 1308.49L1132.6 1277.95L1124.85 1251.07L1140.8 1240.58L1150.82 1214.61L1146.27 1173.14L1150.82 1155.82L1185.46 1138.51L1186.83 1129.85L1146.72 1093.85L1118.47 1063.31L1113 1044.17L1149.46 1020.48L1183.64 980.828L1186.83 950.296L1209.16 912.016L1200.95 892.876L1208.24 867.356Z" fill="white"/>
<path d="M1208.24 867.356L1236.04 866.444L1241.51 847.304L1259.28 856.874L1295.29 883.761L1326.73 876.47L1366.83 893.787L1391.9 878.293L1406.94 884.673L1444.76 852.317L1474.84 866.444L1485.77 835H1494.43L1538.18 861.887L1549.12 887.407L1547.75 947.106L1568.26 987.664L1548.21 1017.74L1528.61 1082.45L1527.24 1103.87L1540 1129.39L1544.56 1150.35L1566.89 1175.42L1600.61 1170.41L1648.92 1168.58L1696.77 1154L1711.81 1155.82L1721.83 1179.98L1741.43 1189.09L1771.96 1230.1L1774.7 1245.6L1761.94 1271.57L1761.02 1291.62L1787 1327.17L1784.72 1335.37L1754.64 1354.51L1725.02 1367.73L1712.26 1380.49L1692.67 1346.31L1639.35 1289.35L1633.42 1255.62L1604.26 1251.07L1578.74 1279.78L1557.32 1287.52L1493.98 1293.9L1474.38 1301.65L1438.84 1341.75L1393.72 1402.82L1389.62 1429.25L1414.68 1436.54L1417.42 1451.58L1380.96 1491.23L1357.26 1509L1358.63 1491.23L1350.88 1467.07L1325.82 1460.69L1329.92 1433.81L1314.88 1426.06L1288.91 1402.36L1269.31 1377.75L1224.19 1343.12L1170.88 1330.82L1141.25 1326.26L1124.39 1308.49L1132.6 1277.95L1124.85 1251.07L1140.8 1240.58L1150.82 1214.61L1146.27 1173.14L1150.82 1155.82L1185.46 1138.51L1186.83 1129.85L1146.72 1093.85L1118.47 1063.31L1113 1044.17L1149.46 1020.48L1183.64 980.828L1186.83 950.296L1209.16 912.016L1200.95 892.876L1208.24 867.356Z" stroke="url(#paint12_linear_5_3376)" stroke-width="2" stroke-miterlimit="12"/>
</g>
<defs>
<filter id="filter0_d_5_3376" x="2638.99" y="249.959" width="375.082" height="241.05" filterUnits="userSpaceOnUse" color-interpolation-filters="sRGB">
<feFlood flood-opacity="0" result="BackgroundImageFix"/>
<feColorMatrix in="SourceAlpha" type="matrix" values="0 0 0 0 0 0 0 0 0 0 0 0 0 0 0 0 0 0 127 0" result="hardAlpha"/>
<feOffset dy="10"/>
<feGaussianBlur stdDeviation="23"/>
<feComposite in2="hardAlpha" operator="out"/>
<feColorMatrix type="matrix" values="0 0 0 0 0 0 0 0 0 0.180392 0 0 0 0 0.427451 0 0 0 0.14 0"/>
<feBlend mode="normal" in2="BackgroundImageFix" result="effect1_dropShadow_5_3376"/>
<feBlend mode="normal" in="SourceGraphic" in2="effect1_dropShadow_5_3376" result="shape"/>
</filter>
<filter id="filter1_d_5_3376" x="997.751" y="405.978" width="714.254" height="639.264" filterUnits="userSpaceOnUse" color-interpolation-filters="sRGB">
<feFlood flood-opacity="0" result="BackgroundImageFix"/>
<feColorMatrix in="SourceAlpha" type="matrix" values="0 0 0 0 0 0 0 0 0 0 0 0 0 0 0 0 0 0 127 0" result="hardAlpha"/>
<feOffset dy="10"/>
<feGaussianBlur stdDeviation="23"/>
<feComposite in2="hardAlpha" operator="out"/>
<feColorMatrix type="matrix" values="0 0 0 0 0 0 0 0 0 0.180392 0 0 0 0 0.427451 0 0 0 0.14 0"/>
<feBlend mode="normal" in2="BackgroundImageFix" result="effect1_dropShadow_5_3376"/>
<feBlend mode="normal" in="SourceGraphic" in2="effect1_dropShadow_5_3376" result="shape"/>
</filter>
<filter id="filter2_d_5_3376" x="2788.88" y="376.706" width="294.482" height="251.445" filterUnits="userSpaceOnUse" color-interpolation-filters="sRGB">
<feFlood flood-opacity="0" result="BackgroundImageFix"/>
<feColorMatrix in="SourceAlpha" type="matrix" values="0 0 0 0 0 0 0 0 0 0 0 0 0 0 0 0 0 0 127 0" result="hardAlpha"/>
<feOffset dy="10"/>
<feGaussianBlur stdDeviation="23"/>
<feComposite in2="hardAlpha" operator="out"/>
<feColorMatrix type="matrix" values="0 0 0 0 0 0 0 0 0 0.180392 0 0 0 0 0.427451 0 0 0 0.14 0"/>
<feBlend mode="normal" in2="BackgroundImageFix" result="effect1_dropShadow_5_3376"/>
<feBlend mode="normal" in="SourceGraphic" in2="effect1_dropShadow_5_3376" result="shape"/>
</filter>
<filter id="filter3_d_5_3376" x="754.973" y="439.564" width="312.747" height="338.459" filterUnits="userSpaceOnUse" color-interpolation-filters="sRGB">
<feFlood flood-opacity="0" result="BackgroundImageFix"/>
<feColorMatrix in="SourceAlpha" type="matrix" values="0 0 0 0 0 0 0 0 0 0 0 0 0 0 0 0 0 0 127 0" result="hardAlpha"/>
<feOffset dy="10"/>
<feGaussianBlur stdDeviation="23"/>
<feComposite in2="hardAlpha" operator="out"/>
<feColorMatrix type="matrix" values="0 0 0 0 0 0 0 0 0 0.180392 0 0 0 0 0.427451 0 0 0 0.14 0"/>
<feBlend mode="normal" in2="BackgroundImageFix" result="effect1_dropShadow_5_3376"/>
<feBlend mode="normal" in="SourceGraphic" in2="effect1_dropShadow_5_3376" result="shape"/>
</filter>
<filter id="filter4_d_5_3376" x="201.909" y="0.800781" width="376.346" height="314.383" filterUnits="userSpaceOnUse" color-interpolation-filters="sRGB">
<feFlood flood-opacity="0" result="BackgroundImageFix"/>
<feColorMatrix in="SourceAlpha" type="matrix" values="0 0 0 0 0 0 0 0 0 0 0 0 0 0 0 0 0 0 127 0" result="hardAlpha"/>
<feOffset dy="10"/>
<feGaussianBlur stdDeviation="23"/>
<feComposite in2="hardAlpha" operator="out"/>
<feColorMatrix type="matrix" values="0 0 0 0 0 0 0 0 0 0.180392 0 0 0 0 0.427451 0 0 0 0.14 0"/>
<feBlend mode="normal" in2="BackgroundImageFix" result="effect1_dropShadow_5_3376"/>
<feBlend mode="normal" in="SourceGraphic" in2="effect1_dropShadow_5_3376" result="shape"/>
</filter>
<filter id="filter5_d_5_3376" x="39.8547" y="22.9531" width="286.147" height="456.159" filterUnits="userSpaceOnUse" color-interpolation-filters="sRGB">
<feFlood flood-opacity="0" result="BackgroundImageFix"/>
<feColorMatrix in="SourceAlpha" type="matrix" values="0 0 0 0 0 0 0 0 0 0 0 0 0 0 0 0 0 0 127 0" result="hardAlpha"/>
<feOffset dy="10"/>
<feGaussianBlur stdDeviation="23"/>
<feComposite in2="hardAlpha" operator="out"/>
<feColorMatrix type="matrix" values="0 0 0 0 0 0 0 0 0 0.180392 0 0 0 0 0.427451 0 0 0 0.14 0"/>
<feBlend mode="normal" in2="BackgroundImageFix" result="effect1_dropShadow_5_3376"/>
<feBlend mode="normal" in="SourceGraphic" in2="effect1_dropShadow_5_3376" result="shape"/>
</filter>
<filter id="filter6_d_5_3376" x="1997.07" y="422.632" width="680.032" height="619.811" filterUnits="userSpaceOnUse" color-interpolation-filters="sRGB">
<feFlood flood-opacity="0" result="BackgroundImageFix"/>
<feColorMatrix in="SourceAlpha" type="matrix" values="0 0 0 0 0 0 0 0 0 0 0 0 0 0 0 0 0 0 127 0" result="hardAlpha"/>
<feOffset dy="10"/>
<feGaussianBlur stdDeviation="23"/>
<feComposite in2="hardAlpha" operator="out"/>
<feColorMatrix type="matrix" values="0 0 0 0 0 0 0 0 0 0.180392 0 0 0 0 0.427451 0 0 0 0.14 0"/>
<feBlend mode="normal" in2="BackgroundImageFix" result="effect1_dropShadow_5_3376"/>
<feBlend mode="normal" in="SourceGraphic" in2="effect1_dropShadow_5_3376" result="shape"/>
</filter>
<filter id="filter7_d_5_3376" x="2522.91" y="733.656" width="506.16" height="355.395" filterUnits="userSpaceOnUse" color-interpolation-filters="sRGB">
<feFlood flood-opacity="0" result="BackgroundImageFix"/>
<feColorMatrix in="SourceAlpha" type="matrix" values="0 0 0 0 0 0 0 0 0 0 0 0 0 0 0 0 0 0 127 0" result="hardAlpha"/>
<feOffset dy="10"/>
<feGaussianBlur stdDeviation="23"/>
<feComposite in2="hardAlpha" operator="out"/>
<feColorMatrix type="matrix" values="0 0 0 0 0 0 0 0 0 0.180392 0 0 0 0 0.427451 0 0 0 0.14 0"/>
<feBlend mode="normal" in2="BackgroundImageFix" result="effect1_dropShadow_5_3376"/>
<feBlend mode="normal" in="SourceGraphic" in2="effect1_dropShadow_5_3376" result="shape"/>
</filter>
<filter id="filter8_d_5_3376" x="846.731" y="542" width="479.489" height="382.002" filterUnits="userSpaceOnUse" color-interpolation-filters="sRGB">
<feFlood flood-opacity="0" result="BackgroundImageFix"/>
<feColorMatrix in="SourceAlpha" type="matrix" values="0 0 0 0 0 0 0 0 0 0 0 0 0 0 0 0 0 0 127 0" result="hardAlpha"/>
<feOffset dy="10"/>
<feGaussianBlur stdDeviation="23"/>
<feComposite in2="hardAlpha" operator="out"/>
<feColorMatrix type="matrix" values="0 0 0 0 0 0 0 0 0 0.180392 0 0 0 0 0.427451 0 0 0 0.14 0"/>
<feBlend mode="normal" in2="BackgroundImageFix" result="effect1_dropShadow_5_3376"/>
<feBlend mode="normal" in="SourceGraphic" in2="effect1_dropShadow_5_3376" result="shape"/>
</filter>
<filter id="filter9_d_5_3376" x="1665.87" y="1010.97" width="322.341" height="374.062" filterUnits="userSpaceOnUse" color-interpolation-filters="sRGB">
<feFlood flood-opacity="0" result="BackgroundImageFix"/>
<feColorMatrix in="SourceAlpha" type="matrix" values="0 0 0 0 0 0 0 0 0 0 0 0 0 0 0 0 0 0 127 0" result="hardAlpha"/>
<feOffset dy="10"/>
<feGaussianBlur stdDeviation="23"/>
<feComposite in2="hardAlpha" operator="out"/>
<feColorMatrix type="matrix" values="0 0 0 0 0 0 0 0 0 0.180392 0 0 0 0 0.427451 0 0 0 0.14 0"/>
<feBlend mode="normal" in2="BackgroundImageFix" result="effect1_dropShadow_5_3376"/>
<feBlend mode="normal" in="SourceGraphic" in2="effect1_dropShadow_5_3376" result="shape"/>
</filter>
<filter id="filter10_d_5_3376" x="2437.97" y="1066.85" width="607.288" height="461.157" filterUnits="userSpaceOnUse" color-interpolation-filters="sRGB">
<feFlood flood-opacity="0" result="BackgroundImageFix"/>
<feColorMatrix in="SourceAlpha" type="matrix" values="0 0 0 0 0 0 0 0 0 0 0 0 0 0 0 0 0 0 127 0" result="hardAlpha"/>
<feOffset dy="10"/>
<feGaussianBlur stdDeviation="23"/>
<feComposite in2="hardAlpha" operator="out"/>
<feColorMatrix type="matrix" values="0 0 0 0 0 0 0 0 0 0.180392 0 0 0 0 0.427451 0 0 0 0.14 0"/>
<feBlend mode="normal" in2="BackgroundImageFix" result="effect1_dropShadow_5_3376"/>
<feBlend mode="normal" in="SourceGraphic" in2="effect1_dropShadow_5_3376" result="shape"/>
</filter>
<filter id="filter11_d_5_3376" x="2148.59" y="1216.98" width="427.533" height="327.254" filterUnits="userSpaceOnUse" color-interpolation-filters="sRGB">
<feFlood flood-opacity="0" result="BackgroundImageFix"/>
<feColorMatrix in="SourceAlpha" type="matrix" values="0 0 0 0 0 0 0 0 0 0 0 0 0 0 0 0 0 0 127 0" result="hardAlpha"/>
<feOffset dy="10"/>
<feGaussianBlur stdDeviation="23"/>
<feComposite in2="hardAlpha" operator="out"/>
<feColorMatrix type="matrix" values="0 0 0 0 0 0 0 0 0 0.180392 0 0 0 0 0.427451 0 0 0 0.14 0"/>
<feBlend mode="normal" in2="BackgroundImageFix" result="effect1_dropShadow_5_3376"/>
<feBlend mode="normal" in="SourceGraphic" in2="effect1_dropShadow_5_3376" result="shape"/>
</filter>
<filter id="filter12_d_5_3376" x="1065.84" y="798" width="768.258" height="769.125" filterUnits="userSpaceOnUse" color-interpolation-filters="sRGB">
<feFlood flood-opacity="0" result="BackgroundImageFix"/>
<feColorMatrix in="SourceAlpha" type="matrix" values="0 0 0 0 0 0 0 0 0 0 0 0 0 0 0 0 0 0 127 0" result="hardAlpha"/>
<feOffset dy="10"/>
<feGaussianBlur stdDeviation="23"/>
<feComposite in2="hardAlpha" operator="out"/>
<feColorMatrix type="matrix" values="0 0 0 0 0 0 0 0 0 0.180392 0 0 0 0 0.427451 0 0 0 0.14 0"/>
<feBlend mode="normal" in2="BackgroundImageFix" result="effect1_dropShadow_5_3376"/>
<feBlend mode="normal" in="SourceGraphic" in2="effect1_dropShadow_5_3376" result="shape"/>
</filter>
<linearGradient id="paint0_linear_5_3376" x1="2707.18" y1="312.203" x2="2871.8" y2="504.016" gradientUnits="userSpaceOnUse">
<stop stop-color="#002E6D"/>
<stop offset="1" stop-color="#3F873F"/>
</linearGradient>
<linearGradient id="paint1_linear_5_3376" x1="1091.73" y1="536.439" x2="1670" y2="937.44" gradientUnits="userSpaceOnUse">
<stop stop-color="#002E6D"/>
<stop offset="1" stop-color="#3F873F"/>
</linearGradient>
<linearGradient id="paint2_linear_5_3376" x1="2851.07" y1="440.917" x2="3023.41" y2="574.734" gradientUnits="userSpaceOnUse">
<stop stop-color="#002E6D"/>
<stop offset="1" stop-color="#3F873F"/>
</linearGradient>
<linearGradient id="paint3_linear_5_3376" x1="818.43" y1="518.833" x2="1050.66" y2="645.304" gradientUnits="userSpaceOnUse">
<stop stop-color="#002E6D"/>
<stop offset="1" stop-color="#3F873F"/>
</linearGradient>
<linearGradient id="paint4_linear_5_3376" x1="270.253" y1="75.7185" x2="512.105" y2="264.687" gradientUnits="userSpaceOnUse">
<stop stop-color="#002E6D"/>
<stop offset="1" stop-color="#3F873F"/>
</linearGradient>
<linearGradient id="paint5_linear_5_3376" x1="101.47" y1="122.064" x2="341.566" y2="199.687" gradientUnits="userSpaceOnUse">
<stop stop-color="#002E6D"/>
<stop offset="1" stop-color="#3F873F"/>
</linearGradient>
<linearGradient id="paint6_linear_5_3376" x1="2089.09" y1="550.01" x2="2642.01" y2="925.565" gradientUnits="userSpaceOnUse">
<stop stop-color="#002E6D"/>
<stop offset="1" stop-color="#3F873F"/>
</linearGradient>
<linearGradient id="paint7_linear_5_3376" x1="2601.05" y1="815.748" x2="2896.53" y2="1100.07" gradientUnits="userSpaceOnUse">
<stop stop-color="#002E6D"/>
<stop offset="1" stop-color="#3F873F"/>
</linearGradient>
<linearGradient id="paint8_linear_5_3376" x1="923.016" y1="628.377" x2="1242.59" y2="888.782" gradientUnits="userSpaceOnUse">
<stop stop-color="#002E6D"/>
<stop offset="1" stop-color="#3F873F"/>
</linearGradient>
<linearGradient id="paint9_linear_5_3376" x1="1730.18" y1="1096.01" x2="1982.85" y2="1221.42" gradientUnits="userSpaceOnUse">
<stop stop-color="#002E6D"/>
<stop offset="1" stop-color="#3F873F"/>
</linearGradient>
<linearGradient id="paint10_linear_5_3376" x1="2523.59" y1="1166.92" x2="2933.98" y2="1515.92" gradientUnits="userSpaceOnUse">
<stop stop-color="#002E6D"/>
<stop offset="1" stop-color="#3F873F"/>
</linearGradient>
<linearGradient id="paint11_linear_5_3376" x1="2221.1" y1="1293.95" x2="2482.59" y2="1521.75" gradientUnits="userSpaceOnUse">
<stop stop-color="#002E6D"/>
<stop offset="1" stop-color="#3F873F"/>
</linearGradient>
<linearGradient id="paint12_linear_5_3376" x1="1163.8" y1="950.556" x2="1842.54" y2="1364.29" gradientUnits="userSpaceOnUse">
<stop stop-color="#002E6D"/>
<stop offset="1" stop-color="#3F873F"/>
</linearGradient>
</defs>
</svg>
