<svg width="93" height="81" viewBox="0 0 93 81" fill="none" xmlns="http://www.w3.org/2000/svg">
<path fill-rule="evenodd" clip-rule="evenodd" d="M0.0644531 19.8845V79.4062C0.0644531 79.8536 0.488828 80.2168 1.01172 80.2168H70.5733C71.0961 80.2168 71.5205 79.8536 71.5205 79.4062V49.6445C71.5205 49.1971 71.0961 48.834 70.5733 48.834H60.6004C60.0321 47.589 60.0396 46.1819 59.9904 44.6191C59.9828 41.4094 56.9345 38.8059 53.1833 38.8059C49.4284 38.8059 46.3801 41.4126 46.3763 44.624C46.3252 46.1819 46.3327 47.589 45.7644 48.834H36.7388V40.5924C36.7388 40.5778 36.7388 40.5616 36.7388 40.547C36.7293 40.4124 36.6839 40.2876 36.61 40.1774H36.6081L36.6062 40.1741L36.6024 40.1676L36.5986 40.1644L36.5967 40.1595L36.591 40.1531V40.1514L36.5891 40.1498C36.5096 40.0428 36.3997 39.952 36.2633 39.8839C36.2462 39.8758 36.2311 39.8694 36.2121 39.8613C34.3934 39.0718 32.3132 39.0248 29.9583 38.968C29.9507 38.968 29.9412 38.968 29.9318 38.968C27.2207 38.968 25.0193 37.0843 25.0193 34.7645C25.0193 32.4448 27.2207 30.561 29.9318 30.561C29.9412 30.561 29.9507 30.561 29.9583 30.561C32.3132 30.5043 34.3934 30.4573 36.2121 29.6678C36.2311 29.6613 36.2462 29.6532 36.2633 29.6451C36.3997 29.5787 36.5096 29.4862 36.5891 29.3792H36.591V29.376L36.5967 29.3695L36.5986 29.3663L36.6024 29.363L36.6062 29.3549L36.6081 29.3533L36.61 29.3517C36.6839 29.2431 36.7293 29.1166 36.7388 28.9837C36.7388 28.9675 36.7388 28.9529 36.7388 28.9367V19.8845C36.7388 19.4371 36.3144 19.074 35.7915 19.074H1.01172C0.488828 19.074 0.0644531 19.4371 0.0644531 19.8845ZM34.8443 58.6984V50.4551H25.8187C25.2504 51.7017 25.2599 53.1088 25.2087 54.6667C25.2049 57.8781 22.1566 60.4848 18.4016 60.4848C14.6486 60.4848 11.6022 57.8813 11.5946 54.6715C11.5434 53.1088 11.5529 51.7017 10.9846 50.4551H1.95898V78.5957H34.8443V70.354C34.8443 70.3378 34.8462 70.3232 34.8462 70.307C34.8537 70.1741 34.8992 70.0476 34.975 69.939V69.9374L34.9769 69.9358L34.9826 69.9277L34.9845 69.9244L34.9883 69.9212L34.9921 69.9147L34.994 69.9114H34.9958C35.0754 69.8045 35.1853 69.7121 35.3198 69.6456C35.3369 69.6375 35.3539 69.6294 35.371 69.6229C37.1916 68.8334 39.2699 68.7864 41.6248 68.7297C41.6343 68.7297 41.6437 68.7297 41.6513 68.7297C44.3624 68.7297 46.5639 66.846 46.5639 64.5262C46.5639 62.2064 44.3624 60.3227 41.6513 60.3227C41.6437 60.3227 41.6343 60.3227 41.6248 60.3227C39.2699 60.266 37.1916 60.2173 35.371 59.4295L35.3615 59.4246C35.3539 59.4214 35.3482 59.4181 35.3407 59.4149L35.3198 59.4052C35.1853 59.3387 35.0754 59.2479 34.9958 59.1409L34.994 59.1393L34.9921 59.1377L34.9883 59.1312L34.9845 59.1263L34.9826 59.1231L34.9769 59.1166L34.975 59.1134C34.9523 59.0793 34.9314 59.0453 34.9144 59.0096C34.8954 58.9691 34.8803 58.9285 34.8689 58.8864L34.8632 58.867C34.8613 58.8572 34.8594 58.8491 34.8575 58.841L34.8557 58.8264L34.8519 58.807V58.7973C34.8481 58.7794 34.8462 58.7616 34.8462 58.7437C34.8443 58.7292 34.8443 58.7129 34.8443 58.6984ZM59.9942 50.4551C59.9752 50.4551 59.9563 50.4551 59.9392 50.4551C59.782 50.4486 59.6361 50.4081 59.5092 50.3449L59.5073 50.3432H59.5054L59.4959 50.3384L59.4921 50.3367L59.4884 50.3335L59.4789 50.3286H59.477L59.4751 50.327C59.3519 50.259 59.244 50.1649 59.1663 50.0482C59.1568 50.0352 59.1473 50.0206 59.1397 50.006C58.2171 48.4482 58.1622 46.6682 58.0959 44.6532C58.0959 44.6467 58.0959 44.6386 58.0959 44.6305C58.0959 42.3107 55.8944 40.427 53.1833 40.427C50.4704 40.427 48.2708 42.3107 48.2708 44.6305C48.2708 44.6386 48.2708 44.6467 48.2689 44.6532C48.2026 46.6682 48.1477 48.4482 47.2269 50.006C47.2175 50.0206 47.208 50.0352 47.1985 50.0482C47.1208 50.1649 47.0148 50.259 46.8897 50.327L46.8878 50.3286H46.8859L46.8764 50.3335L46.8727 50.3367L46.8689 50.3384L46.8594 50.3432H46.8575L46.8556 50.3449C46.7287 50.4081 46.5828 50.4486 46.4256 50.4551C46.4085 50.4551 46.3896 50.4551 46.3725 50.4551H36.7388V58.178C38.1957 58.6659 39.8401 58.6578 41.6589 58.7016C45.412 58.7048 48.4584 61.3132 48.4584 64.5262C48.4584 67.7359 45.4158 70.3443 41.6665 70.3508C39.8402 70.3945 38.1957 70.3865 36.7388 70.8728V78.5957H69.626V50.4551H59.9942ZM34.8443 28.4179V20.6951H1.95898V48.834H11.5908C11.6097 48.834 11.6268 48.8356 11.6457 48.8356C11.6533 48.8356 11.6609 48.8372 11.6704 48.8372C11.8162 48.847 11.9546 48.8843 12.0758 48.9459L12.0796 48.9475L12.0872 48.9523L12.0928 48.9539L12.0966 48.9572L12.1042 48.9604L12.108 48.9621V48.9637C12.233 49.0318 12.3411 49.1258 12.4187 49.2425C12.4282 49.2555 12.4377 49.2701 12.4452 49.2847C13.3679 50.8425 13.4228 52.6225 13.4891 54.6359C13.4891 54.644 13.4891 54.6521 13.4891 54.6602C13.4891 56.98 15.6906 58.8637 18.4016 58.8637C21.1127 58.8637 23.3142 56.98 23.3142 54.6602C23.3142 54.6521 23.3142 54.644 23.3142 54.6359C23.3805 52.6225 23.4354 50.8425 24.358 49.2847C24.3656 49.2701 24.3751 49.2555 24.3846 49.2425C24.4622 49.1258 24.5702 49.0318 24.6953 48.9637V48.9621L24.6991 48.9604L24.7066 48.9572L24.7104 48.9539L24.7161 48.9523L24.7237 48.9475L24.7275 48.9459C24.8563 48.881 25.0022 48.8421 25.1595 48.8356C25.1765 48.8356 25.1954 48.834 25.2125 48.834H34.8443V41.1111C33.3893 40.6248 31.7448 40.6329 29.9242 40.5891C26.1711 40.5859 23.1247 37.9775 23.1247 34.7645C23.1247 31.5548 26.1673 28.9464 29.9185 28.9399C31.7448 28.8962 33.3893 28.9043 34.8443 28.4179ZM55.9512 8.63897C54.4015 8.45255 52.973 7.75711 51.3551 7.03086C48.0813 5.46488 43.9361 6.4651 42.1003 9.26473C40.2626 12.066 41.4259 15.6162 44.6977 17.1919C46.2607 17.9927 47.6987 18.6735 48.6895 19.7078L43.8073 27.1486C43.5516 27.5393 43.7145 28.0337 44.171 28.2526L53.3955 32.683C53.4126 32.6911 53.4277 32.6992 53.4429 32.7057C53.5831 32.7657 53.7346 32.7916 53.8824 32.79H53.8843H53.8862H53.8957L53.9014 32.7884H53.9071H53.9165H53.9184H53.9203C54.0681 32.7819 54.2158 32.7446 54.3504 32.6749C54.3674 32.6668 54.3826 32.6587 54.3996 32.649C56.0933 31.6764 57.1599 30.1476 58.3706 28.4196C58.3743 28.4131 58.3781 28.4066 58.3838 28.4001C59.71 26.377 62.7072 25.6556 65.0715 26.792C67.4359 27.9267 68.2771 30.4913 66.9509 32.5144C66.9471 32.5209 66.9414 32.5274 66.9376 32.5339C65.8426 34.3187 64.8745 35.8944 64.7874 37.6387C64.7855 37.655 64.7855 37.6711 64.7855 37.6873C64.7873 37.8219 64.8271 37.9483 64.8972 38.0602L64.8991 38.0634L64.9029 38.0699L64.9067 38.0748L64.9086 38.078L64.9124 38.0862L64.9143 38.0878L64.9162 38.0894C64.9901 38.198 65.0962 38.2937 65.2288 38.365C65.2421 38.3731 65.2591 38.3812 65.2743 38.3893L74.5006 42.8197C74.9553 43.0386 75.5331 42.8992 75.7889 42.5101L92.8131 16.558C93.0708 16.1673 92.9079 15.6729 92.4513 15.4541L62.1217 0.88689C61.6651 0.668042 61.0873 0.80586 60.8315 1.19654L55.9512 8.63897ZM57.3059 9.88396C57.2964 9.89855 57.2869 9.91152 57.2774 9.92449C57.194 10.038 57.0823 10.1271 56.9553 10.192H56.9534L56.9515 10.1936L56.9421 10.1985L56.9383 10.2001L56.9345 10.2017L56.925 10.2066H56.9231L56.9213 10.2082C56.7905 10.2682 56.6427 10.3022 56.4855 10.3022C56.4666 10.3022 56.4476 10.3022 56.4287 10.3022C54.3901 10.2276 52.5487 9.39767 50.4647 8.46067C50.4571 8.45743 50.4476 8.45418 50.4401 8.44932C48.0757 7.31455 45.0785 8.03592 43.7524 10.0574C42.4243 12.0806 43.2673 14.6451 45.6317 15.7815C45.6393 15.7848 45.6469 15.788 45.6545 15.7929C47.6759 16.8288 49.4625 17.7398 50.5973 19.1907C50.6087 19.2037 50.6182 19.2182 50.6295 19.2312C50.7091 19.3463 50.7527 19.4728 50.7602 19.5992V19.6008V19.6041L50.7621 19.6121V19.6154V19.6203V19.6284V19.6316V19.6332C50.7659 19.7597 50.7337 19.8878 50.6636 20.0077C50.656 20.0223 50.6466 20.0353 50.639 20.0482L45.9235 27.2362L53.7934 31.0166C55.0021 30.1671 55.7997 28.9367 56.7356 27.6009C58.5752 24.8013 62.7242 23.8059 65.9979 25.3784C69.2717 26.9492 70.4387 30.4962 68.6105 33.2974C67.7599 34.6819 66.9471 35.9042 66.7311 37.2286L74.601 41.009L90.6989 16.4705L62.0213 2.69768L57.3059 9.88396Z" fill="white"/>
</svg>
