<svg width="193" height="193" viewBox="0 0 193 193" fill="none" xmlns="http://www.w3.org/2000/svg">
<path d="M166.997 160.925C164.499 162.068 162.15 162.003 159.956 160.49C156.348 158.005 152.782 155.466 149.207 152.939C141.288 147.343 133.376 141.745 125.46 136.146C119.671 132.051 113.882 127.956 108.096 123.858C105.35 121.912 103.24 119.415 102.13 116.239C101.545 114.564 101.3 112.745 101.116 110.966C100.955 109.424 101.074 107.849 101.116 106.291C101.132 105.752 100.955 105.394 100.552 105.052C99.6738 104.3 98.8639 103.467 97.9668 102.741C97.6796 102.509 97.1859 102.357 96.8245 102.412C94.7883 102.715 92.978 102.267 91.4194 100.921C90.9999 100.556 90.603 100.485 90.0964 100.676C80.9481 104.074 71.7998 107.472 62.6483 110.857C53.7679 114.142 44.881 117.404 36.0005 120.689C27.9946 123.648 19.9951 126.623 11.9924 129.592C10.2305 130.244 8.46858 130.899 6.70347 131.544C6.50985 131.615 6.29688 131.635 6 131.699C6.1194 129.373 6.77446 127.353 8.75255 126.101C10.9275 124.723 13.2025 123.5 15.4581 122.257C31.8798 113.216 48.308 104.187 64.7361 95.1547C67.6952 93.5283 70.8447 92.6603 74.2426 92.8442C76.6789 92.9765 78.8958 93.8574 81.0546 94.903C82.0679 95.3934 83.0488 95.9549 84.0685 96.4357C84.317 96.5519 84.6881 96.5713 84.9495 96.4809C86.1402 96.0614 87.3277 95.6258 88.4797 95.1127C88.8185 94.961 89.1832 94.5899 89.2929 94.2447C90.048 91.8632 91.5098 90.2465 93.9719 89.5753C94.2075 89.5108 94.4882 89.1817 94.5431 88.93C95.8758 82.7569 97.1762 76.5741 98.4896 70.3978C99.5222 65.5349 100.568 60.6752 101.597 55.8122C102.514 51.4753 103.411 47.1383 104.33 42.8013C105.143 38.9678 105.986 35.1407 106.796 31.3071C107.606 27.4768 108.38 23.64 109.19 19.8096C109.893 16.4795 110.639 13.1558 111.342 9.82236C111.936 7.01495 112.501 4.20109 113.078 1.39368C113.101 1.29042 113.146 1.19361 113.211 1C114.647 2.00034 115.779 3.19107 116.228 4.85938C116.473 5.77582 116.605 6.76325 116.567 7.70874C116.454 10.3645 116.205 13.017 116.044 15.6695C115.786 19.9355 115.57 24.2047 115.315 28.4706C114.931 34.8567 114.527 41.2427 114.14 47.6288C113.882 51.8689 113.633 56.1091 113.375 60.3493C113.153 64.0537 113.04 67.7679 112.669 71.4563C112.114 76.9807 109.367 81.1854 104.553 84.0025C103.533 84.5994 102.497 85.1706 101.497 85.7934C101.226 85.9644 100.916 86.2548 100.852 86.542C100.552 87.8489 100.297 89.1687 100.109 90.4982C100.061 90.8338 100.219 91.292 100.445 91.5534C102.052 93.4154 102.446 95.5225 101.9 97.8814C101.833 98.1783 102.046 98.6526 102.281 98.8882C104.101 100.679 105.96 102.428 107.802 104.196C114.666 110.779 121.52 117.372 128.387 123.945C135.473 130.728 142.572 137.492 149.665 144.265C155.202 149.554 160.733 154.849 166.264 160.145C166.51 160.38 166.729 160.638 167 160.925H166.997Z" fill="url(#paint0_radial_8_3435)"/>
<defs>
<radialGradient id="paint0_radial_8_3435" cx="0" cy="0" r="1" gradientUnits="userSpaceOnUse" gradientTransform="translate(86.5 81.3562) rotate(90) scale(80.3562 80.5)">
<stop stop-color="white"/>
<stop offset="1" stop-color="#EEF0F2"/>
</radialGradient>
</defs>
</svg>
