<svg width="260" height="151" viewBox="0 0 260 151" fill="none" xmlns="http://www.w3.org/2000/svg">
<path d="M45 150.181L43.6896 31.1813H40.3052L39 150.181H45Z" fill="url(#paint0_linear_201_661)"/>
<path d="M83 0.181274H0V137.181H83V0.181274Z" fill="white"/>
<path d="M27 3.18127H3V22.1813H27V3.18127Z" fill="url(#paint1_linear_201_661)"/>
<path d="M53 3.18127H30V22.1813H53V3.18127Z" fill="url(#paint2_linear_201_661)"/>
<path d="M79 3.18127H56V22.1813H79V3.18127Z" fill="url(#paint3_linear_201_661)"/>
<path d="M27 26.1813H3V45.1813H27V26.1813Z" fill="url(#paint4_linear_201_661)"/>
<path d="M53 26.1813H30V45.1813H53V26.1813Z" fill="url(#paint5_linear_201_661)"/>
<path d="M79 26.1813H56V45.1813H79V26.1813Z" fill="url(#paint6_linear_201_661)"/>
<path d="M27 48.1813H3V67.1813H27V48.1813Z" fill="url(#paint7_linear_201_661)"/>
<path d="M53 48.1813H30V67.1813H53V48.1813Z" fill="url(#paint8_linear_201_661)"/>
<path d="M79 48.1813H56V67.1813H79V48.1813Z" fill="url(#paint9_linear_201_661)"/>
<path d="M27 70.1813H3V89.1813H27V70.1813Z" fill="url(#paint10_linear_201_661)"/>
<path d="M53 70.1813H30V89.1813H53V70.1813Z" fill="url(#paint11_linear_201_661)"/>
<path d="M79 70.1813H56V89.1813H79V70.1813Z" fill="url(#paint12_linear_201_661)"/>
<path d="M27 93.1813H3V112.181H27V93.1813Z" fill="url(#paint13_linear_201_661)"/>
<path d="M53 93.1813H30V112.181H53V93.1813Z" fill="url(#paint14_linear_201_661)"/>
<path d="M79 93.1813H56V112.181H79V93.1813Z" fill="url(#paint15_linear_201_661)"/>
<path d="M27 115.181H3V134.181H27V115.181Z" fill="url(#paint16_linear_201_661)"/>
<path d="M53 115.181H30V134.181H53V115.181Z" fill="url(#paint17_linear_201_661)"/>
<path d="M79 115.181H56V134.181H79V115.181Z" fill="url(#paint18_linear_201_661)"/>
<path d="M134 150.181L132.69 31.1813H129.305L128 150.181H134Z" fill="url(#paint19_linear_201_661)"/>
<path d="M172 0.181274H89V137.181H172V0.181274Z" fill="white"/>
<path d="M116 3.18127H92V22.1813H116V3.18127Z" fill="url(#paint20_linear_201_661)"/>
<path d="M142 3.18127H119V22.1813H142V3.18127Z" fill="url(#paint21_linear_201_661)"/>
<path d="M168 3.18127H145V22.1813H168V3.18127Z" fill="url(#paint22_linear_201_661)"/>
<path d="M116 26.1813H92V45.1813H116V26.1813Z" fill="url(#paint23_linear_201_661)"/>
<path d="M142 26.1813H119V45.1813H142V26.1813Z" fill="url(#paint24_linear_201_661)"/>
<path d="M168 26.1813H145V45.1813H168V26.1813Z" fill="url(#paint25_linear_201_661)"/>
<path d="M116 48.1813H92V67.1813H116V48.1813Z" fill="url(#paint26_linear_201_661)"/>
<path d="M142 48.1813H119V67.1813H142V48.1813Z" fill="url(#paint27_linear_201_661)"/>
<path d="M168 48.1813H145V67.1813H168V48.1813Z" fill="url(#paint28_linear_201_661)"/>
<path d="M116 70.1813H92V89.1813H116V70.1813Z" fill="url(#paint29_linear_201_661)"/>
<path d="M142 70.1813H119V89.1813H142V70.1813Z" fill="url(#paint30_linear_201_661)"/>
<path d="M168 70.1813H145V89.1813H168V70.1813Z" fill="url(#paint31_linear_201_661)"/>
<path d="M116 93.1813H92V112.181H116V93.1813Z" fill="url(#paint32_linear_201_661)"/>
<path d="M142 93.1813H119V112.181H142V93.1813Z" fill="url(#paint33_linear_201_661)"/>
<path d="M168 93.1813H145V112.181H168V93.1813Z" fill="url(#paint34_linear_201_661)"/>
<path d="M116 115.181H92V134.181H116V115.181Z" fill="url(#paint35_linear_201_661)"/>
<path d="M142 115.181H119V134.181H142V115.181Z" fill="url(#paint36_linear_201_661)"/>
<path d="M168 115.181H145V134.181H168V115.181Z" fill="url(#paint37_linear_201_661)"/>
<path d="M222 150.181L220.69 31.1813H217.305L216 150.181H222Z" fill="url(#paint38_linear_201_661)"/>
<path d="M260 0.181274H177V137.181H260V0.181274Z" fill="white"/>
<path d="M204 3.18127H180V22.1813H204V3.18127Z" fill="url(#paint39_linear_201_661)"/>
<path d="M230 3.18127H207V22.1813H230V3.18127Z" fill="url(#paint40_linear_201_661)"/>
<path d="M256 3.18127H233V22.1813H256V3.18127Z" fill="url(#paint41_linear_201_661)"/>
<path d="M204 26.1813H180V45.1813H204V26.1813Z" fill="url(#paint42_linear_201_661)"/>
<path d="M230 26.1813H207V45.1813H230V26.1813Z" fill="url(#paint43_linear_201_661)"/>
<path d="M256 26.1813H233V45.1813H256V26.1813Z" fill="url(#paint44_linear_201_661)"/>
<path d="M204 48.1813H180V67.1813H204V48.1813Z" fill="url(#paint45_linear_201_661)"/>
<path d="M230 48.1813H207V67.1813H230V48.1813Z" fill="url(#paint46_linear_201_661)"/>
<path d="M256 48.1813H233V67.1813H256V48.1813Z" fill="url(#paint47_linear_201_661)"/>
<path d="M204 70.1813H180V89.1813H204V70.1813Z" fill="url(#paint48_linear_201_661)"/>
<path d="M230 70.1813H207V89.1813H230V70.1813Z" fill="url(#paint49_linear_201_661)"/>
<path d="M256 70.1813H233V89.1813H256V70.1813Z" fill="url(#paint50_linear_201_661)"/>
<path d="M204 93.1813H180V112.181H204V93.1813Z" fill="url(#paint51_linear_201_661)"/>
<path d="M230 93.1813H207V112.181H230V93.1813Z" fill="url(#paint52_linear_201_661)"/>
<path d="M256 93.1813H233V112.181H256V93.1813Z" fill="url(#paint53_linear_201_661)"/>
<path d="M204 115.181H180V134.181H204V115.181Z" fill="url(#paint54_linear_201_661)"/>
<path d="M230 115.181H207V134.181H230V115.181Z" fill="url(#paint55_linear_201_661)"/>
<path d="M256 115.181H233V134.181H256V115.181Z" fill="url(#paint56_linear_201_661)"/>
<defs>
<linearGradient id="paint0_linear_201_661" x1="42" y1="136.181" x2="42" y2="150.181" gradientUnits="userSpaceOnUse">
<stop stop-color="#AAB2BD"/>
<stop offset="1" stop-color="#E4E8EB"/>
</linearGradient>
<linearGradient id="paint1_linear_201_661" x1="15" y1="3.18127" x2="15" y2="22.1813" gradientUnits="userSpaceOnUse">
<stop stop-color="#E8EAED"/>
<stop offset="1" stop-color="#E4E8EB"/>
</linearGradient>
<linearGradient id="paint2_linear_201_661" x1="41.5" y1="3.18127" x2="41.5" y2="22.1813" gradientUnits="userSpaceOnUse">
<stop stop-color="#E8EAED"/>
<stop offset="1" stop-color="#E4E8EB"/>
</linearGradient>
<linearGradient id="paint3_linear_201_661" x1="67.5" y1="3.18127" x2="67.5" y2="22.1813" gradientUnits="userSpaceOnUse">
<stop stop-color="#E8EAED"/>
<stop offset="1" stop-color="#E4E8EB"/>
</linearGradient>
<linearGradient id="paint4_linear_201_661" x1="15" y1="26.1813" x2="15" y2="45.1813" gradientUnits="userSpaceOnUse">
<stop stop-color="#E8EAED"/>
<stop offset="1" stop-color="#E4E8EB"/>
</linearGradient>
<linearGradient id="paint5_linear_201_661" x1="41.5" y1="26.1813" x2="41.5" y2="45.1813" gradientUnits="userSpaceOnUse">
<stop stop-color="#E8EAED"/>
<stop offset="1" stop-color="#E4E8EB"/>
</linearGradient>
<linearGradient id="paint6_linear_201_661" x1="67.5" y1="26.1813" x2="67.5" y2="45.1813" gradientUnits="userSpaceOnUse">
<stop stop-color="#E8EAED"/>
<stop offset="1" stop-color="#E4E8EB"/>
</linearGradient>
<linearGradient id="paint7_linear_201_661" x1="15" y1="48.1813" x2="15" y2="67.1813" gradientUnits="userSpaceOnUse">
<stop stop-color="#E8EAED"/>
<stop offset="1" stop-color="#E4E8EB"/>
</linearGradient>
<linearGradient id="paint8_linear_201_661" x1="41.5" y1="48.1813" x2="41.5" y2="67.1813" gradientUnits="userSpaceOnUse">
<stop stop-color="#E8EAED"/>
<stop offset="1" stop-color="#E4E8EB"/>
</linearGradient>
<linearGradient id="paint9_linear_201_661" x1="67.5" y1="48.1813" x2="67.5" y2="67.1813" gradientUnits="userSpaceOnUse">
<stop stop-color="#E8EAED"/>
<stop offset="1" stop-color="#E4E8EB"/>
</linearGradient>
<linearGradient id="paint10_linear_201_661" x1="15" y1="70.1813" x2="15" y2="89.1813" gradientUnits="userSpaceOnUse">
<stop stop-color="#E8EAED"/>
<stop offset="1" stop-color="#E4E8EB"/>
</linearGradient>
<linearGradient id="paint11_linear_201_661" x1="41.5" y1="70.1813" x2="41.5" y2="89.1813" gradientUnits="userSpaceOnUse">
<stop stop-color="#E8EAED"/>
<stop offset="1" stop-color="#E4E8EB"/>
</linearGradient>
<linearGradient id="paint12_linear_201_661" x1="67.5" y1="70.1813" x2="67.5" y2="89.1813" gradientUnits="userSpaceOnUse">
<stop stop-color="#E8EAED"/>
<stop offset="1" stop-color="#E4E8EB"/>
</linearGradient>
<linearGradient id="paint13_linear_201_661" x1="15" y1="93.1813" x2="15" y2="112.181" gradientUnits="userSpaceOnUse">
<stop stop-color="#E8EAED"/>
<stop offset="1" stop-color="#E4E8EB"/>
</linearGradient>
<linearGradient id="paint14_linear_201_661" x1="41.5" y1="93.1813" x2="41.5" y2="112.181" gradientUnits="userSpaceOnUse">
<stop stop-color="#E8EAED"/>
<stop offset="1" stop-color="#E4E8EB"/>
</linearGradient>
<linearGradient id="paint15_linear_201_661" x1="67.5" y1="93.1813" x2="67.5" y2="112.181" gradientUnits="userSpaceOnUse">
<stop stop-color="#E8EAED"/>
<stop offset="1" stop-color="#E4E8EB"/>
</linearGradient>
<linearGradient id="paint16_linear_201_661" x1="15" y1="115.181" x2="15" y2="134.181" gradientUnits="userSpaceOnUse">
<stop stop-color="#E8EAED"/>
<stop offset="1" stop-color="#E4E8EB"/>
</linearGradient>
<linearGradient id="paint17_linear_201_661" x1="41.5" y1="115.181" x2="41.5" y2="134.181" gradientUnits="userSpaceOnUse">
<stop stop-color="#E8EAED"/>
<stop offset="1" stop-color="#E4E8EB"/>
</linearGradient>
<linearGradient id="paint18_linear_201_661" x1="67.5" y1="115.181" x2="67.5" y2="134.181" gradientUnits="userSpaceOnUse">
<stop stop-color="#E8EAED"/>
<stop offset="1" stop-color="#E4E8EB"/>
</linearGradient>
<linearGradient id="paint19_linear_201_661" x1="131" y1="136.181" x2="131" y2="150.181" gradientUnits="userSpaceOnUse">
<stop stop-color="#AAB2BD"/>
<stop offset="1" stop-color="#E4E8EB"/>
</linearGradient>
<linearGradient id="paint20_linear_201_661" x1="104" y1="3.18127" x2="104" y2="22.1813" gradientUnits="userSpaceOnUse">
<stop stop-color="#E8EAED"/>
<stop offset="1" stop-color="#E4E8EB"/>
</linearGradient>
<linearGradient id="paint21_linear_201_661" x1="130.5" y1="3.18127" x2="130.5" y2="22.1813" gradientUnits="userSpaceOnUse">
<stop stop-color="#E8EAED"/>
<stop offset="1" stop-color="#E4E8EB"/>
</linearGradient>
<linearGradient id="paint22_linear_201_661" x1="156.5" y1="3.18127" x2="156.5" y2="22.1813" gradientUnits="userSpaceOnUse">
<stop stop-color="#E8EAED"/>
<stop offset="1" stop-color="#E4E8EB"/>
</linearGradient>
<linearGradient id="paint23_linear_201_661" x1="104" y1="26.1813" x2="104" y2="45.1813" gradientUnits="userSpaceOnUse">
<stop stop-color="#E8EAED"/>
<stop offset="1" stop-color="#E4E8EB"/>
</linearGradient>
<linearGradient id="paint24_linear_201_661" x1="130.5" y1="26.1813" x2="130.5" y2="45.1813" gradientUnits="userSpaceOnUse">
<stop stop-color="#E8EAED"/>
<stop offset="1" stop-color="#E4E8EB"/>
</linearGradient>
<linearGradient id="paint25_linear_201_661" x1="156.5" y1="26.1813" x2="156.5" y2="45.1813" gradientUnits="userSpaceOnUse">
<stop stop-color="#E8EAED"/>
<stop offset="1" stop-color="#E4E8EB"/>
</linearGradient>
<linearGradient id="paint26_linear_201_661" x1="104" y1="48.1813" x2="104" y2="67.1813" gradientUnits="userSpaceOnUse">
<stop stop-color="#E8EAED"/>
<stop offset="1" stop-color="#E4E8EB"/>
</linearGradient>
<linearGradient id="paint27_linear_201_661" x1="130.5" y1="48.1813" x2="130.5" y2="67.1813" gradientUnits="userSpaceOnUse">
<stop stop-color="#E8EAED"/>
<stop offset="1" stop-color="#E4E8EB"/>
</linearGradient>
<linearGradient id="paint28_linear_201_661" x1="156.5" y1="48.1813" x2="156.5" y2="67.1813" gradientUnits="userSpaceOnUse">
<stop stop-color="#E8EAED"/>
<stop offset="1" stop-color="#E4E8EB"/>
</linearGradient>
<linearGradient id="paint29_linear_201_661" x1="104" y1="70.1813" x2="104" y2="89.1813" gradientUnits="userSpaceOnUse">
<stop stop-color="#E8EAED"/>
<stop offset="1" stop-color="#E4E8EB"/>
</linearGradient>
<linearGradient id="paint30_linear_201_661" x1="130.5" y1="70.1813" x2="130.5" y2="89.1813" gradientUnits="userSpaceOnUse">
<stop stop-color="#E8EAED"/>
<stop offset="1" stop-color="#E4E8EB"/>
</linearGradient>
<linearGradient id="paint31_linear_201_661" x1="156.5" y1="70.1813" x2="156.5" y2="89.1813" gradientUnits="userSpaceOnUse">
<stop stop-color="#E8EAED"/>
<stop offset="1" stop-color="#E4E8EB"/>
</linearGradient>
<linearGradient id="paint32_linear_201_661" x1="104" y1="93.1813" x2="104" y2="112.181" gradientUnits="userSpaceOnUse">
<stop stop-color="#E8EAED"/>
<stop offset="1" stop-color="#E4E8EB"/>
</linearGradient>
<linearGradient id="paint33_linear_201_661" x1="130.5" y1="93.1813" x2="130.5" y2="112.181" gradientUnits="userSpaceOnUse">
<stop stop-color="#E8EAED"/>
<stop offset="1" stop-color="#E4E8EB"/>
</linearGradient>
<linearGradient id="paint34_linear_201_661" x1="156.5" y1="93.1813" x2="156.5" y2="112.181" gradientUnits="userSpaceOnUse">
<stop stop-color="#E8EAED"/>
<stop offset="1" stop-color="#E4E8EB"/>
</linearGradient>
<linearGradient id="paint35_linear_201_661" x1="104" y1="115.181" x2="104" y2="134.181" gradientUnits="userSpaceOnUse">
<stop stop-color="#E8EAED"/>
<stop offset="1" stop-color="#E4E8EB"/>
</linearGradient>
<linearGradient id="paint36_linear_201_661" x1="130.5" y1="115.181" x2="130.5" y2="134.181" gradientUnits="userSpaceOnUse">
<stop stop-color="#E8EAED"/>
<stop offset="1" stop-color="#E4E8EB"/>
</linearGradient>
<linearGradient id="paint37_linear_201_661" x1="156.5" y1="115.181" x2="156.5" y2="134.181" gradientUnits="userSpaceOnUse">
<stop stop-color="#E8EAED"/>
<stop offset="1" stop-color="#E4E8EB"/>
</linearGradient>
<linearGradient id="paint38_linear_201_661" x1="219" y1="136.181" x2="219" y2="150.181" gradientUnits="userSpaceOnUse">
<stop stop-color="#AAB2BD"/>
<stop offset="1" stop-color="#E4E8EB"/>
</linearGradient>
<linearGradient id="paint39_linear_201_661" x1="192" y1="3.18127" x2="192" y2="22.1813" gradientUnits="userSpaceOnUse">
<stop stop-color="#E8EAED"/>
<stop offset="1" stop-color="#E4E8EB"/>
</linearGradient>
<linearGradient id="paint40_linear_201_661" x1="218.5" y1="3.18127" x2="218.5" y2="22.1813" gradientUnits="userSpaceOnUse">
<stop stop-color="#E8EAED"/>
<stop offset="1" stop-color="#E4E8EB"/>
</linearGradient>
<linearGradient id="paint41_linear_201_661" x1="244.5" y1="3.18127" x2="244.5" y2="22.1813" gradientUnits="userSpaceOnUse">
<stop stop-color="#E8EAED"/>
<stop offset="1" stop-color="#E4E8EB"/>
</linearGradient>
<linearGradient id="paint42_linear_201_661" x1="192" y1="26.1813" x2="192" y2="45.1813" gradientUnits="userSpaceOnUse">
<stop stop-color="#E8EAED"/>
<stop offset="1" stop-color="#E4E8EB"/>
</linearGradient>
<linearGradient id="paint43_linear_201_661" x1="218.5" y1="26.1813" x2="218.5" y2="45.1813" gradientUnits="userSpaceOnUse">
<stop stop-color="#E8EAED"/>
<stop offset="1" stop-color="#E4E8EB"/>
</linearGradient>
<linearGradient id="paint44_linear_201_661" x1="244.5" y1="26.1813" x2="244.5" y2="45.1813" gradientUnits="userSpaceOnUse">
<stop stop-color="#E8EAED"/>
<stop offset="1" stop-color="#E4E8EB"/>
</linearGradient>
<linearGradient id="paint45_linear_201_661" x1="192" y1="48.1813" x2="192" y2="67.1813" gradientUnits="userSpaceOnUse">
<stop stop-color="#E8EAED"/>
<stop offset="1" stop-color="#E4E8EB"/>
</linearGradient>
<linearGradient id="paint46_linear_201_661" x1="218.5" y1="48.1813" x2="218.5" y2="67.1813" gradientUnits="userSpaceOnUse">
<stop stop-color="#E8EAED"/>
<stop offset="1" stop-color="#E4E8EB"/>
</linearGradient>
<linearGradient id="paint47_linear_201_661" x1="244.5" y1="48.1813" x2="244.5" y2="67.1813" gradientUnits="userSpaceOnUse">
<stop stop-color="#E8EAED"/>
<stop offset="1" stop-color="#E4E8EB"/>
</linearGradient>
<linearGradient id="paint48_linear_201_661" x1="192" y1="70.1813" x2="192" y2="89.1813" gradientUnits="userSpaceOnUse">
<stop stop-color="#E8EAED"/>
<stop offset="1" stop-color="#E4E8EB"/>
</linearGradient>
<linearGradient id="paint49_linear_201_661" x1="218.5" y1="70.1813" x2="218.5" y2="89.1813" gradientUnits="userSpaceOnUse">
<stop stop-color="#E8EAED"/>
<stop offset="1" stop-color="#E4E8EB"/>
</linearGradient>
<linearGradient id="paint50_linear_201_661" x1="244.5" y1="70.1813" x2="244.5" y2="89.1813" gradientUnits="userSpaceOnUse">
<stop stop-color="#E8EAED"/>
<stop offset="1" stop-color="#E4E8EB"/>
</linearGradient>
<linearGradient id="paint51_linear_201_661" x1="192" y1="93.1813" x2="192" y2="112.181" gradientUnits="userSpaceOnUse">
<stop stop-color="#E8EAED"/>
<stop offset="1" stop-color="#E4E8EB"/>
</linearGradient>
<linearGradient id="paint52_linear_201_661" x1="218.5" y1="93.1813" x2="218.5" y2="112.181" gradientUnits="userSpaceOnUse">
<stop stop-color="#E8EAED"/>
<stop offset="1" stop-color="#E4E8EB"/>
</linearGradient>
<linearGradient id="paint53_linear_201_661" x1="244.5" y1="93.1813" x2="244.5" y2="112.181" gradientUnits="userSpaceOnUse">
<stop stop-color="#E8EAED"/>
<stop offset="1" stop-color="#E4E8EB"/>
</linearGradient>
<linearGradient id="paint54_linear_201_661" x1="192" y1="115.181" x2="192" y2="134.181" gradientUnits="userSpaceOnUse">
<stop stop-color="#E8EAED"/>
<stop offset="1" stop-color="#E4E8EB"/>
</linearGradient>
<linearGradient id="paint55_linear_201_661" x1="218.5" y1="115.181" x2="218.5" y2="134.181" gradientUnits="userSpaceOnUse">
<stop stop-color="#E8EAED"/>
<stop offset="1" stop-color="#E4E8EB"/>
</linearGradient>
<linearGradient id="paint56_linear_201_661" x1="244.5" y1="115.181" x2="244.5" y2="134.181" gradientUnits="userSpaceOnUse">
<stop stop-color="#E8EAED"/>
<stop offset="1" stop-color="#E4E8EB"/>
</linearGradient>
</defs>
</svg>
