<svg width="256" height="256" viewBox="0 0 256 256" fill="none" xmlns="http://www.w3.org/2000/svg">
<path d="M124 40V32C124 30.9391 124.421 29.9217 125.172 29.1716C125.922 28.4214 126.939 28 128 28C129.061 28 130.078 28.4214 130.828 29.1716C131.579 29.9217 132 30.9391 132 32V40C132 41.0609 131.579 42.0783 130.828 42.8284C130.078 43.5786 129.061 44 128 44C126.939 44 125.922 43.5786 125.172 42.8284C124.421 42.0783 124 41.0609 124 40ZM188 128C188 139.867 184.481 151.467 177.888 161.334C171.295 171.201 161.925 178.892 150.961 183.433C139.997 187.974 127.933 189.162 116.295 186.847C104.656 184.532 93.9647 178.818 85.5736 170.426C77.1824 162.035 71.468 151.344 69.1529 139.705C66.8378 128.067 68.026 116.003 72.5672 105.039C77.1085 94.0754 84.7988 84.7047 94.6658 78.1118C104.533 71.5189 116.133 68 128 68C143.907 68.0185 159.158 74.3459 170.406 85.5941C181.654 96.8422 187.981 112.093 188 128ZM180 128C180 117.715 176.95 107.662 171.236 99.1104C165.523 90.559 157.401 83.894 147.9 79.9583C138.398 76.0225 127.942 74.9927 117.855 76.9992C107.768 79.0056 98.5028 83.9581 91.2304 91.2304C83.9581 98.5028 79.0056 107.768 76.9992 117.855C74.9927 127.942 76.0225 138.398 79.9583 147.9C83.894 157.401 90.559 165.523 99.1104 171.236C107.662 176.95 117.715 180 128 180C141.786 179.984 155.004 174.5 164.752 164.752C174.5 155.004 179.984 141.786 180 128ZM61.17 66.83C61.9206 67.5806 62.9385 68.0022 64 68.0022C65.0615 68.0022 66.0794 67.5806 66.83 66.83C67.5806 66.0794 68.0022 65.0615 68.0022 64C68.0022 62.9385 67.5806 61.9206 66.83 61.17L58.83 53.17C58.0794 52.4194 57.0615 51.9978 56 51.9978C54.9385 51.9978 53.9206 52.4194 53.17 53.17C52.4194 53.9206 51.9978 54.9385 51.9978 56C51.9978 57.0615 52.4194 58.0794 53.17 58.83L61.17 66.83ZM61.17 189.17L53.17 197.17C52.4194 197.921 51.9978 198.939 51.9978 200C51.9978 201.061 52.4194 202.079 53.17 202.83C53.9206 203.581 54.9385 204.002 56 204.002C57.0615 204.002 58.0794 203.581 58.83 202.83L66.83 194.83C67.5806 194.079 68.0022 193.061 68.0022 192C68.0022 190.939 67.5806 189.921 66.83 189.17C66.0794 188.419 65.0615 187.998 64 187.998C62.9385 187.998 61.9206 188.419 61.17 189.17ZM197.17 53.17L189.17 61.17C188.419 61.9206 187.998 62.9385 187.998 64C187.998 65.0615 188.419 66.0794 189.17 66.83C189.921 67.5806 190.939 68.0022 192 68.0022C193.061 68.0022 194.079 67.5806 194.83 66.83L202.83 58.83C203.202 58.4584 203.496 58.0172 203.698 57.5316C203.899 57.046 204.002 56.5256 204.002 56C204.002 55.4744 203.899 54.954 203.698 54.4684C203.496 53.9828 203.202 53.5416 202.83 53.17C202.458 52.7984 202.017 52.5036 201.532 52.3024C201.046 52.1013 200.526 51.9978 200 51.9978C199.474 51.9978 198.954 52.1013 198.468 52.3024C197.983 52.5036 197.542 52.7984 197.17 53.17ZM194.83 189.17C194.079 188.419 193.061 187.998 192 187.998C190.939 187.998 189.921 188.419 189.17 189.17C188.419 189.921 187.998 190.939 187.998 192C187.998 193.061 188.419 194.079 189.17 194.83L197.17 202.83C197.921 203.581 198.939 204.002 200 204.002C201.061 204.002 202.079 203.581 202.83 202.83C203.581 202.079 204.002 201.061 204.002 200C204.002 198.939 203.581 197.921 202.83 197.17L194.83 189.17ZM40 124H32C30.9391 124 29.9217 124.421 29.1716 125.172C28.4214 125.922 28 126.939 28 128C28 129.061 28.4214 130.078 29.1716 130.828C29.9217 131.579 30.9391 132 32 132H40C41.0609 132 42.0783 131.579 42.8284 130.828C43.5786 130.078 44 129.061 44 128C44 126.939 43.5786 125.922 42.8284 125.172C42.0783 124.421 41.0609 124 40 124ZM128 212C126.939 212 125.922 212.421 125.172 213.172C124.421 213.922 124 214.939 124 216V224C124 225.061 124.421 226.078 125.172 226.828C125.922 227.579 126.939 228 128 228C129.061 228 130.078 227.579 130.828 226.828C131.579 226.078 132 225.061 132 224V216C132 214.939 131.579 213.922 130.828 213.172C130.078 212.421 129.061 212 128 212ZM224 124H216C214.939 124 213.922 124.421 213.172 125.172C212.421 125.922 212 126.939 212 128C212 129.061 212.421 130.078 213.172 130.828C213.922 131.579 214.939 132 216 132H224C225.061 132 226.078 131.579 226.828 130.828C227.579 130.078 228 129.061 228 128C228 126.939 227.579 125.922 226.828 125.172C226.078 124.421 225.061 124 224 124Z" fill="white"/>
</svg>
